NokyungTest-B.ufo
<glyph name="quotedbl" format="1">
  <advance width="909"/>
  <unicode hex="0022"/>
  <outline>
    <contour>
      <point x="358" y="1339" type="curve" smooth="yes"/>
      <point x="358" y="1317"/>
      <point x="350" y="1255"/>
      <point x="334" y="1154" type="curve" smooth="yes"/>
      <point x="283" y="830" type="line" smooth="yes"/>
      <point x="282" y="822"/>
      <point x="272" y="818"/>
      <point x="255" y="819" type="curve" smooth="yes"/>
      <point x="238" y="819"/>
      <point x="229" y="823"/>
      <point x="228" y="830" type="curve" smooth="yes"/>
      <point x="180" y="1154" type="line" smooth="yes"/>
      <point x="163" y="1271"/>
      <point x="154" y="1328"/>
      <point x="154" y="1323" type="curve"/>
      <point x="154" y="1412"/>
      <point x="188" y="1457"/>
      <point x="257" y="1457" type="curve" smooth="yes"/>
      <point x="324" y="1457"/>
      <point x="358" y="1418"/>
    </contour>
    <contour>
      <point x="748" y="1339" type="curve" smooth="yes"/>
      <point x="748" y="1317"/>
      <point x="740" y="1255"/>
      <point x="724" y="1154" type="curve" smooth="yes"/>
      <point x="673" y="830" type="line" smooth="yes"/>
      <point x="672" y="822"/>
      <point x="662" y="818"/>
      <point x="645" y="819" type="curve" smooth="yes"/>
      <point x="628" y="819"/>
      <point x="619" y="823"/>
      <point x="618" y="830" type="curve" smooth="yes"/>
      <point x="570" y="1154" type="line" smooth="yes"/>
      <point x="553" y="1271"/>
      <point x="544" y="1328"/>
      <point x="544" y="1323" type="curve"/>
      <point x="544" y="1412"/>
      <point x="578" y="1457"/>
      <point x="647" y="1457" type="curve" smooth="yes"/>
      <point x="714" y="1457"/>
      <point x="748" y="1418"/>
    </contour>
  </outline>
</glyph>
<glyph name="dollar" format="1">
  <advance width="998"/>
  <unicode hex="0024"/>
  <outline>
    <contour>
      <point x="889" y="354" type="curve" smooth="yes"/>
      <point x="889" y="255"/>
      <point x="859" y="171"/>
      <point x="798" y="104" type="curve" smooth="yes"/>
      <point x="737" y="37"/>
      <point x="656" y="-2"/>
      <point x="554" y="-14" type="curve"/>
      <point x="555" y="-150" type="line" smooth="yes"/>
      <point x="555" y="-164"/>
      <point x="536" y="-171"/>
      <point x="498" y="-171" type="curve" smooth="yes"/>
      <point x="460" y="-171"/>
      <point x="441" y="-164"/>
      <point x="441" y="-150" type="curve" smooth="yes"/>
      <point x="441" y="-114"/>
      <point x="441" y="-69"/>
      <point x="442" y="-14" type="curve"/>
      <point x="313" y="-1"/>
      <point x="212" y="51"/>
      <point x="138" y="142" type="curve" smooth="yes"/>
      <point x="127" y="155"/>
      <point x="134" y="178"/>
      <point x="159" y="210" type="curve" smooth="yes"/>
      <point x="180" y="237"/>
      <point x="195" y="251"/>
      <point x="205" y="251" type="curve"/>
      <point x="208" y="250"/>
      <point x="210" y="249"/>
      <point x="211" y="247" type="curve" smooth="yes"/>
      <point x="231" y="206"/>
      <point x="263" y="169"/>
      <point x="307" y="134" type="curve" smooth="yes"/>
      <point x="353" y="97"/>
      <point x="398" y="75"/>
      <point x="443" y="67" type="curve"/>
      <point x="451" y="734" type="line"/>
      <point x="342" y="819"/>
      <point x="271" y="880"/>
      <point x="240" y="918" type="curve" smooth="yes"/>
      <point x="179" y="992"/>
      <point x="148" y="1077"/>
      <point x="148" y="1174" type="curve" smooth="yes"/>
      <point x="148" y="1251"/>
      <point x="172" y="1320"/>
      <point x="219" y="1379" type="curve" smooth="yes"/>
      <point x="272" y="1446"/>
      <point x="347" y="1485"/>
      <point x="442" y="1495" type="curve"/>
      <point x="441" y="1595" type="line" smooth="yes"/>
      <point x="441" y="1608"/>
      <point x="460" y="1615"/>
      <point x="498" y="1615" type="curve" smooth="yes"/>
      <point x="536" y="1615"/>
      <point x="555" y="1608"/>
      <point x="555" y="1595" type="curve" smooth="yes"/>
      <point x="555" y="1569"/>
      <point x="555" y="1536"/>
      <point x="554" y="1495" type="curve"/>
      <point x="663" y="1482"/>
      <point x="751" y="1434"/>
      <point x="820" y="1350" type="curve" smooth="yes"/>
      <point x="824" y="1345"/>
      <point x="826" y="1341"/>
      <point x="826" y="1336" type="curve" smooth="yes"/>
      <point x="826" y="1329"/>
      <point x="814" y="1314"/>
      <point x="789" y="1291" type="curve" smooth="yes"/>
      <point x="756" y="1260"/>
      <point x="735" y="1252"/>
      <point x="728" y="1267" type="curve" smooth="yes"/>
      <point x="687" y="1350"/>
      <point x="629" y="1399"/>
      <point x="554" y="1413" type="curve"/>
      <point x="546" y="823" type="line"/>
      <point x="666" y="732"/>
      <point x="744" y="667"/>
      <point x="779" y="628" type="curve" smooth="yes"/>
      <point x="852" y="545"/>
      <point x="889" y="454"/>
    </contour>
    <contour>
      <point x="450" y="901" type="curve"/>
      <point x="443" y="1411" type="line"/>
      <point x="333" y="1390"/>
      <point x="278" y="1326"/>
      <point x="278" y="1218" type="curve" smooth="yes"/>
      <point x="278" y="1109"/>
      <point x="335" y="1003"/>
    </contour>
    <contour>
      <point x="757" y="321" type="curve" smooth="yes"/>
      <point x="757" y="418"/>
      <point x="686" y="530"/>
      <point x="545" y="655" type="curve"/>
      <point x="547" y="526"/>
      <point x="550" y="331"/>
      <point x="553" y="72" type="curve"/>
      <point x="622" y="86"/>
      <point x="674" y="119"/>
      <point x="710" y="170" type="curve" smooth="yes"/>
      <point x="741" y="213"/>
      <point x="757" y="264"/>
    </contour>
  </outline>
</glyph>
<glyph name="percent" format="1">
  <advance width="1386"/>
  <unicode hex="0025"/>
  <outline>
    <contour>
      <point x="676" y="1155" type="curve" smooth="yes"/>
      <point x="676" y="1064"/>
      <point x="652" y="987"/>
      <point x="605" y="922" type="curve" smooth="yes"/>
      <point x="551" y="849"/>
      <point x="479" y="813"/>
      <point x="388" y="813" type="curve" smooth="yes"/>
      <point x="297" y="813"/>
      <point x="224" y="850"/>
      <point x="170" y="925" type="curve" smooth="yes"/>
      <point x="123" y="990"/>
      <point x="100" y="1067"/>
      <point x="100" y="1155" type="curve" smooth="yes"/>
      <point x="100" y="1240"/>
      <point x="123" y="1315"/>
      <point x="170" y="1382" type="curve" smooth="yes"/>
      <point x="225" y="1459"/>
      <point x="297" y="1498"/>
      <point x="388" y="1498" type="curve" smooth="yes"/>
      <point x="483" y="1498"/>
      <point x="557" y="1460"/>
      <point x="610" y="1384" type="curve" smooth="yes"/>
      <point x="654" y="1321"/>
      <point x="676" y="1244"/>
    </contour>
    <contour>
      <point x="543" y="1155" type="curve" smooth="yes"/>
      <point x="543" y="1234"/>
      <point x="529" y="1298"/>
      <point x="502" y="1345" type="curve" smooth="yes"/>
      <point x="475" y="1393"/>
      <point x="437" y="1417"/>
      <point x="388" y="1417" type="curve" smooth="yes"/>
      <point x="340" y="1417"/>
      <point x="302" y="1390"/>
      <point x="274" y="1337" type="curve" smooth="yes"/>
      <point x="248" y="1288"/>
      <point x="235" y="1228"/>
      <point x="235" y="1155" type="curve" smooth="yes"/>
      <point x="235" y="1076"/>
      <point x="249" y="1012"/>
      <point x="277" y="965" type="curve" smooth="yes"/>
      <point x="306" y="918"/>
      <point x="343" y="894"/>
      <point x="388" y="894" type="curve" smooth="yes"/>
      <point x="491" y="894"/>
      <point x="543" y="981"/>
    </contour>
    <contour>
      <point x="1286" y="325" type="curve" smooth="yes"/>
      <point x="1286" y="234"/>
      <point x="1262" y="157"/>
      <point x="1215" y="92" type="curve" smooth="yes"/>
      <point x="1161" y="19"/>
      <point x="1089" y="-17"/>
      <point x="998" y="-17" type="curve" smooth="yes"/>
      <point x="907" y="-17"/>
      <point x="834" y="20"/>
      <point x="780" y="95" type="curve" smooth="yes"/>
      <point x="733" y="160"/>
      <point x="710" y="237"/>
      <point x="710" y="325" type="curve" smooth="yes"/>
      <point x="710" y="410"/>
      <point x="733" y="485"/>
      <point x="780" y="552" type="curve" smooth="yes"/>
      <point x="835" y="629"/>
      <point x="907" y="668"/>
      <point x="998" y="668" type="curve" smooth="yes"/>
      <point x="1093" y="668"/>
      <point x="1167" y="630"/>
      <point x="1220" y="554" type="curve" smooth="yes"/>
      <point x="1264" y="491"/>
      <point x="1286" y="414"/>
    </contour>
    <contour>
      <point x="1153" y="325" type="curve" smooth="yes"/>
      <point x="1153" y="404"/>
      <point x="1139" y="468"/>
      <point x="1112" y="515" type="curve" smooth="yes"/>
      <point x="1085" y="563"/>
      <point x="1047" y="587"/>
      <point x="998" y="587" type="curve" smooth="yes"/>
      <point x="950" y="587"/>
      <point x="912" y="560"/>
      <point x="884" y="507" type="curve" smooth="yes"/>
      <point x="858" y="458"/>
      <point x="845" y="398"/>
      <point x="845" y="325" type="curve" smooth="yes"/>
      <point x="845" y="246"/>
      <point x="859" y="182"/>
      <point x="887" y="135" type="curve" smooth="yes"/>
      <point x="916" y="88"/>
      <point x="953" y="64"/>
      <point x="998" y="64" type="curve" smooth="yes"/>
      <point x="1101" y="64"/>
      <point x="1153" y="151"/>
    </contour>
    <contour>
      <point x="1127" y="1487" type="curve"/>
      <point x="1124" y="1478" type="line"/>
      <point x="402" y="3" type="line" smooth="yes"/>
      <point x="395" y="-10"/>
      <point x="371" y="-17"/>
      <point x="330" y="-17" type="curve" smooth="yes"/>
      <point x="293" y="-17"/>
      <point x="274" y="-14"/>
      <point x="274" y="-8" type="curve"/>
      <point x="275" y="-5"/>
      <point x="276" y="-1"/>
      <point x="278" y="3" type="curve" smooth="yes"/>
      <point x="1005" y="1478" type="line" smooth="yes"/>
      <point x="1012" y="1491"/>
      <point x="1034" y="1498"/>
      <point x="1071" y="1498" type="curve" smooth="yes"/>
      <point x="1108" y="1498"/>
      <point x="1127" y="1494"/>
    </contour>
  </outline>
</glyph>
<glyph name="ampersand" format="1">
  <advance width="1267"/>
  <unicode hex="0026"/>
  <outline>
    <contour>
      <point x="1163" y="44" type="curve" smooth="yes"/>
      <point x="1166" y="43"/>
      <point x="1167" y="41"/>
      <point x="1167" y="38" type="curve" smooth="yes"/>
      <point x="1167" y="28"/>
      <point x="1144" y="12"/>
      <point x="1097" y="-10" type="curve" smooth="yes"/>
      <point x="1050" y="-32"/>
      <point x="1020" y="-38"/>
      <point x="1007" y="-28" type="curve" smooth="yes"/>
      <point x="943" y="21"/>
      <point x="876" y="84"/>
      <point x="805" y="159" type="curve"/>
      <point x="696" y="42"/>
      <point x="581" y="-17"/>
      <point x="462" y="-17" type="curve" smooth="yes"/>
      <point x="221" y="-17"/>
      <point x="100" y="89"/>
      <point x="100" y="301" type="curve" smooth="yes"/>
      <point x="100" y="451"/>
      <point x="194" y="607"/>
      <point x="382" y="770" type="curve"/>
      <point x="318" y="908"/>
      <point x="286" y="1025"/>
      <point x="286" y="1122" type="curve" smooth="yes"/>
      <point x="286" y="1244"/>
      <point x="319" y="1339"/>
      <point x="384" y="1408" type="curve" smooth="yes"/>
      <point x="441" y="1468"/>
      <point x="512" y="1498"/>
      <point x="596" y="1498" type="curve" smooth="yes"/>
      <point x="777" y="1498"/>
      <point x="883" y="1399"/>
      <point x="883" y="1227" type="curve" smooth="yes"/>
      <point x="883" y="1161"/>
      <point x="845" y="1085"/>
      <point x="768" y="999" type="curve" smooth="yes"/>
      <point x="745" y="973"/>
      <point x="664" y="894"/>
      <point x="524" y="763" type="curve"/>
      <point x="596" y="612"/>
      <point x="692" y="469"/>
      <point x="813" y="334" type="curve"/>
      <point x="866" y="419"/>
      <point x="908" y="512"/>
      <point x="941" y="613" type="curve" smooth="yes"/>
      <point x="972" y="708"/>
      <point x="988" y="789"/>
      <point x="988" y="855" type="curve" smooth="yes"/>
      <point x="988" y="876"/>
      <point x="986" y="895"/>
      <point x="982" y="910" type="curve"/>
      <point x="988" y="911"/>
      <point x="994" y="913"/>
      <point x="1001" y="915" type="curve"/>
      <point x="1016" y="912"/>
      <point x="1040" y="906"/>
      <point x="1074" y="895" type="curve" smooth="yes"/>
      <point x="1101" y="886" type="line" smooth="yes"/>
      <point x="1135" y="875"/>
      <point x="1151" y="867"/>
      <point x="1150" y="860" type="curve" smooth="yes"/>
      <point x="1096" y="629"/>
      <point x="1008" y="429"/>
      <point x="885" y="258" type="curve"/>
      <point x="979" y="165"/>
      <point x="1072" y="93"/>
    </contour>
    <contour>
      <point x="749" y="1208" type="curve" smooth="yes"/>
      <point x="749" y="1269"/>
      <point x="735" y="1319"/>
      <point x="706" y="1358" type="curve" smooth="yes"/>
      <point x="678" y="1397"/>
      <point x="641" y="1417"/>
      <point x="596" y="1417" type="curve" smooth="yes"/>
      <point x="552" y="1417"/>
      <point x="512" y="1387"/>
      <point x="476" y="1326" type="curve" smooth="yes"/>
      <point x="440" y="1266"/>
      <point x="422" y="1203"/>
      <point x="422" y="1137" type="curve" smooth="yes"/>
      <point x="422" y="1054"/>
      <point x="443" y="960"/>
      <point x="484" y="855" type="curve"/>
      <point x="573" y="930"/>
      <point x="635" y="987"/>
      <point x="669" y="1027" type="curve" smooth="yes"/>
      <point x="722" y="1090"/>
      <point x="749" y="1150"/>
    </contour>
    <contour>
      <point x="739" y="232" type="curve"/>
      <point x="616" y="374"/>
      <point x="514" y="521"/>
      <point x="432" y="672" type="curve"/>
      <point x="304" y="539"/>
      <point x="240" y="420"/>
      <point x="240" y="313" type="curve" smooth="yes"/>
      <point x="240" y="240"/>
      <point x="258" y="182"/>
      <point x="293" y="139" type="curve"/>
      <point x="332" y="93"/>
      <point x="387" y="70"/>
      <point x="458" y="70" type="curve" smooth="yes"/>
      <point x="555" y="70"/>
      <point x="649" y="124"/>
    </contour>
  </outline>
</glyph>
<glyph name="quotesingle" format="1">
  <advance width="412"/>
  <unicode hex="0027"/>
  <outline>
    <contour>
      <point x="308" y="1339" type="curve" smooth="yes"/>
      <point x="308" y="1317"/>
      <point x="300" y="1255"/>
      <point x="284" y="1154" type="curve" smooth="yes"/>
      <point x="233" y="830" type="line" smooth="yes"/>
      <point x="232" y="822"/>
      <point x="222" y="818"/>
      <point x="205" y="819" type="curve" smooth="yes"/>
      <point x="188" y="819"/>
      <point x="179" y="823"/>
      <point x="178" y="830" type="curve" smooth="yes"/>
      <point x="130" y="1154" type="line" smooth="yes"/>
      <point x="113" y="1271"/>
      <point x="104" y="1328"/>
      <point x="104" y="1323" type="curve"/>
      <point x="104" y="1412"/>
      <point x="138" y="1457"/>
      <point x="207" y="1457" type="curve" smooth="yes"/>
      <point x="274" y="1457"/>
      <point x="308" y="1418"/>
    </contour>
  </outline>
</glyph>
<glyph name="asterisk" format="1">
  <advance width="1025"/>
  <unicode hex="002A"/>
  <outline>
    <contour>
      <point x="930" y="1257" type="curve" smooth="yes"/>
      <point x="940" y="1227"/>
      <point x="945" y="1208"/>
      <point x="945" y="1200" type="curve" smooth="yes"/>
      <point x="945" y="1189"/>
      <point x="937" y="1182"/>
      <point x="922" y="1177" type="curve" smooth="yes"/>
      <point x="889" y="1166"/>
      <point x="831" y="1155"/>
      <point x="748" y="1142" type="curve" smooth="yes"/>
      <point x="676" y="1131"/>
      <point x="619" y="1117"/>
      <point x="577" y="1099" type="curve"/>
      <point x="600" y="1060"/>
      <point x="638" y="1015"/>
      <point x="690" y="962" type="curve" smooth="yes"/>
      <point x="748" y="903"/>
      <point x="787" y="860"/>
      <point x="808" y="831" type="curve" smooth="yes"/>
      <point x="814" y="822"/>
      <point x="817" y="816"/>
      <point x="817" y="811" type="curve" smooth="yes"/>
      <point x="817" y="802"/>
      <point x="802" y="787"/>
      <point x="771" y="765" type="curve" smooth="yes"/>
      <point x="741" y="743"/>
      <point x="722" y="732"/>
      <point x="714" y="732" type="curve" smooth="yes"/>
      <point x="707" y="732"/>
      <point x="700" y="737"/>
      <point x="693" y="747" type="curve" smooth="yes"/>
      <point x="672" y="776"/>
      <point x="643" y="827"/>
      <point x="606" y="902" type="curve" smooth="yes"/>
      <point x="573" y="967"/>
      <point x="542" y="1017"/>
      <point x="512" y="1052" type="curve"/>
      <point x="482" y="1017"/>
      <point x="450" y="967"/>
      <point x="417" y="902" type="curve"/>
      <point x="378" y="829"/>
      <point x="349" y="778"/>
      <point x="328" y="749" type="curve" smooth="yes"/>
      <point x="321" y="739"/>
      <point x="314" y="734"/>
      <point x="307" y="734" type="curve" smooth="yes"/>
      <point x="299" y="734"/>
      <point x="281" y="744"/>
      <point x="254" y="763" type="curve"/>
      <point x="221" y="788"/>
      <point x="204" y="804"/>
      <point x="204" y="813" type="curve" smooth="yes"/>
      <point x="204" y="818"/>
      <point x="207" y="825"/>
      <point x="213" y="833" type="curve" smooth="yes"/>
      <point x="234" y="861"/>
      <point x="274" y="904"/>
      <point x="334" y="963" type="curve" smooth="yes"/>
      <point x="386" y="1014"/>
      <point x="424" y="1060"/>
      <point x="447" y="1099" type="curve"/>
      <point x="405" y="1116"/>
      <point x="348" y="1131"/>
      <point x="275" y="1143" type="curve" smooth="yes"/>
      <point x="194" y="1157"/>
      <point x="136" y="1169"/>
      <point x="102" y="1180" type="curve" smooth="yes"/>
      <point x="87" y="1185"/>
      <point x="80" y="1192"/>
      <point x="80" y="1203" type="curve" smooth="yes"/>
      <point x="80" y="1211"/>
      <point x="84" y="1228"/>
      <point x="93" y="1255" type="curve" smooth="yes"/>
      <point x="107" y="1297"/>
      <point x="120" y="1318"/>
      <point x="131" y="1318" type="curve" smooth="yes"/>
      <point x="135" y="1318"/>
      <point x="140" y="1317"/>
      <point x="146" y="1315" type="curve" smooth="yes"/>
      <point x="179" y="1304"/>
      <point x="233" y="1280"/>
      <point x="307" y="1241" type="curve" smooth="yes"/>
      <point x="372" y="1207"/>
      <point x="427" y="1185"/>
      <point x="472" y="1175" type="curve"/>
      <point x="473" y="1188"/>
      <point x="473" y="1202"/>
      <point x="473" y="1216" type="curve" smooth="yes"/>
      <point x="473" y="1252"/>
      <point x="468" y="1304"/>
      <point x="458" y="1371" type="curve" smooth="yes"/>
      <point x="448" y="1439"/>
      <point x="443" y="1491"/>
      <point x="443" y="1528" type="curve" smooth="yes"/>
      <point x="443" y="1545"/>
      <point x="450" y="1556"/>
      <point x="465" y="1559" type="curve" smooth="yes"/>
      <point x="468" y="1560"/>
      <point x="483" y="1560"/>
      <point x="511" y="1560" type="curve" smooth="yes"/>
      <point x="559" y="1560" type="line"/>
      <point x="576" y="1557"/>
      <point x="585" y="1546"/>
      <point x="585" y="1528" type="curve" smooth="yes"/>
      <point x="585" y="1491"/>
      <point x="579" y="1439"/>
      <point x="567" y="1372" type="curve" smooth="yes"/>
      <point x="556" y="1305"/>
      <point x="550" y="1255"/>
      <point x="550" y="1220" type="curve" smooth="yes"/>
      <point x="550" y="1205"/>
      <point x="551" y="1190"/>
      <point x="552" y="1175" type="curve"/>
      <point x="596" y="1186"/>
      <point x="651" y="1207"/>
      <point x="717" y="1240" type="curve" smooth="yes"/>
      <point x="791" y="1277"/>
      <point x="845" y="1301"/>
      <point x="878" y="1312" type="curve" smooth="yes"/>
      <point x="885" y="1314"/>
      <point x="890" y="1315"/>
      <point x="894" y="1315" type="curve" smooth="yes"/>
      <point x="905" y="1315"/>
      <point x="917" y="1296"/>
    </contour>
  </outline>
</glyph>
<glyph name="plus" format="1">
  <advance width="1970"/>
  <unicode hex="002B"/>
  <outline>
    <contour>
      <point x="1576" y="652" type="line"/>
      <point x="1576" y="530" type="line"/>
      <point x="1046" y="530" type="line"/>
      <point x="1046" y="0" type="line"/>
      <point x="924" y="0" type="line"/>
      <point x="924" y="530" type="line"/>
      <point x="394" y="530" type="line"/>
      <point x="394" y="652" type="line"/>
      <point x="924" y="652" type="line"/>
      <point x="924" y="1182" type="line"/>
      <point x="1046" y="1182" type="line"/>
      <point x="1046" y="652" type="line"/>
    </contour>
  </outline>
</glyph>
<glyph name="zero" format="1">
  <advance width="956"/>
  <unicode hex="0030"/>
  <outline>
    <contour>
      <point x="876" y="740" type="curve" smooth="yes"/>
      <point x="876" y="235"/>
      <point x="743" y="-17"/>
      <point x="478" y="-17" type="curve" smooth="yes"/>
      <point x="341" y="-17"/>
      <point x="238" y="66"/>
      <point x="167" y="231" type="curve" smooth="yes"/>
      <point x="109" y="366"/>
      <point x="80" y="536"/>
      <point x="80" y="740" type="curve" smooth="yes"/>
      <point x="80" y="955"/>
      <point x="110" y="1129"/>
      <point x="170" y="1263" type="curve" smooth="yes"/>
      <point x="240" y="1420"/>
      <point x="343" y="1498"/>
      <point x="478" y="1498" type="curve" smooth="yes"/>
      <point x="743" y="1498"/>
      <point x="876" y="1245"/>
    </contour>
    <contour>
      <point x="743" y="740" type="curve" smooth="yes"/>
      <point x="743" y="953"/>
      <point x="720" y="1118"/>
      <point x="675" y="1236" type="curve" smooth="yes"/>
      <point x="629" y="1357"/>
      <point x="563" y="1417"/>
      <point x="478" y="1417" type="curve" smooth="yes"/>
      <point x="394" y="1417"/>
      <point x="329" y="1357"/>
      <point x="283" y="1237" type="curve" smooth="yes"/>
      <point x="238" y="1118"/>
      <point x="215" y="952"/>
      <point x="215" y="740" type="curve" smooth="yes"/>
      <point x="215" y="529"/>
      <point x="238" y="364"/>
      <point x="284" y="245" type="curve" smooth="yes"/>
      <point x="330" y="124"/>
      <point x="395" y="64"/>
      <point x="478" y="64" type="curve" smooth="yes"/>
      <point x="565" y="64"/>
      <point x="632" y="126"/>
      <point x="678" y="249" type="curve" smooth="yes"/>
      <point x="721" y="366"/>
      <point x="743" y="529"/>
    </contour>
  </outline>
</glyph>
<glyph name="one" format="1">
  <advance width="956"/>
  <unicode hex="0031"/>
  <outline>
    <contour>
      <point x="660" y="24" type="curve"/>
      <point x="660" y="5"/>
      <point x="655" y="-7"/>
      <point x="644" y="-12" type="curve" smooth="yes"/>
      <point x="636" y="-15"/>
      <point x="617" y="-17"/>
      <point x="588" y="-17" type="curve" smooth="yes"/>
      <point x="559" y="-17"/>
      <point x="540" y="-15"/>
      <point x="533" y="-12" type="curve" smooth="yes"/>
      <point x="522" y="-7"/>
      <point x="516" y="5"/>
      <point x="516" y="24" type="curve"/>
      <point x="516" y="23"/>
      <point x="518" y="122"/>
      <point x="521" y="319" type="curve" smooth="yes"/>
      <point x="524" y="516"/>
      <point x="526" y="668"/>
      <point x="526" y="774" type="curve" smooth="yes"/>
      <point x="526" y="836"/>
      <point x="523" y="999"/>
      <point x="518" y="1263" type="curve"/>
      <point x="423" y="1136"/>
      <point x="351" y="1022"/>
      <point x="302" y="922" type="curve" smooth="yes"/>
      <point x="299" y="916"/>
      <point x="294" y="913"/>
      <point x="288" y="913" type="curve" smooth="yes"/>
      <point x="279" y="913"/>
      <point x="262" y="922"/>
      <point x="239" y="941" type="curve" smooth="yes"/>
      <point x="212" y="962"/>
      <point x="199" y="978"/>
      <point x="199" y="989" type="curve" smooth="yes"/>
      <point x="199" y="993"/>
      <point x="201" y="997"/>
      <point x="204" y="1000" type="curve" smooth="yes"/>
      <point x="237" y="1035"/>
      <point x="295" y="1110"/>
      <point x="379" y="1227" type="curve" smooth="yes"/>
      <point x="470" y="1354"/>
      <point x="516" y="1427"/>
      <point x="516" y="1446" type="curve" smooth="yes"/>
      <point x="516" y="1465"/>
      <point x="522" y="1478"/>
      <point x="533" y="1483" type="curve" smooth="yes"/>
      <point x="541" y="1486"/>
      <point x="559" y="1488"/>
      <point x="588" y="1488" type="curve" smooth="yes"/>
      <point x="617" y="1488"/>
      <point x="635" y="1486"/>
      <point x="643" y="1483" type="curve" smooth="yes"/>
      <point x="654" y="1478"/>
      <point x="660" y="1466"/>
      <point x="660" y="1447" type="curve" smooth="yes"/>
      <point x="654" y="1111" type="line" smooth="yes"/>
      <point x="651" y="972"/>
      <point x="650" y="859"/>
      <point x="650" y="774" type="curve" smooth="yes"/>
      <point x="650" y="668"/>
      <point x="652" y="516"/>
      <point x="655" y="319" type="curve" smooth="yes"/>
      <point x="658" y="122"/>
      <point x="660" y="23"/>
    </contour>
  </outline>
</glyph>
<glyph name="four" format="1">
  <advance width="956"/>
  <unicode hex="0034"/>
  <outline>
    <contour>
      <point x="866" y="490" type="curve" smooth="yes"/>
      <point x="873" y="446"/>
      <point x="872" y="423"/>
      <point x="863" y="421" type="curve" smooth="yes"/>
      <point x="833" y="416"/>
      <point x="797" y="412"/>
      <point x="754" y="409" type="curve"/>
      <point x="760" y="24" type="line" smooth="yes"/>
      <point x="760" y="5"/>
      <point x="755" y="-7"/>
      <point x="744" y="-12" type="curve" smooth="yes"/>
      <point x="736" y="-15"/>
      <point x="717" y="-17"/>
      <point x="688" y="-17" type="curve" smooth="yes"/>
      <point x="659" y="-17"/>
      <point x="640" y="-15"/>
      <point x="633" y="-12" type="curve" smooth="yes"/>
      <point x="622" y="-7"/>
      <point x="616" y="5"/>
      <point x="616" y="24" type="curve"/>
      <point x="616" y="19"/>
      <point x="618" y="146"/>
      <point x="622" y="405" type="curve"/>
      <point x="170" y="405" type="line" smooth="yes"/>
      <point x="124" y="405"/>
      <point x="101" y="426"/>
      <point x="101" y="467" type="curve" smooth="yes"/>
      <point x="101" y="546"/>
      <point x="118" y="626"/>
      <point x="152" y="705" type="curve" smooth="yes"/>
      <point x="181" y="773"/>
      <point x="238" y="872"/>
      <point x="321" y="1002" type="curve" smooth="yes"/>
      <point x="384" y="1101"/>
      <point x="459" y="1212"/>
      <point x="545" y="1335" type="curve" smooth="yes"/>
      <point x="591" y="1400"/>
      <point x="615" y="1441"/>
      <point x="617" y="1457" type="curve" smooth="yes"/>
      <point x="620" y="1478"/>
      <point x="642" y="1488"/>
      <point x="685" y="1488" type="curve" smooth="yes"/>
      <point x="714" y="1488"/>
      <point x="732" y="1486"/>
      <point x="740" y="1483" type="curve" smooth="yes"/>
      <point x="751" y="1478"/>
      <point x="757" y="1466"/>
      <point x="757" y="1447" type="curve" smooth="yes"/>
      <point x="757" y="1445"/>
      <point x="756" y="1359"/>
      <point x="753" y="1190" type="curve" smooth="yes"/>
      <point x="751" y="1021"/>
      <point x="750" y="884"/>
      <point x="750" y="779" type="curve" smooth="yes"/>
      <point x="750" y="701"/>
      <point x="751" y="611"/>
      <point x="752" y="510" type="curve"/>
      <point x="785" y="517"/>
      <point x="814" y="525"/>
      <point x="838" y="534" type="curve" smooth="yes"/>
      <point x="851" y="539"/>
      <point x="860" y="525"/>
    </contour>
    <contour>
      <point x="626" y="779" type="curve" smooth="yes"/>
      <point x="626" y="881"/>
      <point x="624" y="1046"/>
      <point x="619" y="1273" type="curve"/>
      <point x="547" y="1184"/>
      <point x="468" y="1071"/>
      <point x="382" y="932" type="curve" smooth="yes"/>
      <point x="284" y="774"/>
      <point x="235" y="644"/>
      <point x="235" y="541" type="curve" smooth="yes"/>
      <point x="235" y="510"/>
      <point x="244" y="495"/>
      <point x="261" y="495" type="curve" smooth="yes"/>
      <point x="624" y="495" type="line"/>
      <point x="625" y="594"/>
      <point x="626" y="688"/>
    </contour>
  </outline>
</glyph>
<glyph name="six" format="1">
  <advance width="956"/>
  <unicode hex="0036"/>
  <outline>
    <contour>
      <point x="876" y="496" type="curve" smooth="yes"/>
      <point x="876" y="361"/>
      <point x="846" y="246"/>
      <point x="785" y="152" type="curve" smooth="yes"/>
      <point x="713" y="39"/>
      <point x="611" y="-17"/>
      <point x="478" y="-17" type="curve" smooth="yes"/>
      <point x="353" y="-17"/>
      <point x="256" y="41"/>
      <point x="187" y="156" type="curve" smooth="yes"/>
      <point x="116" y="276"/>
      <point x="80" y="449"/>
      <point x="80" y="674" type="curve" smooth="yes"/>
      <point x="80" y="951"/>
      <point x="123" y="1161"/>
      <point x="209" y="1303" type="curve" smooth="yes"/>
      <point x="288" y="1434"/>
      <point x="398" y="1499"/>
      <point x="538" y="1499" type="curve" smooth="yes"/>
      <point x="665" y="1499"/>
      <point x="759" y="1454"/>
      <point x="819" y="1364" type="curve" smooth="yes"/>
      <point x="828" y="1351"/>
      <point x="819" y="1330"/>
      <point x="792" y="1301" type="curve" smooth="yes"/>
      <point x="769" y="1275"/>
      <point x="752" y="1262"/>
      <point x="743" y="1262" type="curve" smooth="yes"/>
      <point x="740" y="1262"/>
      <point x="738" y="1263"/>
      <point x="736" y="1266" type="curve" smooth="yes"/>
      <point x="703" y="1321"/>
      <point x="674" y="1359"/>
      <point x="648" y="1380" type="curve" smooth="yes"/>
      <point x="616" y="1405"/>
      <point x="575" y="1418"/>
      <point x="526" y="1418" type="curve" smooth="yes"/>
      <point x="443" y="1418"/>
      <point x="375" y="1368"/>
      <point x="320" y="1269" type="curve" smooth="yes"/>
      <point x="260" y="1160"/>
      <point x="226" y="1005"/>
      <point x="217" y="803" type="curve"/>
      <point x="290" y="913"/>
      <point x="377" y="968"/>
      <point x="478" y="968" type="curve" smooth="yes"/>
      <point x="614" y="968"/>
      <point x="717" y="916"/>
      <point x="788" y="813" type="curve" smooth="yes"/>
      <point x="847" y="728"/>
      <point x="876" y="622"/>
    </contour>
    <contour>
      <point x="743" y="496" type="curve" smooth="yes"/>
      <point x="743" y="593"/>
      <point x="720" y="680"/>
      <point x="675" y="757" type="curve" smooth="yes"/>
      <point x="624" y="844"/>
      <point x="559" y="887"/>
      <point x="478" y="887" type="curve" smooth="yes"/>
      <point x="422" y="887"/>
      <point x="370" y="855"/>
      <point x="321" y="792" type="curve" smooth="yes"/>
      <point x="273" y="729"/>
      <point x="240" y="646"/>
      <point x="221" y="545" type="curve"/>
      <point x="234" y="390"/>
      <point x="265" y="270"/>
      <point x="314" y="184" type="curve" smooth="yes"/>
      <point x="359" y="104"/>
      <point x="414" y="64"/>
      <point x="478" y="64" type="curve" smooth="yes"/>
      <point x="561" y="64"/>
      <point x="628" y="111"/>
      <point x="678" y="206" type="curve" smooth="yes"/>
      <point x="721" y="289"/>
      <point x="743" y="385"/>
    </contour>
  </outline>
</glyph>
<glyph name="colon" format="1">
  <advance width="699"/>
  <unicode hex="003A"/>
  <outline>
    <contour>
      <point x="160" y="103" type="curve" smooth="yes"/>
      <point x="160" y="175"/>
      <point x="204" y="220"/>
      <point x="276" y="220" type="curve" smooth="yes"/>
      <point x="350" y="220"/>
      <point x="399" y="175"/>
      <point x="399" y="103" type="curve" smooth="yes"/>
      <point x="399" y="30"/>
      <point x="350" y="-19"/>
      <point x="276" y="-19" type="curve" smooth="yes"/>
      <point x="204" y="-19"/>
      <point x="160" y="30"/>
    </contour>
    <contour>
      <point x="160" y="473" type="curve" smooth="yes"/>
      <point x="160" y="545"/>
      <point x="204" y="590"/>
      <point x="276" y="590" type="curve" smooth="yes"/>
      <point x="350" y="590"/>
      <point x="399" y="545"/>
      <point x="399" y="473" type="curve" smooth="yes"/>
      <point x="399" y="400"/>
      <point x="350" y="351"/>
      <point x="276" y="351" type="curve" smooth="yes"/>
      <point x="204" y="351"/>
      <point x="160" y="400"/>
    </contour>
  </outline>
</glyph>
<glyph name="equal" format="1">
  <advance width="1970"/>
  <unicode hex="003D"/>
  <outline>
    <contour>
      <point x="1576" y="831" type="line"/>
      <point x="1576" y="709" type="line"/>
      <point x="394" y="709" type="line"/>
      <point x="394" y="831" type="line"/>
    </contour>
    <contour>
      <point x="1576" y="473" type="line"/>
      <point x="1576" y="351" type="line"/>
      <point x="394" y="351" type="line"/>
      <point x="394" y="473" type="line"/>
    </contour>
  </outline>
</glyph>
<glyph name="B" format="1">
  <advance width="1332"/>
  <unicode hex="0042"/>
  <outline>
    <contour>
      <point x="1253" y="370" type="curve" smooth="yes"/>
      <point x="1253" y="260"/>
      <point x="1208" y="170"/>
      <point x="1117" y="99" type="curve" smooth="yes"/>
      <point x="1034" y="33"/>
      <point x="886" y="0"/>
      <point x="674" y="0" type="curve" smooth="yes"/>
      <point x="35" y="0" type="line"/>
      <point x="35" y="37" type="line"/>
      <point x="85" y="37" type="line" smooth="yes"/>
      <point x="142" y="37"/>
      <point x="182" y="56"/>
      <point x="207" y="93" type="curve" smooth="yes"/>
      <point x="222" y="114"/>
      <point x="229" y="163"/>
      <point x="229" y="240" type="curve" smooth="yes"/>
      <point x="229" y="1117" type="line" smooth="yes"/>
      <point x="229" y="1203"/>
      <point x="220" y="1256"/>
      <point x="201" y="1277" type="curve" smooth="yes"/>
      <point x="176" y="1306"/>
      <point x="137" y="1320"/>
      <point x="85" y="1320" type="curve" smooth="yes"/>
      <point x="35" y="1320" type="line"/>
      <point x="35" y="1355" type="line"/>
      <point x="621" y="1355" type="line" smooth="yes"/>
      <point x="1002" y="1355"/>
      <point x="1192" y="1234"/>
      <point x="1192" y="993" type="curve" smooth="yes"/>
      <point x="1192" y="845"/>
      <point x="1110" y="745"/>
      <point x="946" y="694" type="curve"/>
      <point x="1151" y="654"/>
      <point x="1253" y="546"/>
    </contour>
    <contour>
      <point x="981" y="1003" type="curve" smooth="yes"/>
      <point x="981" y="1085"/>
      <point x="950" y="1152"/>
      <point x="888" y="1203" type="curve" smooth="yes"/>
      <point x="820" y="1260"/>
      <point x="725" y="1289"/>
      <point x="603" y="1289" type="curve" smooth="yes"/>
      <point x="533" y="1289"/>
      <point x="473" y="1282"/>
      <point x="422" y="1269" type="curve"/>
      <point x="422" y="747" type="line"/>
      <point x="461" y="738"/>
      <point x="525" y="733"/>
      <point x="613" y="733" type="curve" smooth="yes"/>
      <point x="858" y="733"/>
      <point x="981" y="823"/>
    </contour>
    <contour>
      <point x="1023" y="355" type="curve" smooth="yes"/>
      <point x="1023" y="448"/>
      <point x="987" y="522"/>
      <point x="914" y="577" type="curve"/>
      <point x="839" y="635"/>
      <point x="734" y="664"/>
      <point x="599" y="664" type="curve" smooth="yes"/>
      <point x="512" y="664"/>
      <point x="453" y="661"/>
      <point x="422" y="654" type="curve"/>
      <point x="422" y="99" type="line"/>
      <point x="503" y="80"/>
      <point x="580" y="71"/>
      <point x="652" y="71" type="curve" smooth="yes"/>
      <point x="769" y="71"/>
      <point x="861" y="98"/>
      <point x="927" y="151" type="curve" smooth="yes"/>
      <point x="991" y="202"/>
      <point x="1023" y="270"/>
    </contour>
  </outline>
</glyph>
<glyph name="D" format="1">
  <advance width="1480"/>
  <unicode hex="0044"/>
  <outline>
    <contour>
      <point x="1401" y="686" type="curve" smooth="yes"/>
      <point x="1401" y="484"/>
      <point x="1340" y="322"/>
      <point x="1217" y="200" type="curve" smooth="yes"/>
      <point x="1083" y="67"/>
      <point x="891" y="0"/>
      <point x="642" y="0" type="curve" smooth="yes"/>
      <point x="35" y="0" type="line"/>
      <point x="35" y="37" type="line"/>
      <point x="87" y="37" type="line" smooth="yes"/>
      <point x="145" y="37"/>
      <point x="185" y="56"/>
      <point x="207" y="93" type="curve" smooth="yes"/>
      <point x="222" y="117"/>
      <point x="229" y="166"/>
      <point x="229" y="240" type="curve" smooth="yes"/>
      <point x="229" y="1117" type="line" smooth="yes"/>
      <point x="229" y="1201"/>
      <point x="220" y="1254"/>
      <point x="203" y="1277" type="curve"/>
      <point x="174" y="1306"/>
      <point x="136" y="1320"/>
      <point x="87" y="1320" type="curve" smooth="yes"/>
      <point x="35" y="1320" type="line"/>
      <point x="35" y="1355" type="line"/>
      <point x="587" y="1355" type="line" smooth="yes"/>
      <point x="870" y="1355"/>
      <point x="1071" y="1302"/>
      <point x="1192" y="1196" type="curve" smooth="yes"/>
      <point x="1331" y="1073"/>
      <point x="1401" y="903"/>
    </contour>
    <contour>
      <point x="1174" y="676" type="curve" smooth="yes"/>
      <point x="1174" y="861"/>
      <point x="1123" y="1008"/>
      <point x="1020" y="1119" type="curve" smooth="yes"/>
      <point x="919" y="1227"/>
      <point x="788" y="1281"/>
      <point x="627" y="1281" type="curve" smooth="yes"/>
      <point x="562" y="1281"/>
      <point x="493" y="1271"/>
      <point x="422" y="1251" type="curve"/>
      <point x="422" y="99" type="line"/>
      <point x="515" y="79"/>
      <point x="585" y="69"/>
      <point x="634" y="69" type="curve" smooth="yes"/>
      <point x="791" y="68"/>
      <point x="919" y="122"/>
      <point x="1019" y="230" type="curve" smooth="yes"/>
      <point x="1122" y="342"/>
      <point x="1174" y="491"/>
    </contour>
  </outline>
</glyph>
<glyph name="E" format="1">
  <advance width="1251"/>
  <unicode hex="0045"/>
  <outline>
    <contour>
      <point x="1164" y="341" type="curve"/>
      <point x="1206" y="341" type="line"/>
      <point x="1088" y="0" type="line"/>
      <point x="43" y="0" type="line"/>
      <point x="43" y="37" type="line"/>
      <point x="91" y="37" type="line" smooth="yes"/>
      <point x="137" y="37"/>
      <point x="173" y="48"/>
      <point x="198" y="70" type="curve" smooth="yes"/>
      <point x="223" y="92"/>
      <point x="236" y="149"/>
      <point x="236" y="240" type="curve" smooth="yes"/>
      <point x="236" y="1121" type="line" smooth="yes"/>
      <point x="236" y="1207"/>
      <point x="228" y="1260"/>
      <point x="211" y="1279" type="curve" smooth="yes"/>
      <point x="186" y="1306"/>
      <point x="146" y="1320"/>
      <point x="91" y="1320" type="curve" smooth="yes"/>
      <point x="43" y="1320" type="line"/>
      <point x="43" y="1355" type="line"/>
      <point x="1088" y="1355" type="line"/>
      <point x="1103" y="1060" type="line"/>
      <point x="1064" y="1060" type="line"/>
      <point x="1042" y="1147"/>
      <point x="1025" y="1199"/>
      <point x="1012" y="1215" type="curve" smooth="yes"/>
      <point x="977" y="1260"/>
      <point x="907" y="1283"/>
      <point x="802" y="1283" type="curve" smooth="yes"/>
      <point x="428" y="1283" type="line"/>
      <point x="428" y="747" type="line"/>
      <point x="725" y="747" type="line" smooth="yes"/>
      <point x="811" y="747"/>
      <point x="867" y="762"/>
      <point x="894" y="793" type="curve" smooth="yes"/>
      <point x="913" y="814"/>
      <point x="929" y="864"/>
      <point x="940" y="942" type="curve"/>
      <point x="977" y="942" type="line"/>
      <point x="977" y="471" type="line"/>
      <point x="940" y="471" type="line"/>
      <point x="929" y="551"/>
      <point x="913" y="602"/>
      <point x="894" y="625" type="curve" smooth="yes"/>
      <point x="867" y="656"/>
      <point x="810" y="672"/>
      <point x="725" y="672" type="curve" smooth="yes"/>
      <point x="428" y="672" type="line"/>
      <point x="428" y="225" type="line" smooth="yes"/>
      <point x="428" y="166"/>
      <point x="431" y="129"/>
      <point x="437" y="116" type="curve" smooth="yes"/>
      <point x="450" y="87"/>
      <point x="485" y="73"/>
      <point x="542" y="73" type="curve" smooth="yes"/>
      <point x="770" y="73" type="line" smooth="yes"/>
      <point x="879" y="73"/>
      <point x="957" y="90"/>
      <point x="1004" y="123" type="curve" smooth="yes"/>
      <point x="1046" y="153"/>
      <point x="1099" y="226"/>
    </contour>
  </outline>
</glyph>
<glyph name="F" format="1">
  <advance width="1139"/>
  <unicode hex="0046"/>
  <outline>
    <contour>
      <point x="1042" y="1355" type="line"/>
      <point x="1056" y="1060" type="line"/>
      <point x="1021" y="1060" type="line"/>
      <point x="995" y="1146"/>
      <point x="963" y="1204"/>
      <point x="926" y="1233" type="curve" smooth="yes"/>
      <point x="885" y="1266"/>
      <point x="816" y="1283"/>
      <point x="719" y="1283" type="curve" smooth="yes"/>
      <point x="420" y="1283" type="line"/>
      <point x="420" y="751" type="line"/>
      <point x="666" y="751" type="line" smooth="yes"/>
      <point x="725" y="751"/>
      <point x="766" y="764"/>
      <point x="791" y="789" type="curve" smooth="yes"/>
      <point x="816" y="815"/>
      <point x="833" y="863"/>
      <point x="843" y="934" type="curve"/>
      <point x="881" y="934" type="line"/>
      <point x="881" y="475" type="line"/>
      <point x="843" y="475" type="line"/>
      <point x="843" y="542"/>
      <point x="831" y="589"/>
      <point x="806" y="618" type="curve" smooth="yes"/>
      <point x="779" y="650"/>
      <point x="732" y="666"/>
      <point x="666" y="666" type="curve" smooth="yes"/>
      <point x="420" y="666" type="line"/>
      <point x="420" y="240" type="line" smooth="yes"/>
      <point x="420" y="153"/>
      <point x="427" y="103"/>
      <point x="441" y="89" type="curve"/>
      <point x="470" y="54"/>
      <point x="511" y="37"/>
      <point x="565" y="37" type="curve" smooth="yes"/>
      <point x="615" y="37" type="line"/>
      <point x="615" y="0" type="line"/>
      <point x="33" y="0" type="line"/>
      <point x="33" y="37" type="line"/>
      <point x="83" y="37" type="line" smooth="yes"/>
      <point x="136" y="37"/>
      <point x="176" y="54"/>
      <point x="203" y="87" type="curve" smooth="yes"/>
      <point x="219" y="106"/>
      <point x="227" y="157"/>
      <point x="227" y="240" type="curve" smooth="yes"/>
      <point x="227" y="1117" type="line" smooth="yes"/>
      <point x="227" y="1204"/>
      <point x="218" y="1256"/>
      <point x="199" y="1275" type="curve" smooth="yes"/>
      <point x="169" y="1305"/>
      <point x="130" y="1320"/>
      <point x="83" y="1320" type="curve" smooth="yes"/>
      <point x="33" y="1320" type="line"/>
      <point x="33" y="1355" type="line"/>
    </contour>
  </outline>
</glyph>
<glyph name="G" format="1">
  <advance width="1480"/>
  <unicode hex="0047"/>
  <outline>
    <contour>
      <point x="1450" y="739" type="line"/>
      <point x="1450" y="703" type="line"/>
      <point x="1426" y="703" type="line" smooth="yes"/>
      <point x="1373" y="703"/>
      <point x="1338" y="685"/>
      <point x="1320" y="650" type="curve"/>
      <point x="1305" y="629"/>
      <point x="1298" y="580"/>
      <point x="1298" y="504" type="curve" smooth="yes"/>
      <point x="1298" y="91" type="line"/>
      <point x="1157" y="9"/>
      <point x="999" y="-32"/>
      <point x="822" y="-32" type="curve" smooth="yes"/>
      <point x="592" y="-32"/>
      <point x="408" y="35"/>
      <point x="270" y="168" type="curve" smooth="yes"/>
      <point x="137" y="296"/>
      <point x="71" y="459"/>
      <point x="71" y="658" type="curve" smooth="yes"/>
      <point x="71" y="843"/>
      <point x="132" y="1006"/>
      <point x="254" y="1147" type="curve" smooth="yes"/>
      <point x="391" y="1307"/>
      <point x="570" y="1387"/>
      <point x="790" y="1387" type="curve" smooth="yes"/>
      <point x="880" y="1387"/>
      <point x="966" y="1372"/>
      <point x="1047" y="1343" type="curve" smooth="yes"/>
      <point x="1129" y="1314"/>
      <point x="1171" y="1300"/>
      <point x="1172" y="1300" type="curve" smooth="yes"/>
      <point x="1199" y="1300"/>
      <point x="1215" y="1329"/>
      <point x="1222" y="1387" type="curve"/>
      <point x="1259" y="1387" type="line"/>
      <point x="1292" y="959" type="line"/>
      <point x="1259" y="959" type="line"/>
      <point x="1179" y="1198"/>
      <point x="1029" y="1318"/>
      <point x="810" y="1318" type="curve" smooth="yes"/>
      <point x="651" y="1318"/>
      <point x="525" y="1259"/>
      <point x="433" y="1141" type="curve" smooth="yes"/>
      <point x="346" y="1029"/>
      <point x="302" y="882"/>
      <point x="301" y="701" type="curve" smooth="yes"/>
      <point x="300" y="508"/>
      <point x="350" y="349"/>
      <point x="449" y="224" type="curve" smooth="yes"/>
      <point x="548" y="99"/>
      <point x="673" y="37"/>
      <point x="824" y="37" type="curve" smooth="yes"/>
      <point x="927" y="37"/>
      <point x="1020" y="62"/>
      <point x="1103" y="112" type="curve"/>
      <point x="1103" y="504" type="line" smooth="yes"/>
      <point x="1103" y="587"/>
      <point x="1092" y="641"/>
      <point x="1071" y="664" type="curve" smooth="yes"/>
      <point x="1050" y="687"/>
      <point x="1001" y="700"/>
      <point x="926" y="703" type="curve"/>
      <point x="926" y="739" type="line"/>
    </contour>
  </outline>
</glyph>
<glyph name="K" format="1">
  <advance width="1480"/>
  <unicode hex="004B"/>
  <outline>
    <contour>
      <point x="1497" y="37" type="curve"/>
      <point x="1497" y="0" type="line"/>
      <point x="851" y="0" type="line"/>
      <point x="851" y="37" type="line"/>
      <point x="920" y="37"/>
      <point x="956" y="58"/>
      <point x="961" y="100" type="curve" smooth="yes"/>
      <point x="964" y="123"/>
      <point x="940" y="160"/>
      <point x="887" y="213" type="curve" smooth="yes"/>
      <point x="479" y="619" type="line"/>
      <point x="420" y="560" type="line"/>
      <point x="420" y="240" type="line" smooth="yes"/>
      <point x="420" y="160"/>
      <point x="428" y="109"/>
      <point x="443" y="87" type="curve" smooth="yes"/>
      <point x="466" y="54"/>
      <point x="507" y="37"/>
      <point x="565" y="37" type="curve" smooth="yes"/>
      <point x="613" y="37" type="line"/>
      <point x="613" y="0" type="line"/>
      <point x="35" y="0" type="line"/>
      <point x="35" y="37" type="line"/>
      <point x="83" y="37" type="line" smooth="yes"/>
      <point x="138" y="37"/>
      <point x="178" y="54"/>
      <point x="205" y="87" type="curve" smooth="yes"/>
      <point x="220" y="104"/>
      <point x="227" y="155"/>
      <point x="227" y="240" type="curve" smooth="yes"/>
      <point x="227" y="1117" type="line" smooth="yes"/>
      <point x="227" y="1204"/>
      <point x="218" y="1257"/>
      <point x="201" y="1277" type="curve" smooth="yes"/>
      <point x="176" y="1306"/>
      <point x="137" y="1320"/>
      <point x="83" y="1320" type="curve" smooth="yes"/>
      <point x="35" y="1320" type="line"/>
      <point x="35" y="1355" type="line"/>
      <point x="613" y="1355" type="line"/>
      <point x="613" y="1320" type="line"/>
      <point x="565" y="1320" type="line" smooth="yes"/>
      <point x="517" y="1320"/>
      <point x="480" y="1307"/>
      <point x="453" y="1281" type="curve"/>
      <point x="431" y="1258"/>
      <point x="420" y="1204"/>
      <point x="420" y="1117" type="curve" smooth="yes"/>
      <point x="420" y="692" type="line"/>
      <point x="438" y="707"/>
      <point x="484" y="749"/>
      <point x="558" y="818" type="curve" smooth="yes"/>
      <point x="745" y="992"/>
      <point x="865" y="1117"/>
      <point x="916" y="1192" type="curve" smooth="yes"/>
      <point x="933" y="1217"/>
      <point x="942" y="1241"/>
      <point x="942" y="1263" type="curve" smooth="yes"/>
      <point x="942" y="1301"/>
      <point x="912" y="1320"/>
      <point x="851" y="1320" type="curve" smooth="yes"/>
      <point x="820" y="1320" type="line"/>
      <point x="820" y="1355" type="line"/>
      <point x="1320" y="1355" type="line"/>
      <point x="1320" y="1320" type="line"/>
      <point x="1266" y="1320"/>
      <point x="1210" y="1302"/>
      <point x="1151" y="1265" type="curve" smooth="yes"/>
      <point x="1110" y="1240"/>
      <point x="1076" y="1214"/>
      <point x="1049" y="1188" type="curve" smooth="yes"/>
      <point x="1046" y="1185"/>
      <point x="969" y="1109"/>
      <point x="820" y="959" type="curve"/>
      <point x="613" y="753" type="line"/>
      <point x="1113" y="254" type="line" smooth="yes"/>
      <point x="1196" y="172"/>
      <point x="1266" y="116"/>
      <point x="1324" y="87" type="curve" smooth="yes"/>
      <point x="1376" y="60"/>
      <point x="1434" y="44"/>
    </contour>
  </outline>
</glyph>
<glyph name="M" format="1">
  <advance width="1822"/>
  <unicode hex="004D"/>
  <outline>
    <contour>
      <point x="1779" y="37" type="line"/>
      <point x="1779" y="0" type="line"/>
      <point x="1202" y="0" type="line"/>
      <point x="1202" y="37" type="line"/>
      <point x="1249" y="37" type="line" smooth="yes"/>
      <point x="1308" y="37"/>
      <point x="1349" y="55"/>
      <point x="1373" y="91" type="curve" smooth="yes"/>
      <point x="1388" y="112"/>
      <point x="1395" y="160"/>
      <point x="1395" y="236" type="curve" smooth="yes"/>
      <point x="1395" y="1141" type="line"/>
      <point x="871" y="0" type="line"/>
      <point x="837" y="0" type="line"/>
      <point x="313" y="1141" type="line"/>
      <point x="313" y="236" type="line" smooth="yes"/>
      <point x="313" y="155"/>
      <point x="323" y="102"/>
      <point x="343" y="79" type="curve" smooth="yes"/>
      <point x="366" y="51"/>
      <point x="405" y="37"/>
      <point x="459" y="37" type="curve" smooth="yes"/>
      <point x="506" y="37" type="line"/>
      <point x="506" y="0" type="line"/>
      <point x="35" y="0" type="line"/>
      <point x="35" y="37" type="line"/>
      <point x="83" y="37" type="line" smooth="yes"/>
      <point x="138" y="37"/>
      <point x="179" y="55"/>
      <point x="205" y="91" type="curve"/>
      <point x="218" y="112"/>
      <point x="225" y="161"/>
      <point x="225" y="236" type="curve" smooth="yes"/>
      <point x="225" y="1121" type="line" smooth="yes"/>
      <point x="225" y="1207"/>
      <point x="210" y="1261"/>
      <point x="181" y="1283" type="curve" smooth="yes"/>
      <point x="148" y="1308"/>
      <point x="100" y="1320"/>
      <point x="35" y="1320" type="curve"/>
      <point x="35" y="1355" type="line"/>
      <point x="418" y="1355" type="line"/>
      <point x="910" y="296" type="line"/>
      <point x="1395" y="1355" type="line"/>
      <point x="1779" y="1355" type="line"/>
      <point x="1779" y="1320" type="line"/>
      <point x="1732" y="1320" type="line" smooth="yes"/>
      <point x="1675" y="1320"/>
      <point x="1634" y="1303"/>
      <point x="1608" y="1269" type="curve"/>
      <point x="1593" y="1244"/>
      <point x="1586" y="1195"/>
      <point x="1586" y="1121" type="curve" smooth="yes"/>
      <point x="1586" y="236" type="line" smooth="yes"/>
      <point x="1586" y="153"/>
      <point x="1596" y="101"/>
      <point x="1616" y="79" type="curve" smooth="yes"/>
      <point x="1640" y="51"/>
      <point x="1679" y="37"/>
      <point x="1732" y="37" type="curve" smooth="yes"/>
    </contour>
  </outline>
</glyph>
<glyph name="S" format="1">
  <advance width="1139"/>
  <unicode hex="0053"/>
  <outline>
    <contour>
      <point x="1030" y="347" type="curve" smooth="yes"/>
      <point x="1030" y="242"/>
      <point x="990" y="153"/>
      <point x="910" y="80" type="curve" smooth="yes"/>
      <point x="829" y="5"/>
      <point x="726" y="-32"/>
      <point x="603" y="-32" type="curve" smooth="yes"/>
      <point x="531" y="-32"/>
      <point x="455" y="-19"/>
      <point x="375" y="7" type="curve" smooth="yes"/>
      <point x="295" y="33"/>
      <point x="249" y="46"/>
      <point x="238" y="46" type="curve" smooth="yes"/>
      <point x="206" y="46"/>
      <point x="186" y="20"/>
      <point x="177" y="-32" type="curve"/>
      <point x="142" y="-32" type="line"/>
      <point x="142" y="433" type="line"/>
      <point x="177" y="433" type="line"/>
      <point x="193" y="302"/>
      <point x="240" y="202"/>
      <point x="319" y="135" type="curve" smooth="yes"/>
      <point x="388" y="76"/>
      <point x="476" y="47"/>
      <point x="581" y="47" type="curve" smooth="yes"/>
      <point x="662" y="47"/>
      <point x="727" y="69"/>
      <point x="778" y="113" type="curve" smooth="yes"/>
      <point x="827" y="155"/>
      <point x="851" y="207"/>
      <point x="851" y="268" type="curve" smooth="yes"/>
      <point x="851" y="331"/>
      <point x="826" y="385"/>
      <point x="777" y="431" type="curve" smooth="yes"/>
      <point x="739" y="466"/>
      <point x="655" y="520"/>
      <point x="524" y="593" type="curve" smooth="yes"/>
      <point x="365" y="682"/>
      <point x="259" y="757"/>
      <point x="206" y="817" type="curve" smooth="yes"/>
      <point x="155" y="874"/>
      <point x="130" y="945"/>
      <point x="130" y="1030" type="curve" smooth="yes"/>
      <point x="130" y="1129"/>
      <point x="165" y="1213"/>
      <point x="236" y="1280" type="curve" smooth="yes"/>
      <point x="311" y="1351"/>
      <point x="407" y="1387"/>
      <point x="524" y="1387" type="curve" smooth="yes"/>
      <point x="585" y="1387"/>
      <point x="650" y="1374"/>
      <point x="718" y="1349" type="curve" smooth="yes"/>
      <point x="787" y="1324"/>
      <point x="827" y="1311"/>
      <point x="838" y="1311" type="curve" smooth="yes"/>
      <point x="868" y="1311"/>
      <point x="889" y="1336"/>
      <point x="902" y="1387" type="curve"/>
      <point x="940" y="1387" type="line"/>
      <point x="940" y="918" type="line"/>
      <point x="902" y="918" type="line"/>
      <point x="890" y="1041"/>
      <point x="848" y="1138"/>
      <point x="776" y="1208" type="curve"/>
      <point x="709" y="1275"/>
      <point x="625" y="1308"/>
      <point x="526" y="1308" type="curve" smooth="yes"/>
      <point x="461" y="1308"/>
      <point x="405" y="1287"/>
      <point x="358" y="1246" type="curve" smooth="yes"/>
      <point x="311" y="1205"/>
      <point x="288" y="1156"/>
      <point x="288" y="1099" type="curve" smooth="yes"/>
      <point x="288" y="1046"/>
      <point x="310" y="999"/>
      <point x="355" y="957" type="curve" smooth="yes"/>
      <point x="400" y="916"/>
      <point x="490" y="859"/>
      <point x="625" y="786" type="curve" smooth="yes"/>
      <point x="744" y="722"/>
      <point x="830" y="669"/>
      <point x="885" y="628" type="curve" smooth="yes"/>
      <point x="982" y="555"/>
      <point x="1030" y="461"/>
    </contour>
  </outline>
</glyph>
<glyph name="T" format="1">
  <advance width="1247"/>
  <unicode hex="0054"/>
  <outline>
    <contour>
      <point x="1188" y="1355" type="line"/>
      <point x="1200" y="1038" type="line"/>
      <point x="1157" y="1038" type="line"/>
      <point x="1149" y="1115"/>
      <point x="1128" y="1171"/>
      <point x="1093" y="1206" type="curve"/>
      <point x="1050" y="1251"/>
      <point x="988" y="1273"/>
      <point x="908" y="1273" type="curve" smooth="yes"/>
      <point x="717" y="1273" type="line"/>
      <point x="717" y="236" type="line" smooth="yes"/>
      <point x="717" y="153"/>
      <point x="726" y="101"/>
      <point x="745" y="79" type="curve" smooth="yes"/>
      <point x="768" y="51"/>
      <point x="806" y="37"/>
      <point x="861" y="37" type="curve" smooth="yes"/>
      <point x="908" y="37" type="line"/>
      <point x="908" y="0" type="line"/>
      <point x="333" y="0" type="line"/>
      <point x="333" y="37" type="line"/>
      <point x="382" y="37" type="line" smooth="yes"/>
      <point x="437" y="37"/>
      <point x="478" y="55"/>
      <point x="504" y="91" type="curve"/>
      <point x="517" y="112"/>
      <point x="524" y="161"/>
      <point x="524" y="236" type="curve" smooth="yes"/>
      <point x="524" y="1273" type="line"/>
      <point x="363" y="1273" type="line" smooth="yes"/>
      <point x="273" y="1273"/>
      <point x="212" y="1258"/>
      <point x="179" y="1229" type="curve"/>
      <point x="131" y="1194"/>
      <point x="103" y="1131"/>
      <point x="95" y="1038" type="curve"/>
      <point x="49" y="1038" type="line"/>
      <point x="63" y="1355" type="line"/>
    </contour>
  </outline>
</glyph>
<glyph name="V" format="1">
  <advance width="1480"/>
  <unicode hex="0056"/>
  <outline>
    <contour>
      <point x="1454" y="1355" type="line"/>
      <point x="1454" y="1320" type="line"/>
      <point x="1405" y="1312"/>
      <point x="1369" y="1297"/>
      <point x="1346" y="1275" type="curve" smooth="yes"/>
      <point x="1310" y="1241"/>
      <point x="1278" y="1191"/>
      <point x="1251" y="1125" type="curve" smooth="yes"/>
      <point x="778" y="-32" type="line"/>
      <point x="741" y="-32" type="line"/>
      <point x="234" y="1139" type="line" smooth="yes"/>
      <point x="204" y="1208"/>
      <point x="175" y="1255"/>
      <point x="146" y="1279" type="curve" smooth="yes"/>
      <point x="119" y="1301"/>
      <point x="76" y="1315"/>
      <point x="18" y="1320" type="curve"/>
      <point x="18" y="1355" type="line"/>
      <point x="571" y="1355" type="line"/>
      <point x="571" y="1320" type="line"/>
      <point x="496" y="1313"/>
      <point x="450" y="1296"/>
      <point x="433" y="1271" type="curve" smooth="yes"/>
      <point x="426" y="1259"/>
      <point x="422" y="1244"/>
      <point x="422" y="1226" type="curve" smooth="yes"/>
      <point x="422" y="1192"/>
      <point x="437" y="1141"/>
      <point x="467" y="1072" type="curve" smooth="yes"/>
      <point x="814" y="276" type="line"/>
      <point x="1133" y="1064" type="line" smooth="yes"/>
      <point x="1164" y="1140"/>
      <point x="1179" y="1192"/>
      <point x="1179" y="1220" type="curve" smooth="yes"/>
      <point x="1179" y="1235"/>
      <point x="1176" y="1247"/>
      <point x="1170" y="1257" type="curve" smooth="yes"/>
      <point x="1153" y="1286"/>
      <point x="1108" y="1307"/>
      <point x="1036" y="1320" type="curve"/>
      <point x="1036" y="1355" type="line"/>
    </contour>
  </outline>
</glyph>
<glyph name="W" format="1">
  <advance width="1935"/>
  <unicode hex="0057"/>
  <outline>
    <contour>
      <point x="1917" y="1355" type="line"/>
      <point x="1917" y="1320" type="line"/>
      <point x="1852" y="1320"/>
      <point x="1802" y="1290"/>
      <point x="1769" y="1229" type="curve" smooth="yes"/>
      <point x="1755" y="1203"/>
      <point x="1733" y="1148"/>
      <point x="1704" y="1064" type="curve" smooth="yes"/>
      <point x="1328" y="-32" type="line"/>
      <point x="1287" y="-32" type="line"/>
      <point x="979" y="835" type="line"/>
      <point x="672" y="-32" type="line"/>
      <point x="634" y="-32" type="line"/>
      <point x="232" y="1095" type="line" smooth="yes"/>
      <point x="193" y="1204"/>
      <point x="166" y="1264"/>
      <point x="150" y="1277" type="curve"/>
      <point x="127" y="1306"/>
      <point x="86" y="1320"/>
      <point x="28" y="1320" type="curve"/>
      <point x="28" y="1355" type="line"/>
      <point x="528" y="1355" type="line"/>
      <point x="528" y="1320" type="line"/>
      <point x="504" y="1320" type="line" smooth="yes"/>
      <point x="456" y="1320"/>
      <point x="424" y="1305"/>
      <point x="408" y="1275" type="curve" smooth="yes"/>
      <point x="402" y="1264"/>
      <point x="399" y="1252"/>
      <point x="399" y="1240" type="curve" smooth="yes"/>
      <point x="399" y="1213"/>
      <point x="413" y="1159"/>
      <point x="441" y="1078" type="curve" smooth="yes"/>
      <point x="707" y="315" type="line"/>
      <point x="932" y="963" type="line"/>
      <point x="916" y="1016"/>
      <point x="900" y="1062"/>
      <point x="884" y="1103" type="curve" smooth="yes"/>
      <point x="847" y="1200"/>
      <point x="813" y="1262"/>
      <point x="782" y="1287" type="curve" smooth="yes"/>
      <point x="755" y="1309"/>
      <point x="718" y="1320"/>
      <point x="672" y="1320" type="curve"/>
      <point x="672" y="1355" type="line"/>
      <point x="1200" y="1355" type="line"/>
      <point x="1200" y="1320" type="line"/>
      <point x="1164" y="1320" type="line" smooth="yes"/>
      <point x="1092" y="1320"/>
      <point x="1056" y="1290"/>
      <point x="1056" y="1231" type="curve" smooth="yes"/>
      <point x="1056" y="1194"/>
      <point x="1070" y="1135"/>
      <point x="1099" y="1054" type="curve" smooth="yes"/>
      <point x="1361" y="315" type="line"/>
      <point x="1619" y="1064" type="line"/>
      <point x="1648" y="1145"/>
      <point x="1662" y="1200"/>
      <point x="1662" y="1228" type="curve" smooth="yes"/>
      <point x="1662" y="1289"/>
      <point x="1614" y="1320"/>
      <point x="1513" y="1320" type="curve"/>
      <point x="1513" y="1355" type="line"/>
    </contour>
  </outline>
</glyph>
<glyph name="backslash" format="1">
  <advance width="556"/>
  <unicode hex="005C"/>
  <outline>
    <contour>
      <point x="197" y="1554" type="curve" smooth="yes"/>
      <point x="593" y="-5" type="line" smooth="yes"/>
      <point x="596" y="-18"/>
      <point x="580" y="-25"/>
      <point x="544" y="-25" type="curve" smooth="yes"/>
      <point x="509" y="-25"/>
      <point x="490" y="-18"/>
      <point x="487" y="-5" type="curve" smooth="yes"/>
      <point x="87" y="1554" type="line" smooth="yes"/>
      <point x="84" y="1567"/>
      <point x="101" y="1574"/>
      <point x="140" y="1574" type="curve" smooth="yes"/>
      <point x="175" y="1574"/>
      <point x="194" y="1567"/>
    </contour>
  </outline>
</glyph>
<glyph name="asciicircum" format="1">
  <advance width="1970"/>
  <unicode hex="005E"/>
  <outline>
    <contour>
      <point x="1046" y="1202" type="line"/>
      <point x="1499" y="20" type="line"/>
      <point x="1377" y="20" type="line"/>
      <point x="985" y="1076" type="line"/>
      <point x="593" y="20" type="line"/>
      <point x="471" y="20" type="line"/>
      <point x="924" y="1202" type="line"/>
    </contour>
  </outline>
</glyph>
<glyph name="b" format="1">
  <advance width="1024"/>
  <unicode hex="0062"/>
  <outline>
    <contour>
      <point x="954" y="495" type="curve" smooth="yes"/>
      <point x="954" y="346"/>
      <point x="907" y="221"/>
      <point x="812" y="119" type="curve" smooth="yes"/>
      <point x="719" y="20"/>
      <point x="609" y="-30"/>
      <point x="481" y="-30" type="curve" smooth="yes"/>
      <point x="374" y="-30"/>
      <point x="263" y="10"/>
      <point x="148" y="89" type="curve"/>
      <point x="148" y="1036" type="line" smooth="yes"/>
      <point x="148" y="1134"/>
      <point x="146" y="1198"/>
      <point x="141" y="1228" type="curve" smooth="yes"/>
      <point x="138" y="1251"/>
      <point x="129" y="1268"/>
      <point x="116" y="1279" type="curve" smooth="yes"/>
      <point x="97" y="1294"/>
      <point x="61" y="1294"/>
      <point x="6" y="1277" type="curve"/>
      <point x="-8" y="1312" type="line"/>
      <point x="268" y="1422" type="line"/>
      <point x="315" y="1422" type="line"/>
      <point x="315" y="759" type="line"/>
      <point x="404" y="881"/>
      <point x="500" y="942"/>
      <point x="603" y="942" type="curve" smooth="yes"/>
      <point x="700" y="942"/>
      <point x="782" y="902"/>
      <point x="848" y="823" type="curve" smooth="yes"/>
      <point x="919" y="739"/>
      <point x="954" y="630"/>
    </contour>
    <contour>
      <point x="780" y="437" type="curve" smooth="yes"/>
      <point x="780" y="549"/>
      <point x="755" y="639"/>
      <point x="704" y="706" type="curve" smooth="yes"/>
      <point x="655" y="770"/>
      <point x="595" y="802"/>
      <point x="522" y="802" type="curve" smooth="yes"/>
      <point x="459" y="802"/>
      <point x="390" y="766"/>
      <point x="315" y="695" type="curve"/>
      <point x="315" y="146" type="line"/>
      <point x="382" y="79"/>
      <point x="455" y="45"/>
      <point x="532" y="45" type="curve" smooth="yes"/>
      <point x="597" y="45"/>
      <point x="653" y="78"/>
      <point x="700" y="144" type="curve" smooth="yes"/>
      <point x="753" y="217"/>
      <point x="780" y="315"/>
    </contour>
  </outline>
</glyph>
<glyph name="c" format="1">
  <advance width="910"/>
  <unicode hex="0063"/>
  <outline>
    <contour>
      <point x="814" y="363" type="curve"/>
      <point x="841" y="349" type="line"/>
      <point x="824" y="239"/>
      <point x="778" y="148"/>
      <point x="705" y="77" type="curve" smooth="yes"/>
      <point x="632" y="6"/>
      <point x="550" y="-30"/>
      <point x="459" y="-30" type="curve" smooth="yes"/>
      <point x="349" y="-30"/>
      <point x="257" y="14"/>
      <point x="183" y="102" type="curve" smooth="yes"/>
      <point x="107" y="193"/>
      <point x="69" y="312"/>
      <point x="69" y="457" type="curve" smooth="yes"/>
      <point x="69" y="599"/>
      <point x="112" y="716"/>
      <point x="198" y="808" type="curve" smooth="yes"/>
      <point x="281" y="897"/>
      <point x="384" y="942"/>
      <point x="506" y="942" type="curve" smooth="yes"/>
      <point x="576" y="942"/>
      <point x="643" y="923"/>
      <point x="706" y="886" type="curve" smooth="yes"/>
      <point x="781" y="843"/>
      <point x="818" y="789"/>
      <point x="818" y="723" type="curve" smooth="yes"/>
      <point x="818" y="666"/>
      <point x="786" y="638"/>
      <point x="723" y="638" type="curve" smooth="yes"/>
      <point x="656" y="638"/>
      <point x="619" y="678"/>
      <point x="613" y="757" type="curve" smooth="yes"/>
      <point x="607" y="837"/>
      <point x="560" y="877"/>
      <point x="473" y="877" type="curve" smooth="yes"/>
      <point x="399" y="877"/>
      <point x="340" y="845"/>
      <point x="296" y="781" type="curve" smooth="yes"/>
      <point x="253" y="720"/>
      <point x="232" y="641"/>
      <point x="232" y="544" type="curve" smooth="yes"/>
      <point x="232" y="429"/>
      <point x="258" y="333"/>
      <point x="310" y="256" type="curve"/>
      <point x="365" y="172"/>
      <point x="439" y="130"/>
      <point x="530" y="130" type="curve" smooth="yes"/>
      <point x="655" y="130"/>
      <point x="749" y="208"/>
    </contour>
  </outline>
</glyph>
<glyph name="d" format="1">
  <advance width="1024"/>
  <unicode hex="0064"/>
  <outline>
    <contour>
      <point x="1021" y="120" type="curve"/>
      <point x="1032" y="85" type="line"/>
      <point x="757" y="-30" type="line"/>
      <point x="711" y="-30" type="line"/>
      <point x="711" y="102" type="line"/>
      <point x="627" y="14"/>
      <point x="538" y="-30"/>
      <point x="443" y="-30" type="curve" smooth="yes"/>
      <point x="340" y="-30"/>
      <point x="252" y="13"/>
      <point x="178" y="99" type="curve" smooth="yes"/>
      <point x="104" y="186"/>
      <point x="67" y="293"/>
      <point x="67" y="420" type="curve" smooth="yes"/>
      <point x="67" y="551"/>
      <point x="105" y="668"/>
      <point x="182" y="771" type="curve" smooth="yes"/>
      <point x="268" y="886"/>
      <point x="378" y="943"/>
      <point x="512" y="944" type="curve" smooth="yes"/>
      <point x="593" y="944"/>
      <point x="660" y="918"/>
      <point x="711" y="867" type="curve"/>
      <point x="711" y="1036" type="line" smooth="yes"/>
      <point x="711" y="1132"/>
      <point x="709" y="1195"/>
      <point x="704" y="1225" type="curve" smooth="yes"/>
      <point x="701" y="1248"/>
      <point x="693" y="1266"/>
      <point x="680" y="1279" type="curve" smooth="yes"/>
      <point x="663" y="1296"/>
      <point x="626" y="1295"/>
      <point x="571" y="1277" type="curve"/>
      <point x="558" y="1312" type="line"/>
      <point x="833" y="1422" type="line"/>
      <point x="879" y="1422" type="line"/>
      <point x="879" y="363" type="line" smooth="yes"/>
      <point x="879" y="263"/>
      <point x="881" y="200"/>
      <point x="884" y="173" type="curve" smooth="yes"/>
      <point x="887" y="146"/>
      <point x="896" y="127"/>
      <point x="910" y="116" type="curve" smooth="yes"/>
      <point x="931" y="99"/>
      <point x="968" y="101"/>
    </contour>
    <contour>
      <point x="711" y="173" type="curve"/>
      <point x="711" y="646" type="line" smooth="yes"/>
      <point x="711" y="702"/>
      <point x="692" y="754"/>
      <point x="655" y="801" type="curve" smooth="yes"/>
      <point x="614" y="853"/>
      <point x="562" y="880"/>
      <point x="500" y="883" type="curve"/>
      <point x="431" y="885"/>
      <point x="372" y="851"/>
      <point x="325" y="781" type="curve" smooth="yes"/>
      <point x="276" y="709"/>
      <point x="252" y="615"/>
      <point x="252" y="500" type="curve" smooth="yes"/>
      <point x="252" y="363"/>
      <point x="283" y="257"/>
      <point x="345" y="181" type="curve" smooth="yes"/>
      <point x="397" y="116"/>
      <point x="460" y="84"/>
      <point x="534" y="83" type="curve" smooth="yes"/>
      <point x="595" y="82"/>
      <point x="654" y="112"/>
    </contour>
  </outline>
</glyph>
<glyph name="e" format="1">
  <advance width="910"/>
  <unicode hex="0065"/>
  <outline>
    <contour>
      <point x="820" y="355" type="curve"/>
      <point x="851" y="335" type="line"/>
      <point x="836" y="238"/>
      <point x="797" y="154"/>
      <point x="732" y="85" type="curve" smooth="yes"/>
      <point x="660" y="8"/>
      <point x="574" y="-30"/>
      <point x="475" y="-30" type="curve" smooth="yes"/>
      <point x="363" y="-30"/>
      <point x="269" y="13"/>
      <point x="194" y="99" type="curve" smooth="yes"/>
      <point x="115" y="189"/>
      <point x="75" y="305"/>
      <point x="75" y="447" type="curve" smooth="yes"/>
      <point x="75" y="600"/>
      <point x="115" y="722"/>
      <point x="195" y="812" type="curve" smooth="yes"/>
      <point x="272" y="900"/>
      <point x="374" y="944"/>
      <point x="500" y="944" type="curve" smooth="yes"/>
      <point x="603" y="944"/>
      <point x="686" y="911"/>
      <point x="751" y="845" type="curve" smooth="yes"/>
      <point x="818" y="776"/>
      <point x="851" y="685"/>
      <point x="851" y="571" type="curve"/>
      <point x="217" y="571" type="line"/>
      <point x="217" y="440"/>
      <point x="250" y="334"/>
      <point x="317" y="253" type="curve" smooth="yes"/>
      <point x="380" y="176"/>
      <point x="458" y="137"/>
      <point x="552" y="136" type="curve" smooth="yes"/>
      <point x="674" y="135"/>
      <point x="763" y="208"/>
    </contour>
    <contour>
      <point x="217" y="628" type="curve"/>
      <point x="642" y="628" type="line"/>
      <point x="642" y="717"/>
      <point x="617" y="783"/>
      <point x="568" y="826" type="curve" smooth="yes"/>
      <point x="532" y="857"/>
      <point x="490" y="873"/>
      <point x="443" y="873" type="curve" smooth="yes"/>
      <point x="387" y="873"/>
      <point x="338" y="852"/>
      <point x="296" y="810" type="curve" smooth="yes"/>
      <point x="251" y="765"/>
      <point x="224" y="704"/>
    </contour>
  </outline>
</glyph>
<glyph name="g" format="1">
  <advance width="1024"/>
  <unicode hex="0067"/>
  <outline>
    <contour>
      <point x="987" y="835" type="curve" smooth="yes"/>
      <point x="987" y="796"/>
      <point x="981" y="787"/>
      <point x="922" y="788" type="curve"/>
      <point x="804" y="788" type="line"/>
      <point x="840" y="740"/>
      <point x="858" y="679"/>
      <point x="859" y="605" type="curve" smooth="yes"/>
      <point x="860" y="518"/>
      <point x="828" y="445"/>
      <point x="765" y="387" type="curve" smooth="yes"/>
      <point x="698" y="326"/>
      <point x="609" y="296"/>
      <point x="498" y="296" type="curve" smooth="yes"/>
      <point x="450" y="296"/>
      <point x="404" y="302"/>
      <point x="359" y="315" type="curve"/>
      <point x="309" y="278"/>
      <point x="284" y="241"/>
      <point x="284" y="203" type="curve" smooth="yes"/>
      <point x="284" y="189"/>
      <point x="289" y="177"/>
      <point x="299" y="167" type="curve"/>
      <point x="312" y="156"/>
      <point x="338" y="148"/>
      <point x="377" y="144" type="curve" smooth="yes"/>
      <point x="416" y="140"/>
      <point x="509" y="136"/>
      <point x="656" y="132" type="curve" smooth="yes"/>
      <point x="869" y="126"/>
      <point x="975" y="54"/>
      <point x="975" y="-85" type="curve" smooth="yes"/>
      <point x="975" y="-179"/>
      <point x="926" y="-262"/>
      <point x="828" y="-333" type="curve" smooth="yes"/>
      <point x="727" y="-406"/>
      <point x="606" y="-443"/>
      <point x="463" y="-443" type="curve" smooth="yes"/>
      <point x="362" y="-443"/>
      <point x="270" y="-423"/>
      <point x="186" y="-382" type="curve" smooth="yes"/>
      <point x="103" y="-342"/>
      <point x="61" y="-299"/>
      <point x="61" y="-252" type="curve" smooth="yes"/>
      <point x="61" y="-201"/>
      <point x="122" y="-114"/>
      <point x="244" y="8" type="curve"/>
      <point x="181" y="49"/>
      <point x="150" y="85"/>
      <point x="150" y="118" type="curve" smooth="yes"/>
      <point x="150" y="171"/>
      <point x="203" y="244"/>
      <point x="309" y="335" type="curve"/>
      <point x="254" y="360"/>
      <point x="210" y="399"/>
      <point x="179" y="452" type="curve" smooth="yes"/>
      <point x="150" y="501"/>
      <point x="136" y="554"/>
      <point x="136" y="613" type="curve" smooth="yes"/>
      <point x="136" y="703"/>
      <point x="168" y="779"/>
      <point x="232" y="842" type="curve" smooth="yes"/>
      <point x="301" y="909"/>
      <point x="391" y="942"/>
      <point x="500" y="942" type="curve" smooth="yes"/>
      <point x="555" y="942"/>
      <point x="615" y="930"/>
      <point x="678" y="907" type="curve" smooth="yes"/>
      <point x="742" y="884"/>
      <point x="794" y="873"/>
      <point x="833" y="873" type="curve" smooth="yes"/>
      <point x="856" y="873"/>
      <point x="885" y="874"/>
      <point x="920" y="877" type="curve" smooth="yes"/>
      <point x="942" y="878"/>
      <point x="960" y="878"/>
      <point x="973" y="875" type="curve" smooth="yes"/>
      <point x="982" y="873"/>
      <point x="987" y="860"/>
    </contour>
    <contour>
      <point x="682" y="579" type="curve" smooth="yes"/>
      <point x="682" y="674"/>
      <point x="664" y="750"/>
      <point x="628" y="807" type="curve"/>
      <point x="593" y="865"/>
      <point x="544" y="894"/>
      <point x="483" y="894" type="curve" smooth="yes"/>
      <point x="432" y="894"/>
      <point x="392" y="875"/>
      <point x="361" y="838" type="curve" smooth="yes"/>
      <point x="326" y="796"/>
      <point x="309" y="735"/>
      <point x="309" y="656" type="curve" smooth="yes"/>
      <point x="309" y="563"/>
      <point x="327" y="488"/>
      <point x="362" y="432" type="curve" smooth="yes"/>
      <point x="398" y="374"/>
      <point x="447" y="345"/>
      <point x="510" y="345" type="curve" smooth="yes"/>
      <point x="625" y="345"/>
      <point x="682" y="423"/>
    </contour>
    <contour>
      <point x="902" y="-122" type="curve" smooth="yes"/>
      <point x="902" y="-79"/>
      <point x="869" y="-50"/>
      <point x="804" y="-35" type="curve" smooth="yes"/>
      <point x="779" y="-30"/>
      <point x="727" y="-25"/>
      <point x="646" y="-22" type="curve" smooth="yes"/>
      <point x="557" y="-19"/>
      <point x="442" y="-11"/>
      <point x="299" y="0" type="curve"/>
      <point x="236" y="-71"/>
      <point x="205" y="-130"/>
      <point x="205" y="-175" type="curve" smooth="yes"/>
      <point x="205" y="-218"/>
      <point x="237" y="-253"/>
      <point x="302" y="-280" type="curve" smooth="yes"/>
      <point x="367" y="-307"/>
      <point x="450" y="-321"/>
      <point x="552" y="-321" type="curve" smooth="yes"/>
      <point x="663" y="-321"/>
      <point x="751" y="-300"/>
      <point x="816" y="-258" type="curve" smooth="yes"/>
      <point x="873" y="-221"/>
      <point x="902" y="-175"/>
    </contour>
  </outline>
</glyph>
<glyph name="i" format="1">
  <advance width="569"/>
  <unicode hex="0069"/>
  <outline>
    <contour>
      <point x="402" y="1227" type="curve" smooth="yes"/>
      <point x="402" y="1170"/>
      <point x="358" y="1125"/>
      <point x="301" y="1125" type="curve" smooth="yes"/>
      <point x="242" y="1125"/>
      <point x="199" y="1168"/>
      <point x="199" y="1227" type="curve" smooth="yes"/>
      <point x="199" y="1286"/>
      <point x="245" y="1328"/>
      <point x="301" y="1328" type="curve" smooth="yes"/>
      <point x="357" y="1328"/>
      <point x="402" y="1283"/>
    </contour>
    <contour>
      <point x="524" y="37" type="curve"/>
      <point x="524" y="0" type="line"/>
      <point x="77" y="0" type="line"/>
      <point x="77" y="37" type="line"/>
      <point x="134" y="37"/>
      <point x="172" y="47"/>
      <point x="190" y="66" type="curve" smooth="yes"/>
      <point x="208" y="85"/>
      <point x="217" y="126"/>
      <point x="217" y="187" type="curve" smooth="yes"/>
      <point x="217" y="678" type="line" smooth="yes"/>
      <point x="217" y="767"/>
      <point x="194" y="812"/>
      <point x="148" y="812" type="curve" smooth="yes"/>
      <point x="131" y="812"/>
      <point x="108" y="807"/>
      <point x="77" y="796" type="curve"/>
      <point x="63" y="831" type="line"/>
      <point x="341" y="942" type="line"/>
      <point x="384" y="942" type="line"/>
      <point x="384" y="187" type="line" smooth="yes"/>
      <point x="384" y="125"/>
      <point x="393" y="84"/>
      <point x="411" y="65" type="curve" smooth="yes"/>
      <point x="429" y="46"/>
      <point x="467" y="37"/>
    </contour>
  </outline>
</glyph>
<glyph name="j" format="1">
  <advance width="569"/>
  <unicode hex="006A"/>
  <outline>
    <contour>
      <point x="400" y="1227" type="curve" smooth="yes"/>
      <point x="400" y="1171"/>
      <point x="356" y="1125"/>
      <point x="297" y="1125" type="curve" smooth="yes"/>
      <point x="238" y="1125"/>
      <point x="195" y="1168"/>
      <point x="195" y="1227" type="curve" smooth="yes"/>
      <point x="195" y="1255"/>
      <point x="205" y="1279"/>
      <point x="225" y="1299" type="curve" smooth="yes"/>
      <point x="246" y="1320"/>
      <point x="270" y="1330"/>
      <point x="297" y="1330" type="curve" smooth="yes"/>
      <point x="324" y="1330"/>
      <point x="347" y="1320"/>
      <point x="368" y="1299" type="curve" smooth="yes"/>
      <point x="389" y="1278"/>
      <point x="400" y="1254"/>
    </contour>
    <contour>
      <point x="384" y="942" type="line"/>
      <point x="384" y="20" type="line" smooth="yes"/>
      <point x="384" y="-133"/>
      <point x="350" y="-250"/>
      <point x="281" y="-331" type="curve" smooth="yes"/>
      <point x="218" y="-406"/>
      <point x="131" y="-443"/>
      <point x="22" y="-443" type="curve" smooth="yes"/>
      <point x="-36" y="-443"/>
      <point x="-82" y="-432"/>
      <point x="-115" y="-409" type="curve" smooth="yes"/>
      <point x="-141" y="-390"/>
      <point x="-155" y="-368"/>
      <point x="-158" y="-343" type="curve"/>
      <point x="-158" y="-294"/>
      <point x="-120" y="-256"/>
      <point x="-75" y="-256" type="curve" smooth="yes"/>
      <point x="-38" y="-256"/>
      <point x="1" y="-277"/>
      <point x="43" y="-319" type="curve" smooth="yes"/>
      <point x="72" y="-348"/>
      <point x="99" y="-363"/>
      <point x="124" y="-363" type="curve" smooth="yes"/>
      <point x="167" y="-363"/>
      <point x="194" y="-334"/>
      <point x="207" y="-275" type="curve" smooth="yes"/>
      <point x="214" y="-244"/>
      <point x="217" y="-184"/>
      <point x="217" y="-95" type="curve" smooth="yes"/>
      <point x="217" y="558" type="line" smooth="yes"/>
      <point x="217" y="703"/>
      <point x="207" y="783"/>
      <point x="187" y="798" type="curve" smooth="yes"/>
      <point x="166" y="815"/>
      <point x="128" y="815"/>
      <point x="75" y="796" type="curve"/>
      <point x="63" y="831" type="line"/>
      <point x="341" y="942" type="line"/>
    </contour>
  </outline>
</glyph>
<glyph name="k" format="1">
  <advance width="1024"/>
  <unicode hex="006B"/>
  <outline>
    <contour>
      <point x="1036" y="37" type="curve"/>
      <point x="1036" y="0" type="line"/>
      <point x="591" y="0" type="line"/>
      <point x="591" y="37" type="line"/>
      <point x="626" y="37"/>
      <point x="647" y="45"/>
      <point x="652" y="61" type="curve" smooth="yes"/>
      <point x="659" y="82"/>
      <point x="648" y="113"/>
      <point x="617" y="152" type="curve" smooth="yes"/>
      <point x="337" y="506" type="line"/>
      <point x="337" y="207" type="line" smooth="yes"/>
      <point x="337" y="134"/>
      <point x="344" y="88"/>
      <point x="359" y="71" type="curve" smooth="yes"/>
      <point x="378" y="48"/>
      <point x="419" y="37"/>
      <point x="483" y="37" type="curve"/>
      <point x="483" y="0" type="line"/>
      <point x="14" y="0" type="line"/>
      <point x="14" y="37" type="line"/>
      <point x="80" y="37"/>
      <point x="122" y="47"/>
      <point x="139" y="66" type="curve" smooth="yes"/>
      <point x="156" y="85"/>
      <point x="165" y="130"/>
      <point x="165" y="201" type="curve" smooth="yes"/>
      <point x="165" y="1034" type="line" smooth="yes"/>
      <point x="165" y="1181"/>
      <point x="156" y="1263"/>
      <point x="138" y="1279" type="curve"/>
      <point x="117" y="1296"/>
      <point x="82" y="1296"/>
      <point x="33" y="1277" type="curve"/>
      <point x="14" y="1312" type="line"/>
      <point x="290" y="1422" type="line"/>
      <point x="337" y="1422" type="line"/>
      <point x="337" y="528" type="line"/>
      <point x="567" y="723" type="line" smooth="yes"/>
      <point x="630" y="776"/>
      <point x="662" y="813"/>
      <point x="662" y="833" type="curve" smooth="yes"/>
      <point x="662" y="864"/>
      <point x="638" y="881"/>
      <point x="591" y="885" type="curve"/>
      <point x="591" y="916" type="line"/>
      <point x="989" y="916" type="line"/>
      <point x="989" y="885" type="line"/>
      <point x="933" y="883"/>
      <point x="887" y="874"/>
      <point x="850" y="857" type="curve" smooth="yes"/>
      <point x="816" y="842"/>
      <point x="777" y="815"/>
      <point x="733" y="776" type="curve" smooth="yes"/>
      <point x="493" y="562" type="line"/>
      <point x="733" y="262" type="line" smooth="yes"/>
      <point x="806" y="171"/>
      <point x="853" y="116"/>
      <point x="875" y="95" type="curve" smooth="yes"/>
      <point x="888" y="83"/>
      <point x="913" y="66"/>
      <point x="950" y="45" type="curve" smooth="yes"/>
      <point x="959" y="40"/>
      <point x="988" y="37"/>
    </contour>
  </outline>
</glyph>
<glyph name="l" format="1">
  <advance width="569"/>
  <unicode hex="006C"/>
  <outline>
    <contour>
      <point x="526" y="37" type="curve"/>
      <point x="526" y="0" type="line"/>
      <point x="77" y="0" type="line"/>
      <point x="77" y="37" type="line"/>
      <point x="131" y="37"/>
      <point x="167" y="48"/>
      <point x="184" y="70" type="curve" smooth="yes"/>
      <point x="202" y="93"/>
      <point x="211" y="138"/>
      <point x="211" y="207" type="curve" smooth="yes"/>
      <point x="211" y="1038" type="line" smooth="yes"/>
      <point x="211" y="1180"/>
      <point x="202" y="1260"/>
      <point x="183" y="1279" type="curve"/>
      <point x="158" y="1294"/>
      <point x="122" y="1294"/>
      <point x="77" y="1277" type="curve"/>
      <point x="59" y="1312" type="line"/>
      <point x="335" y="1422" type="line"/>
      <point x="378" y="1422" type="line"/>
      <point x="378" y="207" type="line" smooth="yes"/>
      <point x="378" y="140"/>
      <point x="387" y="95"/>
      <point x="404" y="72" type="curve" smooth="yes"/>
      <point x="421" y="49"/>
      <point x="462" y="37"/>
    </contour>
  </outline>
</glyph>
<glyph name="n" format="1">
  <advance width="1024"/>
  <unicode hex="006E"/>
  <outline>
    <contour>
      <point x="1021" y="37" type="curve"/>
      <point x="1021" y="0" type="line"/>
      <point x="562" y="0" type="line"/>
      <point x="562" y="37" type="line"/>
      <point x="631" y="37"/>
      <point x="674" y="50"/>
      <point x="692" y="75" type="curve" smooth="yes"/>
      <point x="705" y="93"/>
      <point x="711" y="137"/>
      <point x="711" y="207" type="curve" smooth="yes"/>
      <point x="711" y="581" type="line" smooth="yes"/>
      <point x="711" y="666"/>
      <point x="701" y="726"/>
      <point x="680" y="762" type="curve" smooth="yes"/>
      <point x="658" y="801"/>
      <point x="620" y="820"/>
      <point x="567" y="820" type="curve" smooth="yes"/>
      <point x="488" y="820"/>
      <point x="410" y="777"/>
      <point x="331" y="690" type="curve"/>
      <point x="331" y="207" type="line" smooth="yes"/>
      <point x="331" y="138"/>
      <point x="337" y="95"/>
      <point x="350" y="76" type="curve" smooth="yes"/>
      <point x="369" y="50"/>
      <point x="412" y="37"/>
      <point x="481" y="37" type="curve"/>
      <point x="481" y="0" type="line"/>
      <point x="26" y="0" type="line"/>
      <point x="26" y="37" type="line"/>
      <point x="88" y="37"/>
      <point x="128" y="51"/>
      <point x="145" y="80" type="curve"/>
      <point x="158" y="99"/>
      <point x="164" y="142"/>
      <point x="164" y="207" type="curve" smooth="yes"/>
      <point x="164" y="548" type="line" smooth="yes"/>
      <point x="164" y="697"/>
      <point x="154" y="781"/>
      <point x="134" y="798" type="curve" smooth="yes"/>
      <point x="112" y="817"/>
      <point x="76" y="816"/>
      <point x="26" y="796" type="curve"/>
      <point x="10" y="831" type="line"/>
      <point x="290" y="942" type="line"/>
      <point x="331" y="942" type="line"/>
      <point x="331" y="751" type="line"/>
      <point x="439" y="878"/>
      <point x="541" y="942"/>
      <point x="638" y="942" type="curve" smooth="yes"/>
      <point x="799" y="942"/>
      <point x="879" y="828"/>
      <point x="879" y="599" type="curve" smooth="yes"/>
      <point x="879" y="207" type="line" smooth="yes"/>
      <point x="879" y="142"/>
      <point x="885" y="99"/>
      <point x="898" y="80" type="curve"/>
      <point x="916" y="51"/>
      <point x="957" y="37"/>
    </contour>
  </outline>
</glyph>
<glyph name="o" format="1">
  <advance width="1024"/>
  <unicode hex="006F"/>
  <outline>
    <contour>
      <point x="954" y="475" type="curve" smooth="yes"/>
      <point x="954" y="344"/>
      <point x="916" y="231"/>
      <point x="840" y="134" type="curve" smooth="yes"/>
      <point x="755" y="25"/>
      <point x="643" y="-30"/>
      <point x="502" y="-30" type="curve" smooth="yes"/>
      <point x="377" y="-30"/>
      <point x="273" y="18"/>
      <point x="190" y="115" type="curve"/>
      <point x="109" y="207"/>
      <point x="69" y="318"/>
      <point x="69" y="449" type="curve" smooth="yes"/>
      <point x="69" y="580"/>
      <point x="108" y="693"/>
      <point x="187" y="788" type="curve" smooth="yes"/>
      <point x="272" y="891"/>
      <point x="380" y="942"/>
      <point x="512" y="942" type="curve" smooth="yes"/>
      <point x="641" y="942"/>
      <point x="747" y="897"/>
      <point x="830" y="808" type="curve" smooth="yes"/>
      <point x="913" y="719"/>
      <point x="954" y="608"/>
    </contour>
    <contour>
      <point x="766" y="398" type="curve" smooth="yes"/>
      <point x="766" y="537"/>
      <point x="741" y="651"/>
      <point x="690" y="740" type="curve" smooth="yes"/>
      <point x="637" y="833"/>
      <point x="568" y="879"/>
      <point x="481" y="879" type="curve" smooth="yes"/>
      <point x="419" y="879"/>
      <point x="368" y="854"/>
      <point x="328" y="805" type="curve" smooth="yes"/>
      <point x="279" y="744"/>
      <point x="254" y="653"/>
      <point x="254" y="532" type="curve" smooth="yes"/>
      <point x="254" y="397"/>
      <point x="280" y="282"/>
      <point x="333" y="189" type="curve" smooth="yes"/>
      <point x="388" y="92"/>
      <point x="459" y="43"/>
      <point x="544" y="43" type="curve" smooth="yes"/>
      <point x="692" y="43"/>
      <point x="766" y="161"/>
    </contour>
  </outline>
</glyph>
<glyph name="p" format="1">
  <advance width="1024"/>
  <unicode hex="0070"/>
  <outline>
    <contour>
      <point x="956" y="493" type="curve" smooth="yes"/>
      <point x="956" y="346"/>
      <point x="917" y="223"/>
      <point x="840" y="124" type="curve" smooth="yes"/>
      <point x="760" y="21"/>
      <point x="659" y="-30"/>
      <point x="536" y="-30" type="curve" smooth="yes"/>
      <point x="453" y="-30"/>
      <point x="380" y="-2"/>
      <point x="317" y="53" type="curve"/>
      <point x="317" y="-225" type="line" smooth="yes"/>
      <point x="317" y="-299"/>
      <point x="325" y="-346"/>
      <point x="340" y="-365" type="curve" smooth="yes"/>
      <point x="358" y="-387"/>
      <point x="402" y="-399"/>
      <point x="473" y="-402" type="curve"/>
      <point x="473" y="-439" type="line"/>
      <point x="-12" y="-439" type="line"/>
      <point x="-12" y="-402" type="line"/>
      <point x="61" y="-399"/>
      <point x="107" y="-387"/>
      <point x="124" y="-366" type="curve" smooth="yes"/>
      <point x="140" y="-347"/>
      <point x="148" y="-298"/>
      <point x="148" y="-221" type="curve" smooth="yes"/>
      <point x="148" y="646" type="line" smooth="yes"/>
      <point x="148" y="701"/>
      <point x="147" y="735"/>
      <point x="144" y="750" type="curve" smooth="yes"/>
      <point x="140" y="769"/>
      <point x="130" y="785"/>
      <point x="114" y="796" type="curve" smooth="yes"/>
      <point x="91" y="813"/>
      <point x="55" y="811"/>
      <point x="6" y="792" type="curve"/>
      <point x="-6" y="826" type="line"/>
      <point x="280" y="940" type="line"/>
      <point x="317" y="940" type="line"/>
      <point x="317" y="725" type="line"/>
      <point x="402" y="870"/>
      <point x="500" y="942"/>
      <point x="613" y="942" type="curve" smooth="yes"/>
      <point x="713" y="942"/>
      <point x="795" y="899"/>
      <point x="859" y="813" type="curve"/>
      <point x="924" y="728"/>
      <point x="956" y="621"/>
    </contour>
    <contour>
      <point x="796" y="398" type="curve" smooth="yes"/>
      <point x="796" y="538"/>
      <point x="770" y="645"/>
      <point x="718" y="720" type="curve" smooth="yes"/>
      <point x="671" y="787"/>
      <point x="609" y="820"/>
      <point x="532" y="820" type="curve" smooth="yes"/>
      <point x="497" y="820"/>
      <point x="461" y="806"/>
      <point x="426" y="777" type="curve" smooth="yes"/>
      <point x="407" y="761"/>
      <point x="370" y="724"/>
      <point x="317" y="666" type="curve"/>
      <point x="317" y="323" type="line" smooth="yes"/>
      <point x="317" y="253"/>
      <point x="320" y="204"/>
      <point x="327" y="177" type="curve" smooth="yes"/>
      <point x="337" y="138"/>
      <point x="359" y="105"/>
      <point x="392" y="78" type="curve" smooth="yes"/>
      <point x="430" y="47"/>
      <point x="477" y="32"/>
      <point x="532" y="32" type="curve" smooth="yes"/>
      <point x="611" y="32"/>
      <point x="674" y="65"/>
      <point x="723" y="131" type="curve" smooth="yes"/>
      <point x="772" y="197"/>
      <point x="796" y="286"/>
    </contour>
  </outline>
</glyph>
<glyph name="r" format="1">
  <advance width="701"/>
  <unicode hex="0072"/>
  <outline>
    <contour>
      <point x="697" y="831" type="curve" smooth="yes"/>
      <point x="697" y="783"/>
      <point x="656" y="739"/>
      <point x="607" y="739" type="curve" smooth="yes"/>
      <point x="582" y="739"/>
      <point x="556" y="751"/>
      <point x="527" y="774" type="curve" smooth="yes"/>
      <point x="498" y="798"/>
      <point x="478" y="810"/>
      <point x="465" y="810" type="curve" smooth="yes"/>
      <point x="431" y="810"/>
      <point x="386" y="758"/>
      <point x="331" y="654" type="curve"/>
      <point x="331" y="213" type="line" smooth="yes"/>
      <point x="331" y="152"/>
      <point x="342" y="108"/>
      <point x="363" y="82" type="curve" smooth="yes"/>
      <point x="388" y="52"/>
      <point x="431" y="37"/>
      <point x="493" y="37" type="curve"/>
      <point x="493" y="0" type="line"/>
      <point x="18" y="0" type="line"/>
      <point x="18" y="37" type="line"/>
      <point x="78" y="37"/>
      <point x="116" y="46"/>
      <point x="133" y="64" type="curve" smooth="yes"/>
      <point x="154" y="85"/>
      <point x="164" y="132"/>
      <point x="164" y="207" type="curve" smooth="yes"/>
      <point x="164" y="562" type="line" smooth="yes"/>
      <point x="164" y="696"/>
      <point x="154" y="775"/>
      <point x="134" y="798" type="curve"/>
      <point x="101" y="815"/>
      <point x="62" y="815"/>
      <point x="18" y="796" type="curve"/>
      <point x="8" y="831" type="line"/>
      <point x="292" y="942" type="line"/>
      <point x="331" y="942" type="line"/>
      <point x="331" y="737" type="line"/>
      <point x="407" y="874"/>
      <point x="486" y="942"/>
      <point x="567" y="942" type="curve" smooth="yes"/>
      <point x="642" y="942"/>
      <point x="697" y="896"/>
    </contour>
  </outline>
</glyph>
<glyph name="u" format="1">
  <advance width="1024"/>
  <unicode hex="0075"/>
  <outline>
    <contour>
      <point x="1013" y="120" type="curve"/>
      <point x="1026" y="85" type="line"/>
      <point x="749" y="-30" type="line"/>
      <point x="703" y="-30" type="line"/>
      <point x="703" y="165" type="line"/>
      <point x="630" y="88"/>
      <point x="570" y="35"/>
      <point x="523" y="7" type="curve" smooth="yes"/>
      <point x="482" y="-18"/>
      <point x="439" y="-30"/>
      <point x="392" y="-30" type="curve" smooth="yes"/>
      <point x="235" y="-30"/>
      <point x="156" y="89"/>
      <point x="156" y="327" type="curve" smooth="yes"/>
      <point x="156" y="737" type="line" smooth="yes"/>
      <point x="156" y="796"/>
      <point x="143" y="836"/>
      <point x="118" y="855" type="curve" smooth="yes"/>
      <point x="98" y="871"/>
      <point x="59" y="879"/>
      <point x="0" y="879" type="curve"/>
      <point x="0" y="916" type="line"/>
      <point x="323" y="916" type="line"/>
      <point x="323" y="303" type="line" smooth="yes"/>
      <point x="323" y="164"/>
      <point x="374" y="95"/>
      <point x="475" y="95" type="curve" smooth="yes"/>
      <point x="540" y="95"/>
      <point x="616" y="138"/>
      <point x="703" y="225" type="curve"/>
      <point x="703" y="745" type="line" smooth="yes"/>
      <point x="703" y="798"/>
      <point x="692" y="833"/>
      <point x="669" y="852" type="curve" smooth="yes"/>
      <point x="649" y="868"/>
      <point x="611" y="877"/>
      <point x="556" y="879" type="curve"/>
      <point x="556" y="916" type="line"/>
      <point x="871" y="916" type="line"/>
      <point x="871" y="242" type="line" smooth="yes"/>
      <point x="871" y="150"/>
      <point x="891" y="104"/>
      <point x="932" y="104" type="curve"/>
      <point x="961" y="105"/>
      <point x="988" y="110"/>
    </contour>
  </outline>
</glyph>
<glyph name="x" format="1">
  <advance width="1024"/>
  <unicode hex="0078"/>
  <outline>
    <contour>
      <point x="1001" y="37" type="curve"/>
      <point x="1001" y="0" type="line"/>
      <point x="567" y="0" type="line"/>
      <point x="567" y="37" type="line"/>
      <point x="627" y="37"/>
      <point x="657" y="56"/>
      <point x="657" y="95" type="curve" smooth="yes"/>
      <point x="657" y="107"/>
      <point x="654" y="117"/>
      <point x="648" y="126" type="curve" smooth="yes"/>
      <point x="459" y="406" type="line"/>
      <point x="260" y="140" type="line" smooth="yes"/>
      <point x="250" y="127"/>
      <point x="245" y="112"/>
      <point x="245" y="97" type="curve" smooth="yes"/>
      <point x="245" y="60"/>
      <point x="275" y="40"/>
      <point x="335" y="37" type="curve"/>
      <point x="335" y="0" type="line"/>
      <point x="35" y="0" type="line"/>
      <point x="35" y="37" type="line"/>
      <point x="62" y="39"/>
      <point x="87" y="51"/>
      <point x="111" y="73" type="curve" smooth="yes"/>
      <point x="135" y="95"/>
      <point x="173" y="140"/>
      <point x="225" y="209" type="curve" smooth="yes"/>
      <point x="418" y="465" type="line"/>
      <point x="244" y="717" type="line" smooth="yes"/>
      <point x="196" y="787"/>
      <point x="158" y="832"/>
      <point x="131" y="851" type="curve" smooth="yes"/>
      <point x="108" y="868"/>
      <point x="73" y="877"/>
      <point x="28" y="879" type="curve"/>
      <point x="28" y="916" type="line"/>
      <point x="459" y="916" type="line"/>
      <point x="459" y="879" type="line"/>
      <point x="408" y="882"/>
      <point x="382" y="865"/>
      <point x="382" y="829" type="curve" smooth="yes"/>
      <point x="382" y="820"/>
      <point x="384" y="813"/>
      <point x="388" y="806" type="curve" smooth="yes"/>
      <point x="518" y="601" type="line"/>
      <point x="654" y="798" type="line" smooth="yes"/>
      <point x="661" y="809"/>
      <point x="665" y="820"/>
      <point x="665" y="831" type="curve" smooth="yes"/>
      <point x="665" y="863"/>
      <point x="641" y="879"/>
      <point x="593" y="879" type="curve"/>
      <point x="593" y="916" type="line"/>
      <point x="902" y="916" type="line"/>
      <point x="902" y="879" type="line"/>
      <point x="862" y="877"/>
      <point x="827" y="864"/>
      <point x="797" y="839" type="curve"/>
      <point x="769" y="817"/>
      <point x="731" y="772"/>
      <point x="682" y="705" type="curve" smooth="yes"/>
      <point x="558" y="536" type="line"/>
      <point x="786" y="209" type="line" smooth="yes"/>
      <point x="826" y="152"/>
      <point x="866" y="104"/>
      <point x="906" y="63" type="curve" smooth="yes"/>
      <point x="921" y="48"/>
      <point x="952" y="40"/>
    </contour>
  </outline>
</glyph>
<glyph name="bar" format="1">
  <advance width="456"/>
  <unicode hex="007C"/>
  <outline>
    <contour>
      <point x="275" y="1582" type="line"/>
      <point x="275" y="-493" type="line"/>
      <point x="181" y="-493" type="line"/>
      <point x="181" y="1582" type="line"/>
    </contour>
  </outline>
</glyph>
<glyph name="braceright" format="1">
  <advance width="1089"/>
  <unicode hex="007D"/>
  <outline>
    <contour>
      <point x="839" y="574" type="curve"/>
      <point x="839" y="517" type="line"/>
      <point x="778" y="510"/>
      <point x="722" y="485"/>
      <point x="672" y="444" type="curve" smooth="yes"/>
      <point x="614" y="396"/>
      <point x="585" y="339"/>
      <point x="585" y="274" type="curve" smooth="yes"/>
      <point x="585" y="243"/>
      <point x="593" y="190"/>
      <point x="610" y="113" type="curve" smooth="yes"/>
      <point x="627" y="36"/>
      <point x="636" y="-23"/>
      <point x="636" y="-64" type="curve" smooth="yes"/>
      <point x="636" y="-174"/>
      <point x="597" y="-270"/>
      <point x="520" y="-351" type="curve" smooth="yes"/>
      <point x="443" y="-433"/>
      <point x="351" y="-480"/>
      <point x="243" y="-491" type="curve"/>
      <point x="243" y="-451" type="line"/>
      <point x="415" y="-408"/>
      <point x="501" y="-310"/>
      <point x="501" y="-158" type="curve" smooth="yes"/>
      <point x="501" y="-123"/>
      <point x="493" y="-73"/>
      <point x="477" y="-6" type="curve" smooth="yes"/>
      <point x="461" y="61"/>
      <point x="453" y="112"/>
      <point x="453" y="147" type="curve" smooth="yes"/>
      <point x="453" y="347"/>
      <point x="544" y="480"/>
      <point x="725" y="546" type="curve"/>
      <point x="544" y="612"/>
      <point x="453" y="743"/>
      <point x="453" y="940" type="curve" smooth="yes"/>
      <point x="453" y="976"/>
      <point x="461" y="1028"/>
      <point x="477" y="1095" type="curve" smooth="yes"/>
      <point x="493" y="1162"/>
      <point x="501" y="1214"/>
      <point x="501" y="1249" type="curve" smooth="yes"/>
      <point x="501" y="1402"/>
      <point x="415" y="1500"/>
      <point x="243" y="1543" type="curve"/>
      <point x="243" y="1582" type="line"/>
      <point x="348" y="1571"/>
      <point x="440" y="1526"/>
      <point x="517" y="1449" type="curve"/>
      <point x="596" y="1368"/>
      <point x="636" y="1275"/>
      <point x="636" y="1170" type="curve" smooth="yes"/>
      <point x="636" y="1127"/>
      <point x="627" y="1064"/>
      <point x="610" y="983" type="curve" smooth="yes"/>
      <point x="593" y="902"/>
      <point x="585" y="845"/>
      <point x="585" y="813" type="curve" smooth="yes"/>
      <point x="585" y="749"/>
      <point x="614" y="693"/>
      <point x="673" y="646" type="curve" smooth="yes"/>
      <point x="723" y="605"/>
      <point x="778" y="581"/>
    </contour>
  </outline>
</glyph>
<glyph name="logicalnot" format="1">
  <advance width="1222"/>
  <unicode hex="00AC"/>
  <outline>
    <contour>
      <point x="1143" y="827" type="line"/>
      <point x="1143" y="372" type="line"/>
      <point x="1024" y="372" type="line"/>
      <point x="1024" y="709" type="line"/>
      <point x="79" y="709" type="line"/>
      <point x="79" y="827" type="line"/>
    </contour>
  </outline>
</glyph>
<glyph name="paragraph" format="1">
  <advance width="928"/>
  <unicode hex="00B6"/>
  <outline>
    <contour>
      <point x="932" y="1355" type="line"/>
      <point x="932" y="1300" type="line"/>
      <point x="800" y="1300" type="line"/>
      <point x="800" y="-443" type="line"/>
      <point x="725" y="-443" type="line"/>
      <point x="725" y="1300" type="line"/>
      <point x="540" y="1300" type="line"/>
      <point x="540" y="-443" type="line"/>
      <point x="467" y="-443" type="line"/>
      <point x="467" y="603" type="line"/>
      <point x="146" y="611"/>
      <point x="-14" y="737"/>
      <point x="-14" y="981" type="curve" smooth="yes"/>
      <point x="-14" y="1114"/>
      <point x="34" y="1212"/>
      <point x="131" y="1277" type="curve" smooth="yes"/>
      <point x="210" y="1329"/>
      <point x="312" y="1355"/>
      <point x="437" y="1355" type="curve" smooth="yes"/>
    </contour>
  </outline>
</glyph>
<glyph name="uni1980" format="1">
  <advance width="1864"/>
  <unicode hex="1980"/>
  <outline>
    <contour>
      <point x="495" y="-20" type="curve" smooth="yes"/>
      <point x="348" y="-20"/>
      <point x="222" y="38"/>
      <point x="115" y="175" type="curve" smooth="yes"/>
      <point x="107" y="185"/>
      <point x="111" y="199"/>
      <point x="121" y="207" type="curve"/>
      <point x="250" y="331" type="line"/>
      <point x="260" y="339"/>
      <point x="273" y="334"/>
      <point x="280" y="325" type="curve" smooth="yes"/>
      <point x="351" y="238"/>
      <point x="424" y="210"/>
      <point x="495" y="210" type="curve" smooth="yes"/>
      <point x="612" y="210"/>
      <point x="715" y="299"/>
      <point x="715" y="471" type="curve" smooth="yes"/>
      <point x="715" y="640"/>
      <point x="617" y="740"/>
      <point x="485" y="740" type="curve" smooth="yes"/>
      <point x="424" y="740"/>
      <point x="341" y="712"/>
      <point x="280" y="635" type="curve" smooth="yes"/>
      <point x="272" y="625"/>
      <point x="260" y="621"/>
      <point x="250" y="629" type="curve" smooth="yes"/>
      <point x="111" y="743" type="line" smooth="yes"/>
      <point x="101" y="751"/>
      <point x="97" y="765"/>
      <point x="105" y="775" type="curve" smooth="yes"/>
      <point x="212" y="912"/>
      <point x="338" y="970"/>
      <point x="485" y="970" type="curve" smooth="yes"/>
      <point x="750" y="970"/>
      <point x="965" y="759"/>
      <point x="965" y="471" type="curve" smooth="yes"/>
      <point x="965" y="167"/>
      <point x="751" y="-20"/>
    </contour>
    <contour>
      <point x="1236" y="-20" type="curve" smooth="yes"/>
      <point x="1226" y="-20"/>
      <point x="1216" y="-12"/>
      <point x="1216" y="-3" type="curve" smooth="yes"/>
      <point x="1216" y="142" type="line" smooth="yes"/>
      <point x="1216" y="153"/>
      <point x="1226" y="160"/>
      <point x="1236" y="160" type="curve" smooth="yes"/>
      <point x="1496" y="160"/>
      <point x="1788" y="8"/>
      <point x="1788" y="-265" type="curve" smooth="yes"/>
      <point x="1788" y="-538"/>
      <point x="1570" y="-740"/>
      <point x="1263" y="-740" type="curve" smooth="yes"/>
      <point x="1035" y="-740"/>
      <point x="812" y="-574"/>
      <point x="762" y="-442" type="curve" smooth="yes"/>
      <point x="758" y="-432"/>
      <point x="766" y="-420"/>
      <point x="776" y="-416" type="curve" smooth="yes"/>
      <point x="878" y="-375" type="line" smooth="yes"/>
      <point x="886" y="-372"/>
      <point x="896" y="-381"/>
      <point x="903" y="-390" type="curve" smooth="yes"/>
      <point x="968" y="-480"/>
      <point x="1112" y="-550"/>
      <point x="1238" y="-550" type="curve" smooth="yes"/>
      <point x="1405" y="-550"/>
      <point x="1538" y="-435"/>
      <point x="1538" y="-265" type="curve" smooth="yes"/>
      <point x="1538" y="-108"/>
      <point x="1380" y="-20"/>
    </contour>
    <contour>
      <point x="943" y="581" type="curve" smooth="yes"/>
      <point x="935" y="572"/>
      <point x="923" y="567"/>
      <point x="913" y="575" type="curve"/>
      <point x="802" y="721" type="line"/>
      <point x="792" y="729"/>
      <point x="788" y="743"/>
      <point x="796" y="753" type="curve" smooth="yes"/>
      <point x="878" y="847"/>
      <point x="1053" y="970"/>
      <point x="1269" y="970" type="curve" smooth="yes"/>
      <point x="1566" y="970"/>
      <point x="1779" y="762"/>
      <point x="1779" y="480" type="curve" smooth="yes"/>
      <point x="1779" y="238"/>
      <point x="1591" y="-19"/>
      <point x="1236" y="-20" type="curve" smooth="yes"/>
      <point x="1226" y="-20"/>
      <point x="1216" y="-12"/>
      <point x="1216" y="-3" type="curve" smooth="yes"/>
      <point x="1216" y="142" type="line" smooth="yes"/>
      <point x="1216" y="153"/>
      <point x="1226" y="160"/>
      <point x="1236" y="160" type="curve" smooth="yes"/>
      <point x="1456" y="160"/>
      <point x="1529" y="350"/>
      <point x="1529" y="480" type="curve" smooth="yes"/>
      <point x="1529" y="650"/>
      <point x="1385" y="740"/>
      <point x="1269" y="740" type="curve" smooth="yes"/>
      <point x="1146" y="740"/>
      <point x="1021" y="668"/>
    </contour>
  </outline>
</glyph>
<glyph name="uni1984" format="1">
  <advance width="1735"/>
  <unicode hex="1984"/>
  <outline>
    <contour>
      <point x="530" y="105" type="curve" smooth="yes"/>
      <point x="706" y="105"/>
      <point x="762" y="258"/>
      <point x="795" y="475" type="curve" smooth="yes"/>
      <point x="831" y="709"/>
      <point x="904" y="970"/>
      <point x="1205" y="970" type="curve" smooth="yes"/>
      <point x="1462" y="970"/>
      <point x="1595" y="742"/>
      <point x="1595" y="480" type="curve" smooth="yes"/>
      <point x="1595" y="208"/>
      <point x="1505" y="-19"/>
      <point x="1260" y="-20" type="curve" smooth="yes"/>
      <point x="1228" y="-20"/>
      <point x="1191" y="-15"/>
      <point x="1160" y="-2" type="curve" smooth="yes"/>
      <point x="1150" y="2"/>
      <point x="1147" y="14"/>
      <point x="1152" y="23" type="curve" smooth="yes"/>
      <point x="1198" y="102" type="line" smooth="yes"/>
      <point x="1202" y="110"/>
      <point x="1214" y="110"/>
      <point x="1225" y="108" type="curve" smooth="yes"/>
      <point x="1234" y="106"/>
      <point x="1249" y="105"/>
      <point x="1260" y="105" type="curve" smooth="yes"/>
      <point x="1420" y="105"/>
      <point x="1470" y="280"/>
      <point x="1470" y="480" type="curve" smooth="yes"/>
      <point x="1470" y="680"/>
      <point x="1361" y="845"/>
      <point x="1205" y="845" type="curve" smooth="yes"/>
      <point x="1006" y="845"/>
      <point x="952" y="659"/>
      <point x="925" y="475" type="curve" smooth="yes"/>
      <point x="884" y="198"/>
      <point x="788" y="-20"/>
      <point x="530" y="-20" type="curve" smooth="yes"/>
      <point x="253" y="-20"/>
      <point x="120" y="168"/>
      <point x="120" y="470" type="curve" smooth="yes"/>
      <point x="120" y="692"/>
      <point x="203" y="920"/>
      <point x="415" y="970" type="curve" smooth="yes"/>
      <point x="428" y="973"/>
      <point x="436" y="973"/>
      <point x="440" y="965" type="curve" smooth="yes"/>
      <point x="485" y="885" type="line" smooth="yes"/>
      <point x="490" y="877"/>
      <point x="489" y="863"/>
      <point x="475" y="860" type="curve" smooth="yes"/>
      <point x="298" y="815"/>
      <point x="245" y="630"/>
      <point x="245" y="470" type="curve" smooth="yes"/>
      <point x="245" y="230"/>
      <point x="354" y="105"/>
    </contour>
    <contour>
      <point x="1209" y="-555" type="curve" smooth="yes"/>
      <point x="1199" y="-554"/>
      <point x="1190" y="-549"/>
      <point x="1190" y="-539" type="curve" smooth="yes"/>
      <point x="1190" y="-497" type="line" smooth="yes"/>
      <point x="1190" y="-489"/>
      <point x="1200" y="-477"/>
      <point x="1209" y="-480" type="curve" smooth="yes"/>
      <point x="1241" y="-490"/>
      <point x="1310" y="-487"/>
      <point x="1310" y="-430" type="curve" smooth="yes"/>
      <point x="1310" y="-398"/>
      <point x="1278" y="-375"/>
      <point x="1235" y="-375" type="curve" smooth="yes"/>
      <point x="1153" y="-375"/>
      <point x="1113" y="-487"/>
      <point x="991" y="-487" type="curve" smooth="yes"/>
      <point x="907" y="-487"/>
      <point x="840" y="-413"/>
      <point x="840" y="-343" type="curve" smooth="yes"/>
      <point x="840" y="-191"/>
      <point x="1010" y="-105"/>
      <point x="1213" y="-105" type="curve" smooth="yes"/>
      <point x="1417" y="-105"/>
      <point x="1595" y="-223"/>
      <point x="1595" y="-435" type="curve" smooth="yes"/>
      <point x="1595" y="-603"/>
      <point x="1428" y="-740"/>
      <point x="1170" y="-740" type="curve" smooth="yes"/>
      <point x="939" y="-740"/>
      <point x="752" y="-597"/>
      <point x="680" y="-445" type="curve" smooth="yes"/>
      <point x="675" y="-435"/>
      <point x="678" y="-427"/>
      <point x="684" y="-421" type="curve" smooth="yes"/>
      <point x="712" y="-389" type="line"/>
      <point x="720" y="-382"/>
      <point x="729" y="-382"/>
      <point x="733" y="-390" type="curve" smooth="yes"/>
      <point x="805" y="-525"/>
      <point x="941" y="-645"/>
      <point x="1170" y="-645" type="curve" smooth="yes"/>
      <point x="1389" y="-645"/>
      <point x="1500" y="-547"/>
      <point x="1500" y="-435" type="curve" smooth="yes"/>
      <point x="1500" y="-293"/>
      <point x="1381" y="-200"/>
      <point x="1213" y="-200" type="curve" smooth="yes"/>
      <point x="1051" y="-200"/>
      <point x="936" y="-256"/>
      <point x="936" y="-344" type="curve" smooth="yes"/>
      <point x="936" y="-373"/>
      <point x="963" y="-403"/>
      <point x="991" y="-403" type="curve" smooth="yes"/>
      <point x="1077" y="-403"/>
      <point x="1127" y="-290"/>
      <point x="1235" y="-290" type="curve" smooth="yes"/>
      <point x="1328" y="-290"/>
      <point x="1395" y="-348"/>
      <point x="1395" y="-430" type="curve" smooth="yes"/>
      <point x="1395" y="-537"/>
      <point x="1296" y="-565"/>
    </contour>
  </outline>
</glyph>
<glyph name="uni1986" format="1">
  <advance width="1240"/>
  <unicode hex="1986"/>
  <outline>
    <contour>
      <point x="665" y="1400" type="curve" smooth="yes"/>
      <point x="493" y="1400"/>
      <point x="395" y="1230"/>
      <point x="395" y="1090" type="curve" smooth="yes"/>
      <point x="395" y="984"/>
      <point x="406" y="886"/>
      <point x="454" y="757" type="curve"/>
      <point x="217" y="644" type="line"/>
      <point x="168" y="793"/>
      <point x="145" y="924"/>
      <point x="145" y="1090" type="curve" smooth="yes"/>
      <point x="145" y="1303"/>
      <point x="278" y="1570"/>
      <point x="665" y="1570" type="curve" smooth="yes"/>
      <point x="892" y="1570"/>
      <point x="1051" y="1404"/>
      <point x="1091" y="1282" type="curve" smooth="yes"/>
      <point x="1094" y="1272"/>
      <point x="1087" y="1260"/>
      <point x="1077" y="1256" type="curve"/>
      <point x="970" y="1225" type="line" smooth="yes"/>
      <point x="962" y="1222"/>
      <point x="949" y="1230"/>
      <point x="945" y="1240" type="curve" smooth="yes"/>
      <point x="900" y="1340"/>
      <point x="786" y="1400"/>
    </contour>
    <contour>
      <point x="630" y="970" type="curve" smooth="yes"/>
      <point x="944" y="970"/>
      <point x="1170" y="766"/>
      <point x="1170" y="450" type="curve" smooth="yes"/>
      <point x="1170" y="219"/>
      <point x="1039" y="61"/>
      <point x="860" y="-20" type="curve" smooth="yes"/>
      <point x="850" y="-24"/>
      <point x="839" y="-23"/>
      <point x="834" y="-14" type="curve" smooth="yes"/>
      <point x="746" y="164" type="line" smooth="yes"/>
      <point x="741" y="172"/>
      <point x="745" y="188"/>
      <point x="755" y="190" type="curve" smooth="yes"/>
      <point x="850" y="208"/>
      <point x="920" y="337"/>
      <point x="920" y="450" type="curve" smooth="yes"/>
      <point x="920" y="627"/>
      <point x="792" y="740"/>
      <point x="630" y="740" type="curve" smooth="yes"/>
      <point x="481" y="740"/>
      <point x="340" y="622"/>
      <point x="340" y="440" type="curve" smooth="yes"/>
      <point x="340" y="339"/>
      <point x="398" y="221"/>
      <point x="485" y="180" type="curve" smooth="yes"/>
      <point x="497" y="174"/>
      <point x="499" y="160"/>
      <point x="491" y="150" type="curve"/>
      <point x="397" y="-14" type="line"/>
      <point x="389" y="-24"/>
      <point x="375" y="-28"/>
      <point x="365" y="-20" type="curve" smooth="yes"/>
      <point x="218" y="87"/>
      <point x="90" y="233"/>
      <point x="90" y="440" type="curve" smooth="yes"/>
      <point x="90" y="755"/>
      <point x="322" y="970"/>
    </contour>
  </outline>
</glyph>
<glyph name="uni1987" format="1">
  <advance width="1265"/>
  <unicode hex="1987"/>
  <outline>
    <contour>
      <point x="610" y="-635" type="curve" smooth="yes"/>
      <point x="876" y="-635"/>
      <point x="1010" y="-279"/>
      <point x="1010" y="145" type="curve" smooth="yes"/>
      <point x="1010" y="572"/>
      <point x="860" y="845"/>
      <point x="615" y="845" type="curve" smooth="yes"/>
      <point x="375" y="845"/>
      <point x="255" y="608"/>
      <point x="255" y="405" type="curve" smooth="yes"/>
      <point x="255" y="236"/>
      <point x="277" y="105"/>
      <point x="365" y="105" type="curve" smooth="yes"/>
      <point x="405" y="105"/>
      <point x="447" y="145"/>
      <point x="493" y="186" type="curve" smooth="yes"/>
      <point x="544" y="232"/>
      <point x="600" y="280"/>
      <point x="665" y="280" type="curve" smooth="yes"/>
      <point x="778" y="280"/>
      <point x="855" y="202"/>
      <point x="855" y="100" type="curve" smooth="yes"/>
      <point x="855" y="12"/>
      <point x="782" y="-51"/>
      <point x="741" y="-74" type="curve" smooth="yes"/>
      <point x="732" y="-79"/>
      <point x="723" y="-75"/>
      <point x="717" y="-66" type="curve" smooth="yes"/>
      <point x="670" y="12" type="line" smooth="yes"/>
      <point x="664" y="21"/>
      <point x="671" y="30"/>
      <point x="679" y="35" type="curve" smooth="yes"/>
      <point x="696" y="45"/>
      <point x="730" y="60"/>
      <point x="730" y="100" type="curve" smooth="yes"/>
      <point x="730" y="132"/>
      <point x="698" y="155"/>
      <point x="665" y="155" type="curve" smooth="yes"/>
      <point x="637" y="155"/>
      <point x="603" y="117"/>
      <point x="559" y="77" type="curve" smooth="yes"/>
      <point x="508" y="30"/>
      <point x="445" y="-20"/>
      <point x="365" y="-20" type="curve" smooth="yes"/>
      <point x="193" y="-20"/>
      <point x="130" y="156"/>
      <point x="130" y="405" type="curve" smooth="yes"/>
      <point x="130" y="671"/>
      <point x="300" y="970"/>
      <point x="615" y="970" type="curve" smooth="yes"/>
      <point x="925" y="970"/>
      <point x="1135" y="671"/>
      <point x="1135" y="145" type="curve" smooth="yes"/>
      <point x="1135" y="-380"/>
      <point x="943" y="-740"/>
      <point x="610" y="-740" type="curve" smooth="yes"/>
      <point x="373" y="-740"/>
      <point x="214" y="-584"/>
      <point x="174" y="-412" type="curve" smooth="yes"/>
      <point x="172" y="-402"/>
      <point x="178" y="-390"/>
      <point x="188" y="-386" type="curve" smooth="yes"/>
      <point x="220" y="-375" type="line" smooth="yes"/>
      <point x="228" y="-372"/>
      <point x="242" y="-379"/>
      <point x="245" y="-390" type="curve" smooth="yes"/>
      <point x="290" y="-540"/>
      <point x="404" y="-635"/>
    </contour>
  </outline>
</glyph>
<glyph name="uni1988" format="1">
  <advance width="1145"/>
  <unicode hex="1988"/>
  <outline>
    <contour>
      <point x="482" y="514" type="curve"/>
      <point x="482" y="429" type="line"/>
      <point x="387" y="429"/>
      <point x="255" y="364"/>
      <point x="255" y="290" type="curve" smooth="yes"/>
      <point x="255" y="158"/>
      <point x="370" y="105"/>
      <point x="545" y="105" type="curve" smooth="yes"/>
      <point x="747" y="105"/>
      <point x="910" y="277"/>
      <point x="910" y="480" type="curve" smooth="yes"/>
      <point x="910" y="683"/>
      <point x="747" y="845"/>
      <point x="545" y="845" type="curve" smooth="yes"/>
      <point x="370" y="845"/>
      <point x="255" y="792"/>
      <point x="255" y="660" type="curve" smooth="yes"/>
      <point x="255" y="586"/>
      <point x="387" y="512"/>
      <point x="482" y="513" type="curve" smooth="yes"/>
      <point x="492" y="513"/>
      <point x="502" y="506"/>
      <point x="502" y="495" type="curve" smooth="yes"/>
      <point x="502" y="445" type="line" smooth="yes"/>
      <point x="502" y="436"/>
      <point x="492" y="428"/>
      <point x="482" y="428" type="curve" smooth="yes"/>
      <point x="347" y="428"/>
      <point x="130" y="486"/>
      <point x="130" y="670" type="curve" smooth="yes"/>
      <point x="130" y="868"/>
      <point x="300" y="970"/>
      <point x="545" y="970" type="curve" smooth="yes"/>
      <point x="814" y="970"/>
      <point x="1035" y="763"/>
      <point x="1035" y="475" type="curve" smooth="yes"/>
      <point x="1035" y="187"/>
      <point x="814" y="-20"/>
      <point x="545" y="-20" type="curve" smooth="yes"/>
      <point x="300" y="-20"/>
      <point x="130" y="82"/>
      <point x="130" y="280" type="curve" smooth="yes"/>
      <point x="130" y="444"/>
      <point x="348" y="514"/>
    </contour>
  </outline>
</glyph>
<glyph name="uni1989" format="1">
  <advance width="1821"/>
  <unicode hex="1989"/>
  <outline>
    <contour>
      <point x="1491" y="470" type="curve" smooth="yes"/>
      <point x="1491" y="600"/>
      <point x="1416" y="740"/>
      <point x="1256" y="740" type="curve" smooth="yes"/>
      <point x="1216" y="740"/>
      <point x="1167" y="730"/>
      <point x="1141" y="715" type="curve" smooth="yes"/>
      <point x="1132" y="710"/>
      <point x="1118" y="713"/>
      <point x="1114" y="721" type="curve" smooth="yes"/>
      <point x="1018" y="885" type="line" smooth="yes"/>
      <point x="1013" y="894"/>
      <point x="1018" y="904"/>
      <point x="1026" y="910" type="curve" smooth="yes"/>
      <point x="1087" y="959"/>
      <point x="1199" y="970"/>
      <point x="1256" y="970" type="curve" smooth="yes"/>
      <point x="1551" y="969"/>
      <point x="1741" y="712"/>
      <point x="1741" y="470" type="curve" smooth="yes"/>
      <point x="1741" y="188"/>
      <point x="1543" y="-20"/>
      <point x="1266" y="-20" type="curve" smooth="yes"/>
      <point x="1019" y="-20"/>
      <point x="887" y="144"/>
      <point x="816" y="308" type="curve"/>
      <point x="925" y="616" type="line"/>
      <point x="930" y="429"/>
      <point x="1079" y="210"/>
      <point x="1266" y="210" type="curve" smooth="yes"/>
      <point x="1412" y="210"/>
      <point x="1491" y="310"/>
    </contour>
    <contour>
      <point x="495" y="-20" type="curve" smooth="yes"/>
      <point x="348" y="-20"/>
      <point x="222" y="38"/>
      <point x="115" y="175" type="curve" smooth="yes"/>
      <point x="107" y="185"/>
      <point x="112" y="198"/>
      <point x="121" y="207" type="curve" smooth="yes"/>
      <point x="250" y="331" type="line" smooth="yes"/>
      <point x="259" y="340"/>
      <point x="273" y="334"/>
      <point x="280" y="325" type="curve" smooth="yes"/>
      <point x="351" y="238"/>
      <point x="424" y="210"/>
      <point x="495" y="210" type="curve" smooth="yes"/>
      <point x="612" y="210"/>
      <point x="715" y="299"/>
      <point x="715" y="471" type="curve" smooth="yes"/>
      <point x="715" y="640"/>
      <point x="617" y="740"/>
      <point x="485" y="740" type="curve" smooth="yes"/>
      <point x="424" y="740"/>
      <point x="341" y="712"/>
      <point x="280" y="635" type="curve" smooth="yes"/>
      <point x="272" y="625"/>
      <point x="260" y="621"/>
      <point x="250" y="629" type="curve" smooth="yes"/>
      <point x="111" y="743" type="line" smooth="yes"/>
      <point x="101" y="751"/>
      <point x="97" y="765"/>
      <point x="105" y="775" type="curve" smooth="yes"/>
      <point x="212" y="912"/>
      <point x="338" y="970"/>
      <point x="485" y="970" type="curve" smooth="yes"/>
      <point x="750" y="970"/>
      <point x="965" y="759"/>
      <point x="965" y="471" type="curve" smooth="yes"/>
      <point x="965" y="167"/>
      <point x="751" y="-20"/>
    </contour>
  </outline>
</glyph>
<glyph name="uni198A" format="1">
  <advance width="1447"/>
  <unicode hex="198A"/>
  <outline>
    <contour>
      <point x="507" y="408" type="curve" smooth="yes"/>
      <point x="326" y="408"/>
      <point x="5" y="499"/>
      <point x="5" y="690" type="curve" smooth="yes"/>
      <point x="5" y="875"/>
      <point x="153" y="970"/>
      <point x="430" y="970" type="curve" smooth="yes"/>
      <point x="521" y="970"/>
      <point x="599" y="948"/>
      <point x="630" y="925" type="curve" smooth="yes"/>
      <point x="638" y="919"/>
      <point x="643" y="910"/>
      <point x="638" y="901" type="curve"/>
      <point x="592" y="742" type="line"/>
      <point x="587" y="734"/>
      <point x="575" y="730"/>
      <point x="565" y="735" type="curve" smooth="yes"/>
      <point x="548" y="744"/>
      <point x="500" y="760"/>
      <point x="430" y="760" type="curve" smooth="yes"/>
      <point x="331" y="760"/>
      <point x="255" y="724"/>
      <point x="255" y="670" type="curve" smooth="yes"/>
      <point x="255" y="603"/>
      <point x="331" y="553"/>
      <point x="507" y="553" type="curve" smooth="yes"/>
      <point x="517" y="553"/>
      <point x="527" y="546"/>
      <point x="527" y="535" type="curve" smooth="yes"/>
      <point x="527" y="425" type="line" smooth="yes"/>
      <point x="527" y="416"/>
      <point x="517" y="408"/>
    </contour>
    <contour>
      <point x="525" y="190" type="curve" smooth="yes"/>
      <point x="812" y="192"/>
      <point x="868" y="485"/>
      <point x="829" y="830" type="curve" smooth="yes"/>
      <point x="775" y="1310"/>
      <point x="912" y="1570"/>
      <point x="1189" y="1570" type="curve" smooth="yes"/>
      <point x="1436" y="1570"/>
      <point x="1539" y="1330"/>
      <point x="1489" y="1080" type="curve" smooth="yes"/>
      <point x="1487" y="1070"/>
      <point x="1481" y="1060"/>
      <point x="1472" y="1060" type="curve" smooth="yes"/>
      <point x="1357" y="1061" type="line" smooth="yes"/>
      <point x="1346" y="1061"/>
      <point x="1339" y="1070"/>
      <point x="1339" y="1080" type="curve" smooth="yes"/>
      <point x="1339" y="1269"/>
      <point x="1263" y="1350"/>
      <point x="1189" y="1350" type="curve" smooth="yes"/>
      <point x="1123" y="1350"/>
      <point x="1021" y="1243"/>
      <point x="1079" y="830" type="curve" smooth="yes"/>
      <point x="1141" y="386"/>
      <point x="985" y="-20"/>
      <point x="545" y="-20" type="curve" smooth="yes"/>
      <point x="180" y="-20"/>
      <point x="5" y="72"/>
      <point x="5" y="270" type="curve" smooth="yes"/>
      <point x="5" y="432"/>
      <point x="259" y="544"/>
      <point x="395" y="544" type="curve" smooth="yes"/>
      <point x="460" y="544" type="line" smooth="yes"/>
      <point x="483" y="544"/>
      <point x="505" y="472"/>
      <point x="505" y="450" type="curve" smooth="yes"/>
      <point x="505" y="428"/>
      <point x="482" y="410"/>
      <point x="460" y="410" type="curve" smooth="yes"/>
      <point x="325" y="411"/>
      <point x="255" y="354"/>
      <point x="255" y="290" type="curve" smooth="yes"/>
      <point x="255" y="222"/>
      <point x="360" y="189"/>
    </contour>
  </outline>
</glyph>
<glyph name="uni198B" format="1">
  <advance width="1275"/>
  <unicode hex="198B"/>
  <outline>
    <contour>
      <point x="766" y="-20" type="curve" smooth="yes"/>
      <point x="756" y="-20"/>
      <point x="746" y="-12"/>
      <point x="746" y="-3" type="curve" smooth="yes"/>
      <point x="746" y="142" type="line" smooth="yes"/>
      <point x="746" y="153"/>
      <point x="756" y="160"/>
      <point x="766" y="160" type="curve" smooth="yes"/>
      <point x="966" y="160"/>
      <point x="1208" y="8"/>
      <point x="1208" y="-265" type="curve" smooth="yes"/>
      <point x="1208" y="-538"/>
      <point x="990" y="-740"/>
      <point x="683" y="-740" type="curve" smooth="yes"/>
      <point x="455" y="-740"/>
      <point x="232" y="-574"/>
      <point x="182" y="-442" type="curve" smooth="yes"/>
      <point x="178" y="-432"/>
      <point x="186" y="-420"/>
      <point x="196" y="-416" type="curve" smooth="yes"/>
      <point x="298" y="-375" type="line" smooth="yes"/>
      <point x="306" y="-372"/>
      <point x="316" y="-381"/>
      <point x="323" y="-390" type="curve" smooth="yes"/>
      <point x="388" y="-480"/>
      <point x="532" y="-550"/>
      <point x="658" y="-550" type="curve" smooth="yes"/>
      <point x="825" y="-550"/>
      <point x="958" y="-435"/>
      <point x="958" y="-265" type="curve" smooth="yes"/>
      <point x="958" y="-108"/>
      <point x="850" y="-20"/>
    </contour>
    <contour>
      <point x="630" y="970" type="curve" smooth="yes"/>
      <point x="944" y="970"/>
      <point x="1170" y="766"/>
      <point x="1170" y="450" type="curve" smooth="yes"/>
      <point x="1170" y="219"/>
      <point x="1039" y="61"/>
      <point x="860" y="-20" type="curve" smooth="yes"/>
      <point x="850" y="-24"/>
      <point x="839" y="-23"/>
      <point x="834" y="-14" type="curve" smooth="yes"/>
      <point x="757" y="134" type="line" smooth="yes"/>
      <point x="752" y="142"/>
      <point x="756" y="158"/>
      <point x="766" y="160" type="curve" smooth="yes"/>
      <point x="861" y="178"/>
      <point x="920" y="337"/>
      <point x="920" y="450" type="curve" smooth="yes"/>
      <point x="920" y="627"/>
      <point x="792" y="740"/>
      <point x="630" y="740" type="curve" smooth="yes"/>
      <point x="481" y="740"/>
      <point x="340" y="622"/>
      <point x="340" y="440" type="curve" smooth="yes"/>
      <point x="340" y="339"/>
      <point x="398" y="221"/>
      <point x="485" y="180" type="curve" smooth="yes"/>
      <point x="497" y="174"/>
      <point x="499" y="160"/>
      <point x="491" y="150" type="curve"/>
      <point x="397" y="-14" type="line"/>
      <point x="389" y="-24"/>
      <point x="375" y="-28"/>
      <point x="365" y="-20" type="curve" smooth="yes"/>
      <point x="218" y="87"/>
      <point x="90" y="233"/>
      <point x="90" y="440" type="curve" smooth="yes"/>
      <point x="90" y="755"/>
      <point x="322" y="970"/>
    </contour>
  </outline>
</glyph>
<glyph name="uni198E" format="1">
  <advance width="1811"/>
  <unicode hex="198E"/>
  <outline>
    <contour>
      <point x="505" y="970" type="curve" smooth="yes"/>
      <point x="772" y="970"/>
      <point x="975" y="753"/>
      <point x="975" y="470" type="curve" smooth="yes"/>
      <point x="975" y="207"/>
      <point x="782" y="-20"/>
      <point x="505" y="-20" type="curve" smooth="yes"/>
      <point x="218" y="-20"/>
      <point x="50" y="208"/>
      <point x="50" y="470" type="curve" smooth="yes"/>
      <point x="50" y="742"/>
      <point x="228" y="970"/>
    </contour>
    <contour>
      <point x="505" y="740" type="curve" smooth="yes"/>
      <point x="369" y="740"/>
      <point x="300" y="611"/>
      <point x="300" y="470" type="curve" smooth="yes"/>
      <point x="300" y="340"/>
      <point x="369" y="210"/>
      <point x="505" y="210" type="curve" smooth="yes"/>
      <point x="642" y="210"/>
      <point x="725" y="337"/>
      <point x="725" y="470" type="curve" smooth="yes"/>
      <point x="725" y="608"/>
      <point x="642" y="740"/>
    </contour>
    <contour>
      <point x="1236" y="740" type="curve" smooth="yes"/>
      <point x="1067" y="740"/>
      <point x="951" y="655"/>
      <point x="891" y="541" type="curve"/>
      <point x="791" y="755" type="line"/>
      <point x="873" y="864"/>
      <point x="1039" y="970"/>
      <point x="1236" y="970" type="curve" smooth="yes"/>
      <point x="1533" y="970"/>
      <point x="1711" y="762"/>
      <point x="1711" y="480" type="curve" smooth="yes"/>
      <point x="1711" y="238"/>
      <point x="1571" y="-20"/>
      <point x="1276" y="-20" type="curve" smooth="yes"/>
      <point x="1199" y="-20"/>
      <point x="1082" y="6"/>
      <point x="1031" y="35" type="curve" smooth="yes"/>
      <point x="1022" y="40"/>
      <point x="1018" y="51"/>
      <point x="1023" y="60" type="curve" smooth="yes"/>
      <point x="1114" y="229" type="line" smooth="yes"/>
      <point x="1118" y="237"/>
      <point x="1133" y="239"/>
      <point x="1141" y="235" type="curve" smooth="yes"/>
      <point x="1177" y="215"/>
      <point x="1236" y="210"/>
      <point x="1276" y="210" type="curve" smooth="yes"/>
      <point x="1386" y="210"/>
      <point x="1461" y="330"/>
      <point x="1461" y="480" type="curve" smooth="yes"/>
      <point x="1461" y="620"/>
      <point x="1372" y="740"/>
    </contour>
  </outline>
</glyph>
<glyph name="uni1990" format="1">
  <advance width="2022"/>
  <unicode hex="1990"/>
  <outline>
    <contour>
      <point x="824" y="-349" type="curve" smooth="yes"/>
      <point x="824" y="-341"/>
      <point x="831" y="-333"/>
      <point x="842" y="-333" type="curve" smooth="yes"/>
      <point x="947" y="-333" type="line" smooth="yes"/>
      <point x="956" y="-333"/>
      <point x="964" y="-341"/>
      <point x="965" y="-350" type="curve" smooth="yes"/>
      <point x="975" y="-441"/>
      <point x="1053" y="-557"/>
      <point x="1247" y="-555" type="curve" smooth="yes"/>
      <point x="1361" y="-554"/>
      <point x="1455" y="-491"/>
      <point x="1455" y="-410" type="curve" smooth="yes"/>
      <point x="1455" y="-316"/>
      <point x="1397" y="-265"/>
      <point x="1294" y="-265" type="curve" smooth="yes"/>
      <point x="1284" y="-265"/>
      <point x="1275" y="-258"/>
      <point x="1275" y="-247" type="curve" smooth="yes"/>
      <point x="1275" y="50" type="line"/>
      <point x="1445" y="50" type="line"/>
      <point x="1445" y="-84" type="line" smooth="yes"/>
      <point x="1445" y="-93"/>
      <point x="1455" y="-99"/>
      <point x="1465" y="-101" type="curve" smooth="yes"/>
      <point x="1596" y="-131"/>
      <point x="1675" y="-242"/>
      <point x="1675" y="-395" type="curve" smooth="yes"/>
      <point x="1675" y="-617"/>
      <point x="1462" y="-740"/>
      <point x="1247" y="-740" type="curve" smooth="yes"/>
      <point x="1018" y="-740"/>
      <point x="824" y="-594"/>
    </contour>
    <contour>
      <point x="580" y="210" type="curve" smooth="yes"/>
      <point x="686" y="210"/>
      <point x="752" y="313"/>
      <point x="805" y="475" type="curve" smooth="yes"/>
      <point x="881" y="709"/>
      <point x="974" y="970"/>
      <point x="1295" y="970" type="curve" smooth="yes"/>
      <point x="1562" y="970"/>
      <point x="1730" y="772"/>
      <point x="1730" y="480" type="curve" smooth="yes"/>
      <point x="1730" y="138"/>
      <point x="1555" y="-19"/>
      <point x="1310" y="-20" type="curve" smooth="yes"/>
      <point x="1278" y="-20"/>
      <point x="1191" y="-15"/>
      <point x="1160" y="-2" type="curve" smooth="yes"/>
      <point x="1150" y="2"/>
      <point x="1147" y="14"/>
      <point x="1152" y="23" type="curve" smooth="yes"/>
      <point x="1248" y="207" type="line" smooth="yes"/>
      <point x="1252" y="215"/>
      <point x="1264" y="215"/>
      <point x="1275" y="213" type="curve" smooth="yes"/>
      <point x="1284" y="211"/>
      <point x="1299" y="210"/>
      <point x="1310" y="210" type="curve" smooth="yes"/>
      <point x="1420" y="210"/>
      <point x="1480" y="330"/>
      <point x="1480" y="480" type="curve" smooth="yes"/>
      <point x="1480" y="640"/>
      <point x="1411" y="740"/>
      <point x="1295" y="740" type="curve" smooth="yes"/>
      <point x="1166" y="740"/>
      <point x="1095" y="606"/>
      <point x="1055" y="475" type="curve" smooth="yes"/>
      <point x="970" y="200"/>
      <point x="858" y="-20"/>
      <point x="580" y="-20" type="curve" smooth="yes"/>
      <point x="303" y="-20"/>
      <point x="125" y="168"/>
      <point x="125" y="470" type="curve" smooth="yes"/>
      <point x="125" y="742"/>
      <point x="243" y="920"/>
      <point x="455" y="970" type="curve" smooth="yes"/>
      <point x="468" y="973"/>
      <point x="476" y="973"/>
      <point x="480" y="965" type="curve" smooth="yes"/>
      <point x="575" y="770" type="line" smooth="yes"/>
      <point x="580" y="762"/>
      <point x="579" y="749"/>
      <point x="565" y="745" type="curve" smooth="yes"/>
      <point x="418" y="700"/>
      <point x="375" y="580"/>
      <point x="375" y="470" type="curve" smooth="yes"/>
      <point x="375" y="310"/>
      <point x="444" y="210"/>
    </contour>
  </outline>
</glyph>
<glyph name="uni1991" format="1">
  <advance width="1210"/>
  <unicode hex="1991"/>
  <outline>
    <contour>
      <point x="718" y="468" type="curve" smooth="yes"/>
      <point x="708" y="468"/>
      <point x="698" y="476"/>
      <point x="698" y="485" type="curve" smooth="yes"/>
      <point x="698" y="535" type="line" smooth="yes"/>
      <point x="698" y="546"/>
      <point x="708" y="553"/>
      <point x="718" y="553" type="curve" smooth="yes"/>
      <point x="874" y="553"/>
      <point x="950" y="623"/>
      <point x="950" y="710" type="curve" smooth="yes"/>
      <point x="950" y="784"/>
      <point x="874" y="845"/>
      <point x="795" y="845" type="curve" smooth="yes"/>
      <point x="725" y="845"/>
      <point x="677" y="829"/>
      <point x="660" y="820" type="curve" smooth="yes"/>
      <point x="650" y="815"/>
      <point x="638" y="819"/>
      <point x="633" y="827" type="curve" smooth="yes"/>
      <point x="587" y="901" type="line" smooth="yes"/>
      <point x="582" y="910"/>
      <point x="587" y="919"/>
      <point x="595" y="925" type="curve" smooth="yes"/>
      <point x="626" y="948"/>
      <point x="704" y="970"/>
      <point x="795" y="970" type="curve" smooth="yes"/>
      <point x="942" y="970"/>
      <point x="1075" y="845"/>
      <point x="1075" y="710" type="curve" smooth="yes"/>
      <point x="1075" y="529"/>
      <point x="879" y="468"/>
    </contour>
    <contour>
      <point x="625" y="1570" type="curve" smooth="yes"/>
      <point x="852" y="1570"/>
      <point x="991" y="1404"/>
      <point x="1031" y="1282" type="curve" smooth="yes"/>
      <point x="1034" y="1272"/>
      <point x="1027" y="1260"/>
      <point x="1017" y="1256" type="curve" smooth="yes"/>
      <point x="985" y="1245" type="line" smooth="yes"/>
      <point x="977" y="1242"/>
      <point x="964" y="1250"/>
      <point x="960" y="1260" type="curve" smooth="yes"/>
      <point x="915" y="1360"/>
      <point x="821" y="1475"/>
      <point x="625" y="1475" type="curve" smooth="yes"/>
      <point x="369" y="1475"/>
      <point x="265" y="1164"/>
      <point x="265" y="770" type="curve" smooth="yes"/>
      <point x="265" y="333"/>
      <point x="345" y="105"/>
      <point x="660" y="105" type="curve" smooth="yes"/>
      <point x="815" y="105"/>
      <point x="955" y="178"/>
      <point x="955" y="310" type="curve" smooth="yes"/>
      <point x="955" y="384"/>
      <point x="864" y="468"/>
      <point x="718" y="468" type="curve" smooth="yes"/>
      <point x="708" y="468"/>
      <point x="698" y="476"/>
      <point x="698" y="485" type="curve" smooth="yes"/>
      <point x="698" y="535" type="line" smooth="yes"/>
      <point x="698" y="546"/>
      <point x="708" y="553"/>
      <point x="718" y="553" type="curve" smooth="yes"/>
      <point x="862" y="553"/>
      <point x="1080" y="476"/>
      <point x="1080" y="300" type="curve" smooth="yes"/>
      <point x="1080" y="102"/>
      <point x="885" y="-20"/>
      <point x="660" y="-20" type="curve" smooth="yes"/>
      <point x="260" y="-20"/>
      <point x="140" y="274"/>
      <point x="140" y="770" type="curve" smooth="yes"/>
      <point x="140" y="1265"/>
      <point x="302" y="1570"/>
    </contour>
  </outline>
</glyph>
<glyph name="uni1992" format="1">
  <advance width="1290"/>
  <unicode hex="1992"/>
  <outline>
    <contour>
      <point x="606" y="332" type="curve"/>
      <point x="691" y="332" type="line"/>
      <point x="691" y="237"/>
      <point x="746" y="105"/>
      <point x="850" y="105" type="curve" smooth="yes"/>
      <point x="982" y="105"/>
      <point x="1055" y="220"/>
      <point x="1055" y="395" type="curve" smooth="yes"/>
      <point x="1055" y="657"/>
      <point x="883" y="845"/>
      <point x="640" y="845" type="curve" smooth="yes"/>
      <point x="397" y="845"/>
      <point x="235" y="657"/>
      <point x="235" y="395" type="curve" smooth="yes"/>
      <point x="235" y="220"/>
      <point x="308" y="105"/>
      <point x="440" y="105" type="curve" smooth="yes"/>
      <point x="544" y="105"/>
      <point x="608" y="237"/>
      <point x="607" y="332" type="curve" smooth="yes"/>
      <point x="607" y="342"/>
      <point x="614" y="352"/>
      <point x="625" y="352" type="curve" smooth="yes"/>
      <point x="675" y="352" type="line" smooth="yes"/>
      <point x="684" y="352"/>
      <point x="692" y="342"/>
      <point x="692" y="332" type="curve" smooth="yes"/>
      <point x="692" y="197"/>
      <point x="644" y="-20"/>
      <point x="430" y="-20" type="curve" smooth="yes"/>
      <point x="232" y="-20"/>
      <point x="110" y="150"/>
      <point x="110" y="395" type="curve" smooth="yes"/>
      <point x="110" y="723"/>
      <point x="317" y="970"/>
      <point x="645" y="970" type="curve" smooth="yes"/>
      <point x="973" y="970"/>
      <point x="1180" y="724"/>
      <point x="1180" y="395" type="curve" smooth="yes"/>
      <point x="1180" y="150"/>
      <point x="1058" y="-20"/>
      <point x="860" y="-20" type="curve" smooth="yes"/>
      <point x="666" y="-20"/>
      <point x="606" y="198"/>
    </contour>
  </outline>
</glyph>
<glyph name="uni1993" format="1">
  <advance width="1238"/>
  <unicode hex="1993"/>
  <outline>
    <contour>
      <point x="617" y="-740" type="curve" smooth="yes"/>
      <point x="400" y="-740"/>
      <point x="141" y="-584"/>
      <point x="101" y="-372" type="curve" smooth="yes"/>
      <point x="99" y="-362"/>
      <point x="105" y="-350"/>
      <point x="115" y="-346" type="curve" smooth="yes"/>
      <point x="222" y="-305" type="line" smooth="yes"/>
      <point x="230" y="-302"/>
      <point x="243" y="-309"/>
      <point x="247" y="-320" type="curve" smooth="yes"/>
      <point x="302" y="-470"/>
      <point x="491" y="-540"/>
      <point x="617" y="-540" type="curve" smooth="yes"/>
      <point x="754" y="-540"/>
      <point x="907" y="-450"/>
      <point x="907" y="-270" type="curve" smooth="yes"/>
      <point x="907" y="-129"/>
      <point x="783" y="25"/>
      <point x="567" y="25" type="curve" smooth="yes"/>
      <point x="400" y="25"/>
      <point x="268" y="-28"/>
      <point x="189" y="-85" type="curve" smooth="yes"/>
      <point x="170" y="-99"/>
      <point x="132" y="-86"/>
      <point x="132" y="-60" type="curve" smooth="yes"/>
      <point x="132" y="335" type="line" smooth="yes"/>
      <point x="132" y="802"/>
      <point x="373" y="970"/>
      <point x="657" y="970" type="curve" smooth="yes"/>
      <point x="975" y="970"/>
      <point x="1123" y="762"/>
      <point x="1157" y="535" type="curve" smooth="yes"/>
      <point x="1159" y="523"/>
      <point x="1153" y="515"/>
      <point x="1143" y="515" type="curve" smooth="yes"/>
      <point x="925" y="515" type="line" smooth="yes"/>
      <point x="913" y="515"/>
      <point x="910" y="522"/>
      <point x="907" y="535" type="curve" smooth="yes"/>
      <point x="883" y="657"/>
      <point x="785" y="740"/>
      <point x="657" y="740" type="curve" smooth="yes"/>
      <point x="465" y="740"/>
      <point x="382" y="585"/>
      <point x="382" y="335" type="curve" smooth="yes"/>
      <point x="382" y="258" type="line" smooth="yes"/>
      <point x="382" y="247"/>
      <point x="390" y="236"/>
      <point x="401" y="240" type="curve" smooth="yes"/>
      <point x="440" y="253"/>
      <point x="543" y="255"/>
      <point x="627" y="255" type="curve" smooth="yes"/>
      <point x="904" y="255"/>
      <point x="1157" y="33"/>
      <point x="1157" y="-270" type="curve" smooth="yes"/>
      <point x="1157" y="-533"/>
      <point x="934" y="-740"/>
    </contour>
  </outline>
</glyph>
<glyph name="uni1995" format="1">
  <advance width="1251"/>
  <unicode hex="1995"/>
  <outline>
    <contour>
      <point x="1120" y="90" type="curve" smooth="yes"/>
      <point x="1129" y="87"/>
      <point x="1133" y="73"/>
      <point x="1128" y="64" type="curve" smooth="yes"/>
      <point x="1082" y="-15" type="line" smooth="yes"/>
      <point x="1078" y="-23"/>
      <point x="1066" y="-24"/>
      <point x="1055" y="-20" type="curve" smooth="yes"/>
      <point x="858" y="52"/>
      <point x="685" y="331"/>
      <point x="685" y="600" type="curve" smooth="yes"/>
      <point x="685" y="813"/>
      <point x="739" y="970"/>
      <point x="890" y="970" type="curve"/>
      <point x="890" y="865" type="line"/>
      <point x="815" y="861"/>
      <point x="790" y="739"/>
      <point x="790" y="605" type="curve" smooth="yes"/>
      <point x="790" y="384"/>
      <point x="956" y="147"/>
    </contour>
    <contour>
      <point x="130" y="710" type="curve" smooth="yes"/>
      <point x="130" y="845"/>
      <point x="243" y="970"/>
      <point x="390" y="970" type="curve" smooth="yes"/>
      <point x="441" y="970"/>
      <point x="499" y="958"/>
      <point x="530" y="935" type="curve" smooth="yes"/>
      <point x="538" y="929"/>
      <point x="543" y="920"/>
      <point x="538" y="911" type="curve" smooth="yes"/>
      <point x="492" y="837" type="line" smooth="yes"/>
      <point x="488" y="829"/>
      <point x="475" y="825"/>
      <point x="465" y="830" type="curve" smooth="yes"/>
      <point x="448" y="839"/>
      <point x="410" y="845"/>
      <point x="390" y="845" type="curve" smooth="yes"/>
      <point x="311" y="845"/>
      <point x="255" y="784"/>
      <point x="255" y="710" type="curve" smooth="yes"/>
      <point x="255" y="623"/>
      <point x="331" y="553"/>
      <point x="487" y="553" type="curve" smooth="yes"/>
      <point x="497" y="553"/>
      <point x="507" y="546"/>
      <point x="507" y="535" type="curve" smooth="yes"/>
      <point x="507" y="485" type="line" smooth="yes"/>
      <point x="507" y="476"/>
      <point x="497" y="468"/>
      <point x="487" y="468" type="curve" smooth="yes"/>
      <point x="326" y="468"/>
      <point x="130" y="529"/>
    </contour>
    <contour>
      <point x="545" y="-20" type="curve" smooth="yes"/>
      <point x="300" y="-20"/>
      <point x="130" y="102"/>
      <point x="130" y="300" type="curve" smooth="yes"/>
      <point x="130" y="422"/>
      <point x="259" y="544"/>
      <point x="375" y="544" type="curve" smooth="yes"/>
      <point x="440" y="544" type="line" smooth="yes"/>
      <point x="463" y="544"/>
      <point x="485" y="532"/>
      <point x="485" y="510" type="curve" smooth="yes"/>
      <point x="485" y="488"/>
      <point x="462" y="470"/>
      <point x="440" y="470" type="curve" smooth="yes"/>
      <point x="345" y="471"/>
      <point x="255" y="384"/>
      <point x="255" y="310" type="curve" smooth="yes"/>
      <point x="255" y="178"/>
      <point x="370" y="105"/>
      <point x="545" y="105" type="curve" smooth="yes"/>
      <point x="867" y="105"/>
      <point x="990" y="402"/>
      <point x="990" y="605" type="curve" smooth="yes"/>
      <point x="990" y="739"/>
      <point x="965" y="861"/>
      <point x="890" y="865" type="curve"/>
      <point x="890" y="970" type="line"/>
      <point x="1041" y="970"/>
      <point x="1095" y="813"/>
      <point x="1095" y="600" type="curve" smooth="yes"/>
      <point x="1095" y="312"/>
      <point x="934" y="-20"/>
    </contour>
  </outline>
</glyph>
<glyph name="uni1997" format="1">
  <advance width="1815"/>
  <unicode hex="1997"/>
  <outline>
    <contour>
      <point x="945" y="570" type="curve" smooth="yes"/>
      <point x="945" y="560"/>
      <point x="937" y="550"/>
      <point x="928" y="550" type="curve" smooth="yes"/>
      <point x="878" y="550" type="line" smooth="yes"/>
      <point x="867" y="550"/>
      <point x="860" y="560"/>
      <point x="860" y="570" type="curve" smooth="yes"/>
      <point x="860" y="619"/>
      <point x="871" y="675"/>
      <point x="881" y="712" type="curve" smooth="yes"/>
      <point x="922" y="866"/>
      <point x="1083" y="970"/>
      <point x="1260" y="970" type="curve" smooth="yes"/>
      <point x="1527" y="970"/>
      <point x="1695" y="742"/>
      <point x="1695" y="480" type="curve" smooth="yes"/>
      <point x="1695" y="268"/>
      <point x="1605" y="-19"/>
      <point x="1360" y="-20" type="curve" smooth="yes"/>
      <point x="1328" y="-20"/>
      <point x="1291" y="-15"/>
      <point x="1260" y="-2" type="curve" smooth="yes"/>
      <point x="1250" y="2"/>
      <point x="1247" y="14"/>
      <point x="1252" y="23" type="curve" smooth="yes"/>
      <point x="1298" y="102" type="line" smooth="yes"/>
      <point x="1302" y="110"/>
      <point x="1314" y="110"/>
      <point x="1325" y="108" type="curve" smooth="yes"/>
      <point x="1334" y="106"/>
      <point x="1349" y="105"/>
      <point x="1360" y="105" type="curve" smooth="yes"/>
      <point x="1520" y="105"/>
      <point x="1570" y="336"/>
      <point x="1570" y="480" type="curve" smooth="yes"/>
      <point x="1570" y="680"/>
      <point x="1426" y="845"/>
      <point x="1260" y="845" type="curve" smooth="yes"/>
      <point x="1093" y="845"/>
      <point x="945" y="741"/>
    </contour>
    <contour>
      <point x="860" y="570" type="curve" smooth="yes"/>
      <point x="860" y="741"/>
      <point x="712" y="845"/>
      <point x="545" y="845" type="curve" smooth="yes"/>
      <point x="379" y="845"/>
      <point x="235" y="680"/>
      <point x="235" y="480" type="curve" smooth="yes"/>
      <point x="235" y="340"/>
      <point x="285" y="105"/>
      <point x="445" y="105" type="curve" smooth="yes"/>
      <point x="456" y="105"/>
      <point x="471" y="106"/>
      <point x="480" y="108" type="curve" smooth="yes"/>
      <point x="491" y="110"/>
      <point x="503" y="110"/>
      <point x="507" y="102" type="curve" smooth="yes"/>
      <point x="553" y="23" type="line" smooth="yes"/>
      <point x="558" y="14"/>
      <point x="555" y="2"/>
      <point x="545" y="-2" type="curve" smooth="yes"/>
      <point x="514" y="-15"/>
      <point x="477" y="-20"/>
      <point x="445" y="-20" type="curve" smooth="yes"/>
      <point x="200" y="-19"/>
      <point x="110" y="268"/>
      <point x="110" y="480" type="curve" smooth="yes"/>
      <point x="110" y="742"/>
      <point x="278" y="970"/>
      <point x="545" y="970" type="curve" smooth="yes"/>
      <point x="722" y="970"/>
      <point x="883" y="866"/>
      <point x="924" y="712" type="curve" smooth="yes"/>
      <point x="934" y="675"/>
      <point x="945" y="619"/>
      <point x="945" y="570" type="curve" smooth="yes"/>
      <point x="945" y="560"/>
      <point x="938" y="550"/>
      <point x="927" y="550" type="curve" smooth="yes"/>
      <point x="877" y="550" type="line" smooth="yes"/>
      <point x="868" y="550"/>
      <point x="860" y="560"/>
    </contour>
    <contour>
      <point x="1177" y="-320" type="curve" smooth="yes"/>
      <point x="1059" y="-320"/>
      <point x="990" y="-393"/>
      <point x="990" y="-465" type="curve" smooth="yes"/>
      <point x="990" y="-547"/>
      <point x="1041" y="-645"/>
      <point x="1250" y="-645" type="curve" smooth="yes"/>
      <point x="1449" y="-645"/>
      <point x="1530" y="-477"/>
      <point x="1530" y="-355" type="curve" smooth="yes"/>
      <point x="1530" y="174" type="line"/>
      <point x="1655" y="480" type="line"/>
      <point x="1655" y="-355" type="line" smooth="yes"/>
      <point x="1655" y="-573"/>
      <point x="1498" y="-740"/>
      <point x="1250" y="-740" type="curve" smooth="yes"/>
      <point x="1002" y="-740"/>
      <point x="895" y="-613"/>
      <point x="895" y="-465" type="curve" smooth="yes"/>
      <point x="895" y="-323"/>
      <point x="1013" y="-225"/>
      <point x="1177" y="-225" type="curve" smooth="yes"/>
      <point x="1300" y="-225"/>
      <point x="1425" y="-283"/>
      <point x="1427" y="-395" type="curve" smooth="yes"/>
      <point x="1429" y="-503"/>
      <point x="1308" y="-570"/>
      <point x="1142" y="-510" type="curve" smooth="yes"/>
      <point x="1132" y="-506"/>
      <point x="1123" y="-500"/>
      <point x="1123" y="-490" type="curve" smooth="yes"/>
      <point x="1123" y="-453" type="line" smooth="yes"/>
      <point x="1123" y="-445"/>
      <point x="1133" y="-432"/>
      <point x="1142" y="-435" type="curve" smooth="yes"/>
      <point x="1249" y="-477"/>
      <point x="1332" y="-453"/>
      <point x="1332" y="-395" type="curve" smooth="yes"/>
      <point x="1332" y="-353"/>
      <point x="1260" y="-320"/>
    </contour>
  </outline>
</glyph>
<glyph name="uni199A" format="1">
  <advance width="1268"/>
  <unicode hex="199A"/>
  <outline>
    <contour>
      <point x="487" y="468" type="curve" smooth="yes"/>
      <point x="326" y="468"/>
      <point x="130" y="529"/>
      <point x="130" y="710" type="curve" smooth="yes"/>
      <point x="130" y="845"/>
      <point x="263" y="970"/>
      <point x="410" y="970" type="curve" smooth="yes"/>
      <point x="501" y="970"/>
      <point x="579" y="948"/>
      <point x="610" y="925" type="curve" smooth="yes"/>
      <point x="618" y="919"/>
      <point x="623" y="910"/>
      <point x="618" y="901" type="curve" smooth="yes"/>
      <point x="572" y="827" type="line" smooth="yes"/>
      <point x="567" y="819"/>
      <point x="555" y="815"/>
      <point x="545" y="820" type="curve" smooth="yes"/>
      <point x="528" y="829"/>
      <point x="480" y="845"/>
      <point x="410" y="845" type="curve" smooth="yes"/>
      <point x="331" y="845"/>
      <point x="255" y="784"/>
      <point x="255" y="710" type="curve" smooth="yes"/>
      <point x="255" y="623"/>
      <point x="331" y="553"/>
      <point x="487" y="553" type="curve" smooth="yes"/>
      <point x="497" y="553"/>
      <point x="507" y="546"/>
      <point x="507" y="535" type="curve" smooth="yes"/>
      <point x="507" y="485" type="line" smooth="yes"/>
      <point x="507" y="476"/>
      <point x="497" y="468"/>
    </contour>
    <contour>
      <point x="1063" y="1255" type="curve" smooth="yes"/>
      <point x="1113" y="1115"/>
      <point x="1138" y="847"/>
      <point x="1138" y="640" type="curve" smooth="yes"/>
      <point x="1138" y="144"/>
      <point x="964" y="-20"/>
      <point x="623" y="-20" type="curve" smooth="yes"/>
      <point x="348" y="-20"/>
      <point x="130" y="102"/>
      <point x="130" y="300" type="curve" smooth="yes"/>
      <point x="130" y="476"/>
      <point x="343" y="553"/>
      <point x="487" y="553" type="curve" smooth="yes"/>
      <point x="497" y="553"/>
      <point x="507" y="546"/>
      <point x="507" y="535" type="curve" smooth="yes"/>
      <point x="507" y="485" type="line" smooth="yes"/>
      <point x="507" y="476"/>
      <point x="497" y="468"/>
      <point x="487" y="468" type="curve" smooth="yes"/>
      <point x="341" y="468"/>
      <point x="255" y="384"/>
      <point x="255" y="310" type="curve" smooth="yes"/>
      <point x="255" y="178"/>
      <point x="418" y="105"/>
      <point x="623" y="105" type="curve" smooth="yes"/>
      <point x="898" y="105"/>
      <point x="1013" y="203"/>
      <point x="1013" y="640" type="curve" smooth="yes"/>
      <point x="1013" y="785"/>
      <point x="1008" y="996"/>
      <point x="978" y="1102" type="curve" smooth="yes"/>
      <point x="975" y="1112"/>
      <point x="970" y="1123"/>
      <point x="959" y="1120" type="curve" smooth="yes"/>
      <point x="910" y="1107"/>
      <point x="812" y="1090"/>
      <point x="648" y="1090" type="curve" smooth="yes"/>
      <point x="363" y="1090"/>
      <point x="168" y="1162"/>
      <point x="168" y="1330" type="curve" smooth="yes"/>
      <point x="168" y="1498"/>
      <point x="363" y="1570"/>
      <point x="648" y="1570" type="curve" smooth="yes"/>
      <point x="825" y="1570"/>
      <point x="1007" y="1519"/>
      <point x="1112" y="1449" type="curve" smooth="yes"/>
      <point x="1120" y="1444"/>
      <point x="1124" y="1436"/>
      <point x="1118" y="1425" type="curve" smooth="yes"/>
      <point x="1099" y="1390" type="line" smooth="yes"/>
      <point x="1094" y="1381"/>
      <point x="1080" y="1381"/>
      <point x="1072" y="1386" type="curve" smooth="yes"/>
      <point x="993" y="1436"/>
      <point x="809" y="1475"/>
      <point x="648" y="1475" type="curve" smooth="yes"/>
      <point x="456" y="1475"/>
      <point x="273" y="1419"/>
      <point x="273" y="1330" type="curve" smooth="yes"/>
      <point x="273" y="1231"/>
      <point x="456" y="1195"/>
      <point x="648" y="1195" type="curve" smooth="yes"/>
      <point x="815" y="1195"/>
      <point x="935" y="1221"/>
      <point x="1041" y="1269" type="curve" smooth="yes"/>
      <point x="1050" y="1273"/>
      <point x="1059" y="1266"/>
    </contour>
  </outline>
</glyph>
<glyph name="uni199B" format="1">
  <advance width="1715"/>
  <unicode hex="199B"/>
  <outline>
    <contour>
      <point x="1135" y="-345" type="curve" smooth="yes"/>
      <point x="1135" y="-390"/>
      <point x="1184" y="-435"/>
      <point x="1350" y="-435" type="curve" smooth="yes"/>
      <point x="1516" y="-435"/>
      <point x="1570" y="-390"/>
      <point x="1570" y="-345" type="curve" smooth="yes"/>
      <point x="1570" y="-301"/>
      <point x="1516" y="-260"/>
      <point x="1350" y="-260" type="curve" smooth="yes"/>
      <point x="1184" y="-260"/>
      <point x="1135" y="-300"/>
    </contour>
    <contour>
      <point x="945" y="-345" type="curve" smooth="yes"/>
      <point x="945" y="-200"/>
      <point x="1096" y="-95"/>
      <point x="1350" y="-95" type="curve" smooth="yes"/>
      <point x="1604" y="-95"/>
      <point x="1760" y="-200"/>
      <point x="1760" y="-345" type="curve" smooth="yes"/>
      <point x="1760" y="-488"/>
      <point x="1604" y="-600"/>
      <point x="1350" y="-600" type="curve" smooth="yes"/>
      <point x="1096" y="-600"/>
      <point x="945" y="-488"/>
    </contour>
    <contour>
      <point x="620" y="210" type="curve" smooth="yes"/>
      <point x="746" y="210"/>
      <point x="832" y="313"/>
      <point x="885" y="475" type="curve" smooth="yes"/>
      <point x="961" y="709"/>
      <point x="1054" y="970"/>
      <point x="1415" y="970" type="curve" smooth="yes"/>
      <point x="1702" y="970"/>
      <point x="1890" y="772"/>
      <point x="1890" y="480" type="curve" smooth="yes"/>
      <point x="1890" y="138"/>
      <point x="1715" y="-19"/>
      <point x="1470" y="-20" type="curve" smooth="yes"/>
      <point x="1438" y="-20"/>
      <point x="1401" y="-15"/>
      <point x="1370" y="-2" type="curve" smooth="yes"/>
      <point x="1360" y="2"/>
      <point x="1357" y="14"/>
      <point x="1362" y="23" type="curve"/>
      <point x="1408" y="207" type="line"/>
      <point x="1412" y="215"/>
      <point x="1424" y="215"/>
      <point x="1435" y="213" type="curve" smooth="yes"/>
      <point x="1444" y="211"/>
      <point x="1459" y="210"/>
      <point x="1470" y="210" type="curve" smooth="yes"/>
      <point x="1600" y="210"/>
      <point x="1640" y="330"/>
      <point x="1640" y="480" type="curve" smooth="yes"/>
      <point x="1640" y="660"/>
      <point x="1531" y="740"/>
      <point x="1415" y="740" type="curve" smooth="yes"/>
      <point x="1266" y="740"/>
      <point x="1175" y="606"/>
      <point x="1135" y="475" type="curve" smooth="yes"/>
      <point x="1050" y="200"/>
      <point x="938" y="-20"/>
      <point x="620" y="-20" type="curve" smooth="yes"/>
      <point x="323" y="-20"/>
      <point x="125" y="168"/>
      <point x="125" y="470" type="curve" smooth="yes"/>
      <point x="125" y="742"/>
      <point x="293" y="920"/>
      <point x="505" y="970" type="curve" smooth="yes"/>
      <point x="518" y="973"/>
      <point x="526" y="973"/>
      <point x="530" y="965" type="curve"/>
      <point x="575" y="770" type="line"/>
      <point x="580" y="762"/>
      <point x="579" y="749"/>
      <point x="565" y="745" type="curve" smooth="yes"/>
      <point x="418" y="700"/>
      <point x="375" y="580"/>
      <point x="375" y="470" type="curve" smooth="yes"/>
      <point x="375" y="290"/>
      <point x="484" y="210"/>
    </contour>
  </outline>
</glyph>
<glyph name="uni199D" format="1">
  <advance width="1825"/>
  <unicode hex="199D"/>
  <outline>
    <contour>
      <point x="665" y="1400" type="curve" smooth="yes"/>
      <point x="493" y="1400"/>
      <point x="395" y="1230"/>
      <point x="395" y="1090" type="curve" smooth="yes"/>
      <point x="395" y="984"/>
      <point x="406" y="886"/>
      <point x="454" y="757" type="curve"/>
      <point x="217" y="644" type="line"/>
      <point x="168" y="793"/>
      <point x="145" y="924"/>
      <point x="145" y="1090" type="curve" smooth="yes"/>
      <point x="145" y="1303"/>
      <point x="278" y="1570"/>
      <point x="665" y="1570" type="curve" smooth="yes"/>
      <point x="892" y="1570"/>
      <point x="1051" y="1404"/>
      <point x="1091" y="1282" type="curve" smooth="yes"/>
      <point x="1094" y="1272"/>
      <point x="1087" y="1260"/>
      <point x="1077" y="1256" type="curve"/>
      <point x="970" y="1225" type="line" smooth="yes"/>
      <point x="962" y="1222"/>
      <point x="949" y="1230"/>
      <point x="945" y="1240" type="curve" smooth="yes"/>
      <point x="900" y="1340"/>
      <point x="786" y="1400"/>
    </contour>
    <contour>
      <point x="860" y="445" type="curve" smooth="yes"/>
      <point x="860" y="616"/>
      <point x="732" y="740"/>
      <point x="555" y="740" type="curve" smooth="yes"/>
      <point x="429" y="740"/>
      <point x="320" y="620"/>
      <point x="320" y="480" type="curve" smooth="yes"/>
      <point x="320" y="340"/>
      <point x="385" y="210"/>
      <point x="485" y="210" type="curve" smooth="yes"/>
      <point x="496" y="210"/>
      <point x="511" y="211"/>
      <point x="520" y="213" type="curve" smooth="yes"/>
      <point x="531" y="215"/>
      <point x="543" y="215"/>
      <point x="547" y="207" type="curve" smooth="yes"/>
      <point x="653" y="23" type="line" smooth="yes"/>
      <point x="658" y="14"/>
      <point x="655" y="2"/>
      <point x="645" y="-2" type="curve" smooth="yes"/>
      <point x="614" y="-15"/>
      <point x="547" y="-20"/>
      <point x="515" y="-20" type="curve" smooth="yes"/>
      <point x="220" y="-19"/>
      <point x="70" y="268"/>
      <point x="70" y="480" type="curve" smooth="yes"/>
      <point x="70" y="722"/>
      <point x="228" y="970"/>
      <point x="545" y="970" type="curve" smooth="yes"/>
      <point x="699" y="970"/>
      <point x="861" y="891"/>
      <point x="942" y="768" type="curve"/>
      <point x="1023" y="891"/>
      <point x="1185" y="970"/>
      <point x="1340" y="970" type="curve" smooth="yes"/>
      <point x="1657" y="970"/>
      <point x="1815" y="722"/>
      <point x="1815" y="480" type="curve" smooth="yes"/>
      <point x="1815" y="268"/>
      <point x="1675" y="-19"/>
      <point x="1370" y="-20" type="curve" smooth="yes"/>
      <point x="1338" y="-20"/>
      <point x="1271" y="-15"/>
      <point x="1240" y="-2" type="curve" smooth="yes"/>
      <point x="1230" y="2"/>
      <point x="1227" y="14"/>
      <point x="1232" y="23" type="curve" smooth="yes"/>
      <point x="1338" y="207" type="line" smooth="yes"/>
      <point x="1342" y="215"/>
      <point x="1354" y="215"/>
      <point x="1365" y="213" type="curve" smooth="yes"/>
      <point x="1374" y="211"/>
      <point x="1389" y="210"/>
      <point x="1400" y="210" type="curve" smooth="yes"/>
      <point x="1500" y="210"/>
      <point x="1565" y="336"/>
      <point x="1565" y="480" type="curve" smooth="yes"/>
      <point x="1565" y="620"/>
      <point x="1456" y="740"/>
      <point x="1330" y="740" type="curve" smooth="yes"/>
      <point x="1153" y="740"/>
      <point x="1025" y="616"/>
      <point x="1025" y="445" type="curve" smooth="yes"/>
      <point x="1025" y="435"/>
      <point x="1019" y="425"/>
      <point x="1009" y="425" type="curve" smooth="yes"/>
      <point x="876" y="425" type="line" smooth="yes"/>
      <point x="868" y="425"/>
      <point x="860" y="435"/>
    </contour>
  </outline>
</glyph>
<glyph name="uni199E" format="1">
  <advance width="1345"/>
  <unicode hex="199E"/>
  <outline>
    <contour>
      <point x="675" y="970" type="curve" smooth="yes"/>
      <point x="1012" y="970"/>
      <point x="1215" y="763"/>
      <point x="1215" y="470" type="curve" smooth="yes"/>
      <point x="1215" y="177"/>
      <point x="1011" y="-20"/>
      <point x="675" y="-20" type="curve" smooth="yes"/>
      <point x="328" y="-20"/>
      <point x="130" y="173"/>
      <point x="130" y="470" type="curve" smooth="yes"/>
      <point x="130" y="765"/>
      <point x="338" y="970"/>
    </contour>
    <contour>
      <point x="675" y="740" type="curve" smooth="yes"/>
      <point x="499" y="740"/>
      <point x="380" y="641"/>
      <point x="380" y="470" type="curve" smooth="yes"/>
      <point x="380" y="300"/>
      <point x="509" y="210"/>
      <point x="675" y="210" type="curve" smooth="yes"/>
      <point x="842" y="210"/>
      <point x="965" y="300"/>
      <point x="965" y="470" type="curve" smooth="yes"/>
      <point x="965" y="641"/>
      <point x="832" y="740"/>
    </contour>
  </outline>
</glyph>
<glyph name="uni19A0" format="1">
  <advance width="2002"/>
  <unicode hex="19A0"/>
  <outline>
    <contour>
      <point x="580" y="210" type="curve" smooth="yes"/>
      <point x="686" y="210"/>
      <point x="752" y="313"/>
      <point x="805" y="475" type="curve" smooth="yes"/>
      <point x="881" y="709"/>
      <point x="974" y="970"/>
      <point x="1295" y="970" type="curve" smooth="yes"/>
      <point x="1562" y="970"/>
      <point x="1730" y="772"/>
      <point x="1730" y="480" type="curve" smooth="yes"/>
      <point x="1730" y="138"/>
      <point x="1555" y="-19"/>
      <point x="1310" y="-20" type="curve" smooth="yes"/>
      <point x="1278" y="-20"/>
      <point x="1191" y="-15"/>
      <point x="1160" y="-2" type="curve" smooth="yes"/>
      <point x="1150" y="2"/>
      <point x="1147" y="14"/>
      <point x="1152" y="23" type="curve" smooth="yes"/>
      <point x="1248" y="207" type="line" smooth="yes"/>
      <point x="1252" y="215"/>
      <point x="1264" y="215"/>
      <point x="1275" y="213" type="curve" smooth="yes"/>
      <point x="1284" y="211"/>
      <point x="1299" y="210"/>
      <point x="1310" y="210" type="curve" smooth="yes"/>
      <point x="1420" y="210"/>
      <point x="1480" y="330"/>
      <point x="1480" y="480" type="curve" smooth="yes"/>
      <point x="1480" y="640"/>
      <point x="1411" y="740"/>
      <point x="1295" y="740" type="curve" smooth="yes"/>
      <point x="1166" y="740"/>
      <point x="1095" y="606"/>
      <point x="1055" y="475" type="curve" smooth="yes"/>
      <point x="970" y="200"/>
      <point x="858" y="-20"/>
      <point x="580" y="-20" type="curve" smooth="yes"/>
      <point x="303" y="-20"/>
      <point x="125" y="168"/>
      <point x="125" y="470" type="curve" smooth="yes"/>
      <point x="125" y="742"/>
      <point x="243" y="920"/>
      <point x="455" y="970" type="curve" smooth="yes"/>
      <point x="468" y="973"/>
      <point x="476" y="973"/>
      <point x="480" y="965" type="curve" smooth="yes"/>
      <point x="575" y="770" type="line" smooth="yes"/>
      <point x="580" y="762"/>
      <point x="579" y="749"/>
      <point x="565" y="745" type="curve" smooth="yes"/>
      <point x="418" y="700"/>
      <point x="375" y="580"/>
      <point x="375" y="470" type="curve" smooth="yes"/>
      <point x="375" y="310"/>
      <point x="444" y="210"/>
    </contour>
  </outline>
</glyph>
<glyph name="uni19A6" format="1">
  <advance width="1805"/>
  <unicode hex="19A6"/>
  <outline>
    <contour>
      <point x="860" y="445" type="curve" smooth="yes"/>
      <point x="860" y="616"/>
      <point x="732" y="740"/>
      <point x="555" y="740" type="curve" smooth="yes"/>
      <point x="429" y="740"/>
      <point x="320" y="620"/>
      <point x="320" y="480" type="curve" smooth="yes"/>
      <point x="320" y="340"/>
      <point x="385" y="210"/>
      <point x="485" y="210" type="curve" smooth="yes"/>
      <point x="496" y="210"/>
      <point x="511" y="211"/>
      <point x="520" y="213" type="curve" smooth="yes"/>
      <point x="531" y="215"/>
      <point x="543" y="215"/>
      <point x="547" y="207" type="curve" smooth="yes"/>
      <point x="653" y="23" type="line" smooth="yes"/>
      <point x="658" y="14"/>
      <point x="655" y="2"/>
      <point x="645" y="-2" type="curve" smooth="yes"/>
      <point x="614" y="-15"/>
      <point x="547" y="-20"/>
      <point x="515" y="-20" type="curve" smooth="yes"/>
      <point x="220" y="-19"/>
      <point x="70" y="268"/>
      <point x="70" y="480" type="curve" smooth="yes"/>
      <point x="70" y="722"/>
      <point x="228" y="970"/>
      <point x="545" y="970" type="curve" smooth="yes"/>
      <point x="699" y="970"/>
      <point x="861" y="891"/>
      <point x="942" y="768" type="curve"/>
      <point x="1023" y="891"/>
      <point x="1185" y="970"/>
      <point x="1340" y="970" type="curve" smooth="yes"/>
      <point x="1657" y="970"/>
      <point x="1815" y="722"/>
      <point x="1815" y="480" type="curve" smooth="yes"/>
      <point x="1815" y="268"/>
      <point x="1675" y="-19"/>
      <point x="1370" y="-20" type="curve" smooth="yes"/>
      <point x="1338" y="-20"/>
      <point x="1271" y="-15"/>
      <point x="1240" y="-2" type="curve" smooth="yes"/>
      <point x="1230" y="2"/>
      <point x="1227" y="14"/>
      <point x="1232" y="23" type="curve" smooth="yes"/>
      <point x="1338" y="207" type="line" smooth="yes"/>
      <point x="1342" y="215"/>
      <point x="1354" y="215"/>
      <point x="1365" y="213" type="curve" smooth="yes"/>
      <point x="1374" y="211"/>
      <point x="1389" y="210"/>
      <point x="1400" y="210" type="curve" smooth="yes"/>
      <point x="1500" y="210"/>
      <point x="1565" y="336"/>
      <point x="1565" y="480" type="curve" smooth="yes"/>
      <point x="1565" y="620"/>
      <point x="1456" y="740"/>
      <point x="1330" y="740" type="curve" smooth="yes"/>
      <point x="1153" y="740"/>
      <point x="1025" y="616"/>
      <point x="1025" y="445" type="curve" smooth="yes"/>
      <point x="1025" y="435"/>
      <point x="1019" y="425"/>
      <point x="1009" y="425" type="curve" smooth="yes"/>
      <point x="876" y="425" type="line" smooth="yes"/>
      <point x="868" y="425"/>
      <point x="860" y="435"/>
    </contour>
    <contour>
      <point x="1085" y="-345" type="curve" smooth="yes"/>
      <point x="1085" y="-390"/>
      <point x="1134" y="-435"/>
      <point x="1300" y="-435" type="curve" smooth="yes"/>
      <point x="1466" y="-435"/>
      <point x="1520" y="-390"/>
      <point x="1520" y="-345" type="curve" smooth="yes"/>
      <point x="1520" y="-301"/>
      <point x="1466" y="-260"/>
      <point x="1300" y="-260" type="curve" smooth="yes"/>
      <point x="1134" y="-260"/>
      <point x="1085" y="-300"/>
    </contour>
    <contour>
      <point x="895" y="-345" type="curve" smooth="yes"/>
      <point x="895" y="-200"/>
      <point x="1046" y="-95"/>
      <point x="1300" y="-95" type="curve" smooth="yes"/>
      <point x="1554" y="-95"/>
      <point x="1710" y="-200"/>
      <point x="1710" y="-345" type="curve" smooth="yes"/>
      <point x="1710" y="-488"/>
      <point x="1554" y="-600"/>
      <point x="1300" y="-600" type="curve" smooth="yes"/>
      <point x="1046" y="-600"/>
      <point x="895" y="-488"/>
    </contour>
  </outline>
</glyph>
<glyph name="uni19A7" format="1">
  <advance width="1266"/>
  <unicode hex="19A7"/>
  <outline>
    <contour>
      <point x="524" y="470" type="curve" smooth="yes"/>
      <point x="841" y="470"/>
      <point x="1105" y="287"/>
      <point x="1135" y="15" type="curve" smooth="yes"/>
      <point x="1136" y="5"/>
      <point x="1131" y="0"/>
      <point x="1122" y="0" type="curve" smooth="yes"/>
      <point x="1079" y="0" type="line" smooth="yes"/>
      <point x="1070" y="0"/>
      <point x="1062" y="4"/>
      <point x="1060" y="15" type="curve" smooth="yes"/>
      <point x="1015" y="230"/>
      <point x="790" y="365"/>
      <point x="524" y="365" type="curve" smooth="yes"/>
      <point x="382" y="365"/>
      <point x="234" y="293"/>
      <point x="234" y="225" type="curve" smooth="yes"/>
      <point x="234" y="132"/>
      <point x="382" y="90"/>
      <point x="519" y="90" type="curve" smooth="yes"/>
      <point x="756" y="90"/>
      <point x="1009" y="233"/>
      <point x="1009" y="490" type="curve" smooth="yes"/>
      <point x="1009" y="709"/>
      <point x="826" y="845"/>
      <point x="594" y="845" type="curve" smooth="yes"/>
      <point x="433" y="845"/>
      <point x="290" y="772"/>
      <point x="229" y="665" type="curve" smooth="yes"/>
      <point x="223" y="654"/>
      <point x="209" y="651"/>
      <point x="199" y="659" type="curve" smooth="yes"/>
      <point x="130" y="713" type="line" smooth="yes"/>
      <point x="120" y="721"/>
      <point x="117" y="734"/>
      <point x="124" y="745" type="curve" smooth="yes"/>
      <point x="211" y="892"/>
      <point x="387" y="970"/>
      <point x="594" y="970" type="curve" smooth="yes"/>
      <point x="929" y="970"/>
      <point x="1134" y="748"/>
      <point x="1134" y="490" type="curve" smooth="yes"/>
      <point x="1134" y="186"/>
      <point x="865" y="-20"/>
      <point x="519" y="-20" type="curve" smooth="yes"/>
      <point x="325" y="-20"/>
      <point x="124" y="62"/>
      <point x="124" y="225" type="curve" smooth="yes"/>
      <point x="124" y="369"/>
      <point x="325" y="470"/>
    </contour>
    <contour>
      <point x="329" y="-345" type="curve" smooth="yes"/>
      <point x="329" y="-420"/>
      <point x="438" y="-475"/>
      <point x="604" y="-475" type="curve" smooth="yes"/>
      <point x="770" y="-475"/>
      <point x="884" y="-420"/>
      <point x="884" y="-345" type="curve" smooth="yes"/>
      <point x="884" y="-270"/>
      <point x="770" y="-220"/>
      <point x="604" y="-220" type="curve" smooth="yes"/>
      <point x="438" y="-220"/>
      <point x="329" y="-270"/>
    </contour>
    <contour>
      <point x="224" y="-345" type="curve" smooth="yes"/>
      <point x="224" y="-200"/>
      <point x="380" y="-115"/>
      <point x="604" y="-115" type="curve" smooth="yes"/>
      <point x="828" y="-115"/>
      <point x="989" y="-200"/>
      <point x="989" y="-345" type="curve" smooth="yes"/>
      <point x="989" y="-488"/>
      <point x="828" y="-580"/>
      <point x="604" y="-580" type="curve" smooth="yes"/>
      <point x="380" y="-580"/>
      <point x="224" y="-488"/>
    </contour>
  </outline>
</glyph>
<glyph name="uni19B0" format="1">
  <advance width="1136"/>
  <unicode hex="19B0"/>
  <outline>
    <contour>
      <point x="1026" y="785" type="curve" smooth="yes"/>
      <point x="1026" y="637"/>
      <point x="948" y="530"/>
      <point x="836" y="530" type="curve" smooth="yes"/>
      <point x="714" y="530"/>
      <point x="648" y="629"/>
      <point x="601" y="715" type="curve" smooth="yes"/>
      <point x="552" y="804"/>
      <point x="479" y="845"/>
      <point x="381" y="845" type="curve" smooth="yes"/>
      <point x="318" y="845"/>
      <point x="256" y="802"/>
      <point x="256" y="740" type="curve" smooth="yes"/>
      <point x="256" y="687"/>
      <point x="306" y="660"/>
      <point x="356" y="660" type="curve" smooth="yes"/>
      <point x="365" y="660"/>
      <point x="375" y="646"/>
      <point x="375" y="638" type="curve" smooth="yes"/>
      <point x="375" y="546" type="line" smooth="yes"/>
      <point x="375" y="536"/>
      <point x="366" y="530"/>
      <point x="356" y="530" type="curve" smooth="yes"/>
      <point x="210" y="530"/>
      <point x="129" y="612"/>
      <point x="131" y="740" type="curve" smooth="yes"/>
      <point x="133" y="882"/>
      <point x="248" y="970"/>
      <point x="381" y="970" type="curve" smooth="yes"/>
      <point x="546" y="970"/>
      <point x="646" y="883"/>
      <point x="725" y="733" type="curve" smooth="yes"/>
      <point x="750" y="686"/>
      <point x="781" y="635"/>
      <point x="836" y="635" type="curve" smooth="yes"/>
      <point x="899" y="635"/>
      <point x="951" y="690"/>
      <point x="951" y="785" type="curve" smooth="yes"/>
      <point x="951" y="795"/>
      <point x="958" y="805"/>
      <point x="969" y="805" type="curve" smooth="yes"/>
      <point x="1009" y="805" type="line" smooth="yes"/>
      <point x="1018" y="805"/>
      <point x="1026" y="795"/>
    </contour>
    <contour>
      <point x="1026" y="235" type="curve" smooth="yes"/>
      <point x="1026" y="87"/>
      <point x="948" y="-20"/>
      <point x="836" y="-20" type="curve" smooth="yes"/>
      <point x="714" y="-20"/>
      <point x="648" y="79"/>
      <point x="601" y="165" type="curve" smooth="yes"/>
      <point x="552" y="254"/>
      <point x="479" y="295"/>
      <point x="381" y="295" type="curve" smooth="yes"/>
      <point x="318" y="295"/>
      <point x="256" y="252"/>
      <point x="256" y="190" type="curve" smooth="yes"/>
      <point x="256" y="137"/>
      <point x="306" y="110"/>
      <point x="356" y="110" type="curve" smooth="yes"/>
      <point x="365" y="110"/>
      <point x="375" y="96"/>
      <point x="375" y="88" type="curve" smooth="yes"/>
      <point x="375" y="-4" type="line" smooth="yes"/>
      <point x="375" y="-14"/>
      <point x="366" y="-20"/>
      <point x="356" y="-20" type="curve" smooth="yes"/>
      <point x="210" y="-20"/>
      <point x="129" y="62"/>
      <point x="131" y="190" type="curve" smooth="yes"/>
      <point x="133" y="332"/>
      <point x="248" y="420"/>
      <point x="381" y="420" type="curve" smooth="yes"/>
      <point x="546" y="420"/>
      <point x="646" y="333"/>
      <point x="725" y="183" type="curve" smooth="yes"/>
      <point x="750" y="136"/>
      <point x="781" y="85"/>
      <point x="836" y="85" type="curve" smooth="yes"/>
      <point x="899" y="85"/>
      <point x="951" y="140"/>
      <point x="951" y="235" type="curve" smooth="yes"/>
      <point x="951" y="245"/>
      <point x="958" y="255"/>
      <point x="969" y="255" type="curve" smooth="yes"/>
      <point x="1009" y="255" type="line" smooth="yes"/>
      <point x="1018" y="255"/>
      <point x="1026" y="245"/>
    </contour>
  </outline>
</glyph>
<glyph name="uni19B3" format="1">
  <advance width="1186"/>
  <unicode hex="19B3"/>
  <outline>
    <contour>
      <point x="616" y="-645" type="curve" smooth="yes"/>
      <point x="822" y="-645"/>
      <point x="936" y="-540"/>
      <point x="971" y="-290" type="curve" smooth="yes"/>
      <point x="973" y="-279"/>
      <point x="988" y="-272"/>
      <point x="996" y="-275" type="curve" smooth="yes"/>
      <point x="1028" y="-286" type="line" smooth="yes"/>
      <point x="1038" y="-290"/>
      <point x="1043" y="-302"/>
      <point x="1042" y="-312" type="curve" smooth="yes"/>
      <point x="1012" y="-584"/>
      <point x="853" y="-740"/>
      <point x="616" y="-740" type="curve" smooth="yes"/>
      <point x="328" y="-740"/>
      <point x="177" y="-550"/>
      <point x="159" y="-250" type="curve" smooth="yes"/>
      <point x="147" y="-48"/>
      <point x="135" y="144"/>
      <point x="130" y="250" type="curve" smooth="yes"/>
      <point x="129" y="265"/>
      <point x="146" y="269"/>
      <point x="153" y="263" type="curve" smooth="yes"/>
      <point x="264" y="169"/>
      <point x="427" y="105"/>
      <point x="600" y="105" type="curve" smooth="yes"/>
      <point x="777" y="105"/>
      <point x="951" y="218"/>
      <point x="951" y="470" type="curve" smooth="yes"/>
      <point x="951" y="719"/>
      <point x="782" y="845"/>
      <point x="570" y="845" type="curve" smooth="yes"/>
      <point x="429" y="845"/>
      <point x="301" y="792"/>
      <point x="220" y="705" type="curve" smooth="yes"/>
      <point x="212" y="696"/>
      <point x="200" y="691"/>
      <point x="190" y="699" type="curve"/>
      <point x="121" y="743" type="line"/>
      <point x="111" y="751"/>
      <point x="107" y="765"/>
      <point x="115" y="775" type="curve" smooth="yes"/>
      <point x="222" y="902"/>
      <point x="383" y="970"/>
      <point x="570" y="970" type="curve" smooth="yes"/>
      <point x="875" y="970"/>
      <point x="1076" y="758"/>
      <point x="1076" y="470" type="curve" smooth="yes"/>
      <point x="1076" y="166"/>
      <point x="866" y="-20"/>
      <point x="600" y="-20" type="curve" smooth="yes"/>
      <point x="454" y="-20"/>
      <point x="354" y="18"/>
      <point x="283" y="57" type="curve" smooth="yes"/>
      <point x="276" y="61"/>
      <point x="264" y="56"/>
      <point x="265" y="48" type="curve" smooth="yes"/>
      <point x="270" y="-13"/>
      <point x="270" y="-120"/>
      <point x="284" y="-250" type="curve" smooth="yes"/>
      <point x="310" y="-496"/>
      <point x="430" y="-645"/>
    </contour>
  </outline>
</glyph>
<glyph name="uni19B6" format="1">
  <advance width="2539"/>
  <unicode hex="19B6"/>
  <outline>
    <contour>
      <point x="876" y="140" type="curve" smooth="yes"/>
      <point x="876" y="261"/>
      <point x="941" y="404"/>
      <point x="941" y="530" type="curve" smooth="yes"/>
      <point x="941" y="700"/>
      <point x="842" y="845"/>
      <point x="606" y="845" type="curve" smooth="yes"/>
      <point x="396" y="845"/>
      <point x="246" y="668"/>
      <point x="246" y="415" type="curve" smooth="yes"/>
      <point x="246" y="246"/>
      <point x="338" y="105"/>
      <point x="456" y="105" type="curve" smooth="yes"/>
      <point x="479" y="105"/>
      <point x="498" y="112"/>
      <point x="521" y="123" type="curve" smooth="yes"/>
      <point x="530" y="127"/>
      <point x="544" y="125"/>
      <point x="548" y="117" type="curve" smooth="yes"/>
      <point x="594" y="38" type="line" smooth="yes"/>
      <point x="599" y="29"/>
      <point x="596" y="18"/>
      <point x="586" y="13" type="curve" smooth="yes"/>
      <point x="542" y="-9"/>
      <point x="498" y="-20"/>
      <point x="456" y="-20" type="curve" smooth="yes"/>
      <point x="254" y="-20"/>
      <point x="123" y="170"/>
      <point x="121" y="415" type="curve" smooth="yes"/>
      <point x="119" y="711"/>
      <point x="291" y="970"/>
      <point x="606" y="970" type="curve" smooth="yes"/>
      <point x="933" y="970"/>
      <point x="1061" y="762"/>
      <point x="1061" y="530" type="curve" smooth="yes"/>
      <point x="1061" y="389"/>
      <point x="991" y="239"/>
      <point x="991" y="150" type="curve" smooth="yes"/>
      <point x="991" y="111"/>
      <point x="1017" y="80"/>
      <point x="1051" y="80" type="curve" smooth="yes"/>
      <point x="1099" y="80"/>
      <point x="1143" y="137"/>
      <point x="1151" y="185" type="curve" smooth="yes"/>
      <point x="1153" y="194"/>
      <point x="1168" y="196"/>
      <point x="1175" y="190" type="curve" smooth="yes"/>
      <point x="1215" y="151" type="line" smooth="yes"/>
      <point x="1221" y="146"/>
      <point x="1219" y="135"/>
      <point x="1216" y="125" type="curve" smooth="yes"/>
      <point x="1197" y="49"/>
      <point x="1141" y="-20"/>
      <point x="1051" y="-20" type="curve" smooth="yes"/>
      <point x="945" y="-20"/>
      <point x="876" y="52"/>
    </contour>
    <contour>
      <point x="2126" y="140" type="curve" smooth="yes"/>
      <point x="2126" y="261"/>
      <point x="2191" y="404"/>
      <point x="2191" y="530" type="curve" smooth="yes"/>
      <point x="2191" y="700"/>
      <point x="2092" y="845"/>
      <point x="1856" y="845" type="curve" smooth="yes"/>
      <point x="1646" y="845"/>
      <point x="1496" y="668"/>
      <point x="1496" y="415" type="curve" smooth="yes"/>
      <point x="1496" y="246"/>
      <point x="1588" y="105"/>
      <point x="1706" y="105" type="curve" smooth="yes"/>
      <point x="1729" y="105"/>
      <point x="1748" y="112"/>
      <point x="1771" y="123" type="curve" smooth="yes"/>
      <point x="1780" y="127"/>
      <point x="1794" y="125"/>
      <point x="1798" y="117" type="curve" smooth="yes"/>
      <point x="1844" y="38" type="line" smooth="yes"/>
      <point x="1849" y="29"/>
      <point x="1846" y="18"/>
      <point x="1836" y="13" type="curve" smooth="yes"/>
      <point x="1792" y="-9"/>
      <point x="1748" y="-20"/>
      <point x="1706" y="-20" type="curve" smooth="yes"/>
      <point x="1504" y="-20"/>
      <point x="1373" y="170"/>
      <point x="1371" y="415" type="curve" smooth="yes"/>
      <point x="1369" y="711"/>
      <point x="1541" y="970"/>
      <point x="1856" y="970" type="curve" smooth="yes"/>
      <point x="2183" y="970"/>
      <point x="2311" y="762"/>
      <point x="2311" y="530" type="curve" smooth="yes"/>
      <point x="2311" y="389"/>
      <point x="2241" y="239"/>
      <point x="2241" y="150" type="curve" smooth="yes"/>
      <point x="2241" y="111"/>
      <point x="2267" y="80"/>
      <point x="2301" y="80" type="curve" smooth="yes"/>
      <point x="2349" y="80"/>
      <point x="2393" y="137"/>
      <point x="2401" y="185" type="curve" smooth="yes"/>
      <point x="2403" y="194"/>
      <point x="2418" y="196"/>
      <point x="2425" y="190" type="curve" smooth="yes"/>
      <point x="2465" y="151" type="line" smooth="yes"/>
      <point x="2471" y="146"/>
      <point x="2469" y="135"/>
      <point x="2466" y="125" type="curve" smooth="yes"/>
      <point x="2447" y="49"/>
      <point x="2391" y="-20"/>
      <point x="2301" y="-20" type="curve" smooth="yes"/>
      <point x="2195" y="-20"/>
      <point x="2126" y="52"/>
    </contour>
  </outline>
</glyph>
<glyph name="uni19B7" format="1">
  <advance width="1152"/>
  <unicode hex="19B7"/>
  <outline>
    <contour>
      <point x="630" y="-20" type="curve" smooth="yes"/>
      <point x="315" y="-20"/>
      <point x="110" y="202"/>
      <point x="110" y="480" type="curve" smooth="yes"/>
      <point x="110" y="816"/>
      <point x="364" y="970"/>
      <point x="652" y="970" type="curve" smooth="yes"/>
      <point x="662" y="970"/>
      <point x="672" y="963"/>
      <point x="672" y="952" type="curve" smooth="yes"/>
      <point x="672" y="902" type="line" smooth="yes"/>
      <point x="672" y="893"/>
      <point x="662" y="885"/>
      <point x="652" y="885" type="curve" smooth="yes"/>
      <point x="445" y="885"/>
      <point x="235" y="722"/>
      <point x="235" y="480" type="curve" smooth="yes"/>
      <point x="235" y="241"/>
      <point x="418" y="105"/>
      <point x="630" y="105" type="curve" smooth="yes"/>
      <point x="796" y="105"/>
      <point x="924" y="194"/>
      <point x="934" y="332" type="curve" smooth="yes"/>
      <point x="935" y="342"/>
      <point x="939" y="349"/>
      <point x="947" y="351" type="curve"/>
      <point x="1040" y="351" type="line" smooth="yes"/>
      <point x="1051" y="351"/>
      <point x="1060" y="343"/>
      <point x="1060" y="333" type="curve" smooth="yes"/>
      <point x="1057" y="154"/>
      <point x="888" y="-20"/>
    </contour>
    <contour>
      <point x="652" y="885" type="curve" smooth="yes"/>
      <point x="427" y="885"/>
      <point x="138" y="970"/>
      <point x="138" y="1231" type="curve" smooth="yes"/>
      <point x="138" y="1457"/>
      <point x="336" y="1570"/>
      <point x="618" y="1570" type="curve" smooth="yes"/>
      <point x="810" y="1570"/>
      <point x="1018" y="1470"/>
      <point x="1018" y="1265" type="curve" smooth="yes"/>
      <point x="1018" y="1213"/>
      <point x="994" y="1155"/>
      <point x="970" y="1124" type="curve" smooth="yes"/>
      <point x="964" y="1117"/>
      <point x="954" y="1111"/>
      <point x="945" y="1116" type="curve" smooth="yes"/>
      <point x="909" y="1133" type="line" smooth="yes"/>
      <point x="901" y="1137"/>
      <point x="899" y="1152"/>
      <point x="903" y="1160" type="curve" smooth="yes"/>
      <point x="910" y="1176"/>
      <point x="923" y="1225"/>
      <point x="923" y="1265" type="curve" smooth="yes"/>
      <point x="923" y="1390"/>
      <point x="778" y="1460"/>
      <point x="618" y="1460" type="curve" smooth="yes"/>
      <point x="408" y="1460"/>
      <point x="263" y="1366"/>
      <point x="263" y="1230" type="curve" smooth="yes"/>
      <point x="263" y="1063"/>
      <point x="451" y="970"/>
      <point x="652" y="970" type="curve" smooth="yes"/>
      <point x="662" y="970"/>
      <point x="672" y="963"/>
      <point x="672" y="952" type="curve" smooth="yes"/>
      <point x="672" y="902" type="line" smooth="yes"/>
      <point x="672" y="893"/>
      <point x="662" y="885"/>
    </contour>
  </outline>
</glyph>
<glyph name="uni19BA" format="1">
  <advance width="1245"/>
  <unicode hex="19BA"/>
  <outline>
    <contour>
      <point x="630" y="-20" type="curve" smooth="yes"/>
      <point x="314" y="-20"/>
      <point x="110" y="176"/>
      <point x="110" y="470" type="curve" smooth="yes"/>
      <point x="110" y="748"/>
      <point x="323" y="970"/>
      <point x="638" y="970" type="curve" smooth="yes"/>
      <point x="754" y="970"/>
      <point x="865" y="940"/>
      <point x="936" y="907" type="curve" smooth="yes"/>
      <point x="943" y="904"/>
      <point x="953" y="908"/>
      <point x="954" y="916" type="curve" smooth="yes"/>
      <point x="964" y="1018"/>
      <point x="958" y="1103"/>
      <point x="948" y="1215" type="curve" smooth="yes"/>
      <point x="937" y="1337"/>
      <point x="887" y="1465"/>
      <point x="768" y="1465" type="curve" smooth="yes"/>
      <point x="649" y="1465"/>
      <point x="588" y="1352"/>
      <point x="588" y="1215" type="curve" smooth="yes"/>
      <point x="588" y="1205"/>
      <point x="581" y="1196"/>
      <point x="570" y="1196" type="curve" smooth="yes"/>
      <point x="530" y="1195" type="line" smooth="yes"/>
      <point x="521" y="1195"/>
      <point x="513" y="1205"/>
      <point x="513" y="1215" type="curve" smooth="yes"/>
      <point x="513" y="1438"/>
      <point x="590" y="1570"/>
      <point x="768" y="1570" type="curve" smooth="yes"/>
      <point x="956" y="1570"/>
      <point x="1055" y="1432"/>
      <point x="1073" y="1215" type="curve" smooth="yes"/>
      <point x="1083" y="1094"/>
      <point x="1083" y="830"/>
      <point x="1073" y="699" type="curve" smooth="yes"/>
      <point x="1072" y="684"/>
      <point x="1057" y="680"/>
      <point x="1050" y="686" type="curve" smooth="yes"/>
      <point x="939" y="780"/>
      <point x="811" y="845"/>
      <point x="638" y="845" type="curve" smooth="yes"/>
      <point x="426" y="845"/>
      <point x="235" y="709"/>
      <point x="235" y="470" type="curve" smooth="yes"/>
      <point x="235" y="238"/>
      <point x="423" y="105"/>
      <point x="630" y="105" type="curve" smooth="yes"/>
      <point x="811" y="105"/>
      <point x="944" y="148"/>
      <point x="1025" y="255" type="curve" smooth="yes"/>
      <point x="1032" y="265"/>
      <point x="1044" y="268"/>
      <point x="1055" y="261" type="curve" smooth="yes"/>
      <point x="1124" y="217" type="line" smooth="yes"/>
      <point x="1135" y="210"/>
      <point x="1138" y="195"/>
      <point x="1130" y="185" type="curve" smooth="yes"/>
      <point x="1023" y="38"/>
      <point x="837" y="-20"/>
    </contour>
  </outline>
</glyph>
<glyph name="uni19BB" format="1">
  <advance width="1701"/>
  <unicode hex="19BB"/>
  <outline>
    <contour>
      <point x="1490" y="930" type="curve" smooth="yes"/>
      <point x="1490" y="-305" type="line" smooth="yes"/>
      <point x="1490" y="-543"/>
      <point x="1328" y="-740"/>
      <point x="1080" y="-740" type="curve" smooth="yes"/>
      <point x="822" y="-740"/>
      <point x="675" y="-543"/>
      <point x="675" y="-305" type="curve" smooth="yes"/>
      <point x="675" y="93" type="line"/>
      <point x="926" y="384" type="line"/>
      <point x="926" y="-305" type="line" smooth="yes"/>
      <point x="926" y="-437"/>
      <point x="991" y="-510"/>
      <point x="1080" y="-510" type="curve" smooth="yes"/>
      <point x="1169" y="-510"/>
      <point x="1240" y="-436"/>
      <point x="1240" y="-305" type="curve" smooth="yes"/>
      <point x="1240" y="930" type="line" smooth="yes"/>
      <point x="1240" y="940"/>
      <point x="1247" y="950"/>
      <point x="1258" y="950" type="curve" smooth="yes"/>
      <point x="1473" y="950" type="line" smooth="yes"/>
      <point x="1482" y="950"/>
      <point x="1490" y="940"/>
    </contour>
    <contour>
      <point x="495" y="-20" type="curve" smooth="yes"/>
      <point x="348" y="-20"/>
      <point x="222" y="38"/>
      <point x="115" y="175" type="curve" smooth="yes"/>
      <point x="107" y="185"/>
      <point x="111" y="199"/>
      <point x="121" y="207" type="curve"/>
      <point x="250" y="331" type="line"/>
      <point x="260" y="339"/>
      <point x="273" y="334"/>
      <point x="280" y="325" type="curve" smooth="yes"/>
      <point x="351" y="238"/>
      <point x="424" y="210"/>
      <point x="495" y="210" type="curve" smooth="yes"/>
      <point x="612" y="210"/>
      <point x="715" y="299"/>
      <point x="715" y="471" type="curve" smooth="yes"/>
      <point x="715" y="640"/>
      <point x="617" y="740"/>
      <point x="485" y="740" type="curve" smooth="yes"/>
      <point x="424" y="740"/>
      <point x="341" y="712"/>
      <point x="280" y="635" type="curve" smooth="yes"/>
      <point x="272" y="625"/>
      <point x="260" y="621"/>
      <point x="250" y="629" type="curve" smooth="yes"/>
      <point x="111" y="743" type="line" smooth="yes"/>
      <point x="101" y="751"/>
      <point x="97" y="765"/>
      <point x="105" y="775" type="curve" smooth="yes"/>
      <point x="212" y="912"/>
      <point x="338" y="970"/>
      <point x="485" y="970" type="curve" smooth="yes"/>
      <point x="750" y="970"/>
      <point x="965" y="759"/>
      <point x="965" y="471" type="curve" smooth="yes"/>
      <point x="965" y="167"/>
      <point x="751" y="-20"/>
    </contour>
  </outline>
</glyph>
<glyph name="uni19BC" format="1">
  <advance width="1839"/>
  <unicode hex="19BC"/>
  <outline>
    <contour>
      <point x="953" y="-305" type="curve" smooth="yes"/>
      <point x="953" y="930" type="line" smooth="yes"/>
      <point x="953" y="940"/>
      <point x="960" y="950"/>
      <point x="971" y="950" type="curve" smooth="yes"/>
      <point x="1186" y="950" type="line" smooth="yes"/>
      <point x="1195" y="950"/>
      <point x="1203" y="940"/>
      <point x="1203" y="930" type="curve" smooth="yes"/>
      <point x="1203" y="-305" type="line" smooth="yes"/>
      <point x="1203" y="-437"/>
      <point x="1269" y="-510"/>
      <point x="1358" y="-510" type="curve" smooth="yes"/>
      <point x="1447" y="-510"/>
      <point x="1518" y="-436"/>
      <point x="1518" y="-305" type="curve" smooth="yes"/>
      <point x="1518" y="930" type="line" smooth="yes"/>
      <point x="1518" y="940"/>
      <point x="1525" y="950"/>
      <point x="1536" y="950" type="curve" smooth="yes"/>
      <point x="1751" y="950" type="line" smooth="yes"/>
      <point x="1760" y="950"/>
      <point x="1768" y="940"/>
      <point x="1768" y="930" type="curve" smooth="yes"/>
      <point x="1768" y="-305" type="line" smooth="yes"/>
      <point x="1768" y="-543"/>
      <point x="1606" y="-740"/>
      <point x="1358" y="-740" type="curve" smooth="yes"/>
      <point x="1100" y="-740"/>
      <point x="953" y="-543"/>
    </contour>
    <contour>
      <point x="460" y="730" type="curve" smooth="yes"/>
      <point x="460" y="470" type="line" smooth="yes"/>
      <point x="460" y="340"/>
      <point x="489" y="210"/>
      <point x="625" y="210" type="curve" smooth="yes"/>
      <point x="728" y="210"/>
      <point x="886" y="295"/>
      <point x="999" y="415" type="curve"/>
      <point x="1069" y="196" type="line"/>
      <point x="929" y="68"/>
      <point x="760" y="-20"/>
      <point x="625" y="-20" type="curve" smooth="yes"/>
      <point x="298" y="-20"/>
      <point x="210" y="208"/>
      <point x="210" y="470" type="curve" smooth="yes"/>
      <point x="210" y="720" type="line" smooth="yes"/>
      <point x="210" y="754"/>
      <point x="189" y="785"/>
      <point x="160" y="785" type="curve" smooth="yes"/>
      <point x="112" y="785"/>
      <point x="98" y="743"/>
      <point x="80" y="710" type="curve" smooth="yes"/>
      <point x="76" y="702"/>
      <point x="58" y="704"/>
      <point x="51" y="710" type="curve" smooth="yes"/>
      <point x="-27" y="773" type="line" smooth="yes"/>
      <point x="-35" y="780"/>
      <point x="-38" y="796"/>
      <point x="-35" y="805" type="curve" smooth="yes"/>
      <point x="-6" y="901"/>
      <point x="90" y="970"/>
      <point x="210" y="970" type="curve" smooth="yes"/>
      <point x="346" y="970"/>
      <point x="460" y="888"/>
    </contour>
  </outline>
</glyph>
